Rosario-Bold Italic.ufo
<glyph name="exclam" format="1">
  <advance width="246"/>
  <unicode hex="0021"/>
  <outline>
    <contour>
      <point x="264" y="700"/>
      <point x="248" y="709"/>
      <point x="230" y="712" type="curve" smooth="yes"/>
      <point x="204" y="716"/>
      <point x="176" y="722"/>
      <point x="150" y="722" type="curve" smooth="yes"/>
      <point x="126" y="722"/>
      <point x="119" y="711"/>
      <point x="117" y="688" type="curve" smooth="yes"/>
      <point x="81" y="222" type="line"/>
      <point x="169" y="209" type="line"/>
      <point x="263" y="667" type="line" smooth="yes"/>
      <point x="264" y="671"/>
      <point x="264" y="675"/>
      <point x="264" y="680" type="curve" smooth="yes"/>
    </contour>
    <contour>
      <point x="176" y="103"/>
      <point x="142" y="136"/>
      <point x="101" y="136" type="curve" smooth="yes"/>
      <point x="61" y="136"/>
      <point x="27" y="102"/>
      <point x="27" y="62" type="curve" smooth="yes"/>
      <point x="27" y="21"/>
      <point x="61" y="-12"/>
      <point x="101" y="-12" type="curve" smooth="yes"/>
      <point x="142" y="-12"/>
      <point x="176" y="21"/>
      <point x="176" y="62" type="curve" smooth="yes"/>
    </contour>
  </outline>
</glyph>
<glyph name="quotedbl" format="1">
  <advance width="300"/>
  <unicode hex="0022"/>
  <outline>
    <contour>
      <point x="317" y="732" type="line"/>
      <point x="223" y="732" type="line"/>
      <point x="199" y="559" type="line"/>
      <point x="198" y="557"/>
      <point x="218" y="457"/>
      <point x="219" y="449" type="curve"/>
      <point x="241" y="449" type="line"/>
      <point x="244" y="457"/>
      <point x="292" y="557"/>
      <point x="293" y="559" type="curve"/>
    </contour>
    <contour>
      <point x="170" y="732" type="line"/>
      <point x="76" y="732" type="line"/>
      <point x="52" y="559" type="line"/>
      <point x="51" y="558"/>
      <point x="72" y="457"/>
      <point x="73" y="449" type="curve"/>
      <point x="94" y="449" type="line"/>
      <point x="97" y="457"/>
      <point x="145" y="557"/>
      <point x="146" y="559" type="curve"/>
    </contour>
  </outline>
</glyph>
<glyph name="dollar" format="1">
  <advance width="430"/>
  <unicode hex="0024"/>
  <outline>
    <contour>
      <point x="373" y="319"/>
      <point x="191" y="290"/>
      <point x="191" y="369" type="curve" smooth="yes"/>
      <point x="191" y="412"/>
      <point x="231" y="429"/>
      <point x="264" y="429" type="curve" smooth="yes"/>
      <point x="296" y="429"/>
      <point x="330" y="416"/>
      <point x="354" y="395" type="curve"/>
      <point x="404" y="479" type="line"/>
      <point x="376" y="495"/>
      <point x="336" y="504"/>
      <point x="304" y="508" type="curve"/>
      <point x="348" y="624" type="line"/>
      <point x="280" y="624" type="line"/>
      <point x="256" y="510" type="line"/>
      <point x="164" y="505"/>
      <point x="63" y="446"/>
      <point x="63" y="332" type="curve" smooth="yes"/>
      <point x="63" y="198"/>
      <point x="245" y="228"/>
      <point x="245" y="144" type="curve" smooth="yes"/>
      <point x="245" y="94"/>
      <point x="205" y="71"/>
      <point x="165" y="71" type="curve" smooth="yes"/>
      <point x="126" y="71"/>
      <point x="93" y="91"/>
      <point x="63" y="111" type="curve"/>
      <point x="11" y="29" type="line"/>
      <point x="46" y="7"/>
      <point x="94" y="-8"/>
      <point x="136" y="-12" type="curve"/>
      <point x="91" y="-125" type="line"/>
      <point x="160" y="-125" type="line"/>
      <point x="185" y="-13" type="line"/>
      <point x="305" y="-5"/>
      <point x="373" y="78"/>
      <point x="373" y="180" type="curve" smooth="yes"/>
    </contour>
  </outline>
</glyph>
<glyph name="percent" format="1">
  <advance width="791"/>
  <unicode hex="0025"/>
  <outline>
    <contour>
      <point x="764" y="338"/>
      <point x="719" y="405"/>
      <point x="620" y="405" type="curve" smooth="yes"/>
      <point x="484" y="405"/>
      <point x="422" y="278"/>
      <point x="422" y="157" type="curve" smooth="yes"/>
      <point x="422" y="64"/>
      <point x="466" y="-4"/>
      <point x="566" y="-4" type="curve" smooth="yes"/>
      <point x="702" y="-4"/>
      <point x="764" y="124"/>
      <point x="764" y="245" type="curve" smooth="yes"/>
    </contour>
    <contour>
      <point x="638" y="699" type="line"/>
      <point x="298" y="699" type="line"/>
      <point x="277" y="709"/>
      <point x="253" y="713"/>
      <point x="229" y="713" type="curve" smooth="yes"/>
      <point x="92" y="713"/>
      <point x="30" y="586"/>
      <point x="30" y="465" type="curve" smooth="yes"/>
      <point x="30" y="372"/>
      <point x="75" y="304"/>
      <point x="174" y="304" type="curve" smooth="yes"/>
      <point x="311" y="304"/>
      <point x="373" y="433"/>
      <point x="373" y="554" type="curve" smooth="yes"/>
      <point x="373" y="585"/>
      <point x="368" y="617"/>
      <point x="353" y="645" type="curve"/>
      <point x="540" y="645" type="line"/>
      <point x="147" y="-12" type="line"/>
      <point x="214" y="-12" type="line"/>
    </contour>
    <contour>
      <point x="661" y="195"/>
      <point x="646" y="75"/>
      <point x="576" y="75" type="curve" smooth="yes"/>
      <point x="532" y="75"/>
      <point x="525" y="120"/>
      <point x="525" y="155" type="curve" smooth="yes"/>
      <point x="525" y="207"/>
      <point x="540" y="326"/>
      <point x="610" y="326" type="curve" smooth="yes"/>
      <point x="654" y="326"/>
      <point x="661" y="281"/>
      <point x="661" y="247" type="curve" smooth="yes"/>
    </contour>
    <contour>
      <point x="270" y="503"/>
      <point x="255" y="383"/>
      <point x="185" y="383" type="curve" smooth="yes"/>
      <point x="141" y="383"/>
      <point x="134" y="428"/>
      <point x="134" y="463" type="curve" smooth="yes"/>
      <point x="134" y="515"/>
      <point x="148" y="634"/>
      <point x="218" y="634" type="curve" smooth="yes"/>
      <point x="262" y="634"/>
      <point x="270" y="589"/>
      <point x="270" y="555" type="curve" smooth="yes"/>
    </contour>
  </outline>
</glyph>
<glyph name="ampersand" format="1">
  <advance width="642"/>
  <unicode hex="0026"/>
  <outline>
    <contour>
      <point x="571" y="312" type="line"/>
      <point x="570" y="292"/>
      <point x="551" y="279"/>
      <point x="532" y="279" type="curve"/>
      <point x="406" y="291" type="line"/>
      <point x="341" y="291"/>
      <point x="287" y="264"/>
      <point x="287" y="192" type="curve"/>
      <point x="365" y="192" type="line"/>
      <point x="368" y="208"/>
      <point x="382" y="220"/>
      <point x="398" y="220" type="curve" smooth="yes"/>
      <point x="415" y="220"/>
      <point x="426" y="212"/>
      <point x="426" y="195" type="curve" smooth="yes"/>
      <point x="426" y="183"/>
      <point x="416" y="167"/>
      <point x="411" y="159" type="curve" smooth="yes"/>
      <point x="374" y="108"/>
      <point x="313" y="83"/>
      <point x="250" y="83" type="curve" smooth="yes"/>
      <point x="177" y="83"/>
      <point x="132" y="122"/>
      <point x="132" y="197" type="curve" smooth="yes"/>
      <point x="132" y="245"/>
      <point x="148" y="292"/>
      <point x="177" y="331" type="curve"/>
      <point x="212" y="309"/>
      <point x="253" y="300"/>
      <point x="294" y="300" type="curve" smooth="yes"/>
      <point x="345" y="300"/>
      <point x="437" y="328"/>
      <point x="437" y="392" type="curve" smooth="yes"/>
      <point x="437" y="458"/>
      <point x="369" y="473"/>
      <point x="315" y="473" type="curve" smooth="yes"/>
      <point x="279" y="473"/>
      <point x="244" y="466"/>
      <point x="210" y="454" type="curve"/>
      <point x="209" y="459"/>
      <point x="209" y="464"/>
      <point x="209" y="469" type="curve" smooth="yes"/>
      <point x="209" y="561"/>
      <point x="287" y="615"/>
      <point x="373" y="615" type="curve" smooth="yes"/>
      <point x="418" y="615"/>
      <point x="471" y="587"/>
      <point x="503" y="555" type="curve"/>
      <point x="563" y="616" type="line"/>
      <point x="516" y="669"/>
      <point x="436" y="694"/>
      <point x="368" y="694" type="curve" smooth="yes"/>
      <point x="237" y="694"/>
      <point x="91" y="629"/>
      <point x="91" y="479" type="curve" smooth="yes"/>
      <point x="91" y="452"/>
      <point x="99" y="424"/>
      <point x="112" y="400" type="curve"/>
      <point x="44" y="347"/>
      <point x="0" y="269"/>
      <point x="0" y="182" type="curve" smooth="yes"/>
      <point x="0" y="52"/>
      <point x="88" y="-12"/>
      <point x="213" y="-12" type="curve" smooth="yes"/>
      <point x="370" y="-12"/>
      <point x="469" y="57"/>
      <point x="528" y="202" type="curve"/>
      <point x="600" y="202"/>
      <point x="649" y="234"/>
      <point x="649" y="312" type="curve"/>
    </contour>
    <contour>
      <point x="341" y="376"/>
      <point x="301" y="371"/>
      <point x="290" y="371" type="curve" smooth="yes"/>
      <point x="273" y="371"/>
      <point x="256" y="378"/>
      <point x="243" y="389" type="curve"/>
      <point x="264" y="401"/>
      <point x="286" y="407"/>
      <point x="310" y="407" type="curve" smooth="yes"/>
      <point x="322" y="407"/>
      <point x="341" y="406"/>
      <point x="341" y="391" type="curve" smooth="yes"/>
    </contour>
  </outline>
</glyph>
<glyph name="quotesingle" format="1">
  <advance width="157"/>
  <unicode hex="0027"/>
  <outline>
    <contour>
      <point x="170" y="732" type="line"/>
      <point x="76" y="732" type="line"/>
      <point x="52" y="559" type="line"/>
      <point x="51" y="558"/>
      <point x="72" y="457"/>
      <point x="73" y="449" type="curve"/>
      <point x="94" y="449" type="line"/>
      <point x="97" y="457"/>
      <point x="145" y="557"/>
      <point x="146" y="559" type="curve"/>
    </contour>
  </outline>
</glyph>
<glyph name="parenright" format="1">
  <advance width="328"/>
  <unicode hex="0029"/>
  <outline>
    <contour>
      <point x="313" y="509"/>
      <point x="264" y="635"/>
      <point x="186" y="743" type="curve"/>
      <point x="94" y="727" type="line"/>
      <point x="162" y="623"/>
      <point x="201" y="522"/>
      <point x="201" y="397" type="curve" smooth="yes"/>
      <point x="201" y="184"/>
      <point x="122" y="23"/>
      <point x="-21" y="-130" type="curve"/>
      <point x="68" y="-146" type="line"/>
      <point x="206" y="-6"/>
      <point x="313" y="172"/>
      <point x="313" y="375" type="curve" smooth="yes"/>
    </contour>
  </outline>
</glyph>
<glyph name="asterisk" format="1">
  <advance width="405"/>
  <unicode hex="002A"/>
  <outline>
    <contour>
      <point x="456" y="555" type="line"/>
      <point x="430" y="663" type="line"/>
      <point x="285" y="585" type="line"/>
      <point x="332" y="741" type="line"/>
      <point x="221" y="741" type="line"/>
      <point x="228" y="585" type="line"/>
      <point x="98" y="659" type="line"/>
      <point x="54" y="552" type="line"/>
      <point x="204" y="531" type="line"/>
      <point x="77" y="420" type="line"/>
      <point x="154" y="356" type="line"/>
      <point x="244" y="494" type="line"/>
      <point x="296" y="353" type="line"/>
      <point x="394" y="422" type="line"/>
      <point x="295" y="528" type="line"/>
    </contour>
  </outline>
</glyph>
<glyph name="plus" format="1">
  <advance width="642"/>
  <unicode hex="002B"/>
  <outline>
    <contour>
      <point x="565" y="205" type="line"/>
      <point x="565" y="293" type="line"/>
      <point x="360" y="293" type="line"/>
      <point x="360" y="497" type="line"/>
      <point x="272" y="497" type="line"/>
      <point x="272" y="292" type="line"/>
      <point x="67" y="292" type="line"/>
      <point x="67" y="204" type="line"/>
      <point x="272" y="204" type="line"/>
      <point x="272" y="0" type="line"/>
      <point x="360" y="0" type="line"/>
      <point x="360" y="205" type="line"/>
    </contour>
  </outline>
</glyph>
<glyph name="hyphen" format="1">
  <advance width="313"/>
  <unicode hex="002D"/>
  <outline>
    <contour>
      <point x="277" y="305" type="line"/>
      <point x="56" y="305" type="line"/>
      <point x="43" y="210" type="line"/>
      <point x="264" y="210" type="line"/>
    </contour>
  </outline>
</glyph>
<glyph name="period" format="1">
  <advance width="215"/>
  <unicode hex="002E"/>
  <outline>
    <contour>
      <point x="185" y="108"/>
      <point x="150" y="143"/>
      <point x="107" y="143" type="curve" smooth="yes"/>
      <point x="65" y="143"/>
      <point x="30" y="108"/>
      <point x="30" y="65" type="curve" smooth="yes"/>
      <point x="30" y="23"/>
      <point x="65" y="-12"/>
      <point x="107" y="-12" type="curve" smooth="yes"/>
      <point x="150" y="-12"/>
      <point x="185" y="23"/>
      <point x="185" y="65" type="curve" smooth="yes"/>
    </contour>
  </outline>
</glyph>
<glyph name="slash" format="1">
  <advance width="293"/>
  <unicode hex="002F"/>
  <outline>
    <contour>
      <point x="345" y="732" type="line"/>
      <point x="251" y="732" type="line"/>
      <point x="-18" y="0" type="line"/>
      <point x="75" y="0" type="line"/>
    </contour>
  </outline>
</glyph>
<glyph name="zero" format="1">
  <advance width="578"/>
  <unicode hex="0030"/>
  <outline>
    <contour>
      <point x="539" y="434"/>
      <point x="464" y="510"/>
      <point x="323" y="510" type="curve" smooth="yes"/>
      <point x="152" y="510"/>
      <point x="38" y="396"/>
      <point x="38" y="197" type="curve" smooth="yes"/>
      <point x="38" y="66"/>
      <point x="116" y="-12"/>
      <point x="254" y="-12" type="curve" smooth="yes"/>
      <point x="459" y="-12"/>
      <point x="539" y="139"/>
      <point x="539" y="301" type="curve" smooth="yes"/>
    </contour>
    <contour>
      <point x="183" y="69"/>
      <point x="161" y="123"/>
      <point x="161" y="189" type="curve" smooth="yes"/>
      <point x="161" y="286"/>
      <point x="190" y="429"/>
      <point x="312" y="429" type="curve" smooth="yes"/>
      <point x="393" y="429"/>
      <point x="415" y="371"/>
      <point x="415" y="303" type="curve" smooth="yes"/>
      <point x="415" y="202"/>
      <point x="384" y="69"/>
      <point x="265" y="69" type="curve" smooth="yes"/>
    </contour>
  </outline>
</glyph>
<glyph name="one" format="1">
  <advance width="382"/>
  <unicode hex="0031"/>
  <outline>
    <contour>
      <point x="328" y="0" type="line"/>
      <point x="341" y="99" type="line"/>
      <point x="242" y="99" type="line"/>
      <point x="294" y="498" type="line"/>
      <point x="220" y="498" type="line"/>
      <point x="45" y="413" type="line"/>
      <point x="57" y="349" type="line"/>
      <point x="163" y="378" type="line"/>
      <point x="127" y="99" type="line"/>
      <point x="24" y="99" type="line"/>
      <point x="11" y="0" type="line"/>
    </contour>
  </outline>
</glyph>
<glyph name="two" format="1">
  <advance width="464"/>
  <unicode hex="0032"/>
  <outline>
    <contour>
      <point x="432" y="99" type="line"/>
      <point x="183" y="99" type="line"/>
      <point x="243" y="151"/>
      <point x="305" y="202"/>
      <point x="362" y="256" type="curve" smooth="yes"/>
      <point x="401" y="293"/>
      <point x="430" y="341"/>
      <point x="430" y="395" type="curve" smooth="yes"/>
      <point x="430" y="475"/>
      <point x="359" y="512"/>
      <point x="286" y="512" type="curve" smooth="yes"/>
      <point x="203" y="512"/>
      <point x="134" y="477"/>
      <point x="65" y="419" type="curve"/>
      <point x="114" y="355" type="line"/>
      <point x="148" y="386"/>
      <point x="197" y="421"/>
      <point x="241" y="421" type="curve" smooth="yes"/>
      <point x="270" y="421"/>
      <point x="291" y="403"/>
      <point x="291" y="373" type="curve" smooth="yes"/>
      <point x="291" y="343"/>
      <point x="271" y="317"/>
      <point x="251" y="297" type="curve" smooth="yes"/>
      <point x="175" y="220"/>
      <point x="91" y="129"/>
      <point x="13" y="54" type="curve"/>
      <point x="13" y="0" type="line"/>
      <point x="392" y="0" type="line"/>
    </contour>
  </outline>
</glyph>
<glyph name="three" format="1">
  <advance width="410"/>
  <unicode hex="0033"/>
  <outline>
    <contour>
      <point x="365" y="189"/>
      <point x="310" y="225"/>
      <point x="234" y="225" type="curve" smooth="yes"/>
      <point x="225" y="225"/>
      <point x="214" y="224"/>
      <point x="204" y="223" type="curve"/>
      <point x="276" y="258"/>
      <point x="384" y="335"/>
      <point x="384" y="421" type="curve" smooth="yes"/>
      <point x="384" y="488"/>
      <point x="321" y="511"/>
      <point x="262" y="511" type="curve" smooth="yes"/>
      <point x="201" y="511"/>
      <point x="120" y="485"/>
      <point x="72" y="435" type="curve"/>
      <point x="118" y="379" type="line"/>
      <point x="144" y="402"/>
      <point x="186" y="428"/>
      <point x="218" y="428" type="curve" smooth="yes"/>
      <point x="239" y="428"/>
      <point x="249" y="414"/>
      <point x="249" y="394" type="curve" smooth="yes"/>
      <point x="249" y="314"/>
      <point x="141" y="235"/>
      <point x="78" y="206" type="curve"/>
      <point x="103" y="134" type="line"/>
      <point x="124" y="142"/>
      <point x="149" y="148"/>
      <point x="171" y="148" type="curve" smooth="yes"/>
      <point x="210" y="148"/>
      <point x="230" y="128"/>
      <point x="230" y="90" type="curve" smooth="yes"/>
      <point x="230" y="-84"/>
      <point x="13" y="-124"/>
      <point x="-102" y="-128" type="curve"/>
      <point x="-98" y="-198" type="line"/>
      <point x="-90" y="-198" type="line" smooth="yes"/>
      <point x="101" y="-198"/>
      <point x="365" y="-102"/>
      <point x="365" y="112" type="curve" smooth="yes"/>
    </contour>
  </outline>
</glyph>
<glyph name="five" format="1">
  <advance width="372"/>
  <unicode hex="0035"/>
  <outline>
    <contour>
      <point x="386" y="498" type="line"/>
      <point x="123" y="498" type="line"/>
      <point x="26" y="273" type="line"/>
      <point x="96" y="241"/>
      <point x="195" y="166"/>
      <point x="195" y="77" type="curve" smooth="yes"/>
      <point x="195" y="-48"/>
      <point x="82" y="-114"/>
      <point x="-17" y="-145" type="curve"/>
      <point x="4" y="-207" type="line"/>
      <point x="148" y="-187"/>
      <point x="321" y="-92"/>
      <point x="321" y="82" type="curve" smooth="yes"/>
      <point x="321" y="194"/>
      <point x="241" y="276"/>
      <point x="154" y="327" type="curve"/>
      <point x="175" y="377" type="line"/>
      <point x="353" y="377" type="line"/>
    </contour>
  </outline>
</glyph>
<glyph name="six" format="1">
  <advance width="536"/>
  <unicode hex="0036"/>
  <outline>
    <contour>
      <point x="482" y="352"/>
      <point x="411" y="421"/>
      <point x="305" y="421" type="curve" smooth="yes"/>
      <point x="261" y="421"/>
      <point x="230" y="409"/>
      <point x="190" y="384" type="curve"/>
      <point x="261" y="507"/>
      <point x="397" y="621"/>
      <point x="525" y="665" type="curve"/>
      <point x="507" y="730" type="line"/>
      <point x="460" y="718"/>
      <point x="411" y="695"/>
      <point x="366" y="672" type="curve" smooth="yes"/>
      <point x="190" y="581"/>
      <point x="17" y="419"/>
      <point x="17" y="201" type="curve" smooth="yes"/>
      <point x="17" y="75"/>
      <point x="95" y="-12"/>
      <point x="225" y="-12" type="curve" smooth="yes"/>
      <point x="380" y="-12"/>
      <point x="482" y="115"/>
      <point x="482" y="246" type="curve" smooth="yes"/>
    </contour>
    <contour>
      <point x="167" y="71"/>
      <point x="145" y="136"/>
      <point x="145" y="198" type="curve" smooth="yes"/>
      <point x="145" y="228"/>
      <point x="150" y="254"/>
      <point x="157" y="282" type="curve"/>
      <point x="188" y="313"/>
      <point x="228" y="335"/>
      <point x="269" y="335" type="curve" smooth="yes"/>
      <point x="328" y="335"/>
      <point x="353" y="287"/>
      <point x="353" y="233" type="curve" smooth="yes"/>
      <point x="353" y="161"/>
      <point x="313" y="71"/>
      <point x="234" y="71" type="curve" smooth="yes"/>
    </contour>
  </outline>
</glyph>
<glyph name="seven" format="1">
  <advance width="425"/>
  <unicode hex="0037"/>
  <outline>
    <contour>
      <point x="417" y="434" type="line"/>
      <point x="417" y="497" type="line"/>
      <point x="30" y="497" type="line"/>
      <point x="0" y="386" type="line"/>
      <point x="274" y="386" type="line"/>
      <point x="17" y="-189" type="line"/>
      <point x="146" y="-189" type="line"/>
    </contour>
  </outline>
</glyph>
<glyph name="eight" format="1">
  <advance width="461"/>
  <unicode hex="0038"/>
  <outline>
    <contour>
      <point x="429" y="278"/>
      <point x="388" y="323"/>
      <point x="341" y="375" type="curve" smooth="yes"/>
      <point x="337" y="379"/>
      <point x="333" y="383"/>
      <point x="329" y="388" type="curve"/>
      <point x="395" y="446"/>
      <point x="458" y="484"/>
      <point x="458" y="593" type="curve" smooth="yes"/>
      <point x="458" y="685"/>
      <point x="382" y="732"/>
      <point x="292" y="732" type="curve" smooth="yes"/>
      <point x="188" y="732"/>
      <point x="84" y="657"/>
      <point x="84" y="532" type="curve" smooth="yes"/>
      <point x="84" y="464"/>
      <point x="115" y="429"/>
      <point x="159" y="381" type="curve" smooth="yes"/>
      <point x="161" y="379"/>
      <point x="164" y="377"/>
      <point x="166" y="374" type="curve"/>
      <point x="90" y="312"/>
      <point x="11" y="264"/>
      <point x="11" y="146" type="curve" smooth="yes"/>
      <point x="11" y="42"/>
      <point x="97" y="-12"/>
      <point x="194" y="-12" type="curve" smooth="yes"/>
      <point x="335" y="-12"/>
      <point x="429" y="77"/>
      <point x="429" y="202" type="curve" smooth="yes"/>
    </contour>
    <contour>
      <point x="244" y="484"/>
      <point x="214" y="512"/>
      <point x="214" y="554" type="curve" smooth="yes"/>
      <point x="214" y="602"/>
      <point x="245" y="653"/>
      <point x="293" y="653" type="curve" smooth="yes"/>
      <point x="335" y="653"/>
      <point x="351" y="620"/>
      <point x="351" y="583" type="curve" smooth="yes"/>
      <point x="351" y="521"/>
      <point x="309" y="487"/>
      <point x="269" y="456" type="curve" smooth="yes"/>
    </contour>
    <contour>
      <point x="147" y="69"/>
      <point x="118" y="105"/>
      <point x="118" y="154" type="curve" smooth="yes"/>
      <point x="118" y="231"/>
      <point x="175" y="265"/>
      <point x="225" y="306" type="curve"/>
      <point x="254" y="273"/>
      <point x="301" y="232"/>
      <point x="301" y="181" type="curve" smooth="yes"/>
      <point x="301" y="123"/>
      <point x="256" y="69"/>
      <point x="198" y="69" type="curve" smooth="yes"/>
    </contour>
  </outline>
</glyph>
<glyph name="nine" format="1">
  <advance width="536"/>
  <unicode hex="0039"/>
  <outline>
    <contour>
      <point x="517" y="424"/>
      <point x="439" y="511"/>
      <point x="310" y="511" type="curve" smooth="yes"/>
      <point x="179" y="511"/>
      <point x="52" y="401"/>
      <point x="52" y="252" type="curve" smooth="yes"/>
      <point x="52" y="147"/>
      <point x="123" y="78"/>
      <point x="229" y="78" type="curve" smooth="yes"/>
      <point x="273" y="78"/>
      <point x="304" y="90"/>
      <point x="344" y="115" type="curve"/>
      <point x="270" y="-9"/>
      <point x="135" y="-105"/>
      <point x="7" y="-149" type="curve"/>
      <point x="24" y="-214" type="line"/>
      <point x="264" y="-145"/>
      <point x="517" y="40"/>
      <point x="517" y="297" type="curve" smooth="yes"/>
    </contour>
    <contour>
      <point x="346" y="186"/>
      <point x="307" y="164"/>
      <point x="266" y="164" type="curve" smooth="yes"/>
      <point x="207" y="164"/>
      <point x="182" y="211"/>
      <point x="182" y="266" type="curve" smooth="yes"/>
      <point x="182" y="335"/>
      <point x="220" y="428"/>
      <point x="300" y="428" type="curve" smooth="yes"/>
      <point x="367" y="428"/>
      <point x="389" y="363"/>
      <point x="389" y="301" type="curve" smooth="yes"/>
      <point x="389" y="270"/>
      <point x="384" y="243"/>
      <point x="378" y="217" type="curve" smooth="yes"/>
    </contour>
  </outline>
</glyph>
<glyph name="colon" format="1">
  <advance width="247"/>
  <unicode hex="003A"/>
  <outline>
    <contour>
      <point x="223" y="396"/>
      <point x="188" y="431"/>
      <point x="145" y="431" type="curve" smooth="yes"/>
      <point x="103" y="431"/>
      <point x="68" y="396"/>
      <point x="68" y="354" type="curve" smooth="yes"/>
      <point x="68" y="311"/>
      <point x="103" y="276"/>
      <point x="146" y="276" type="curve" smooth="yes"/>
      <point x="188" y="276"/>
      <point x="223" y="311"/>
      <point x="223" y="354" type="curve" smooth="yes"/>
    </contour>
    <contour>
      <point x="178" y="108"/>
      <point x="143" y="143"/>
      <point x="100" y="143" type="curve" smooth="yes"/>
      <point x="58" y="143"/>
      <point x="23" y="108"/>
      <point x="23" y="65" type="curve" smooth="yes"/>
      <point x="23" y="23"/>
      <point x="58" y="-12"/>
      <point x="101" y="-12" type="curve" smooth="yes"/>
      <point x="143" y="-12"/>
      <point x="178" y="23"/>
      <point x="178" y="65" type="curve" smooth="yes"/>
    </contour>
  </outline>
</glyph>
<glyph name="question" format="1">
  <advance width="385"/>
  <unicode hex="003F"/>
  <outline>
    <contour>
      <point x="405" y="691"/>
      <point x="317" y="732"/>
      <point x="238" y="732" type="curve" smooth="yes"/>
      <point x="194" y="732"/>
      <point x="154" y="724"/>
      <point x="112" y="712" type="curve"/>
      <point x="137" y="628" type="line"/>
      <point x="165" y="641"/>
      <point x="196" y="651"/>
      <point x="228" y="651" type="curve" smooth="yes"/>
      <point x="251" y="651"/>
      <point x="282" y="635"/>
      <point x="282" y="608" type="curve" smooth="yes"/>
      <point x="282" y="497"/>
      <point x="40" y="508"/>
      <point x="40" y="350" type="curve" smooth="yes"/>
      <point x="40" y="239"/>
      <point x="164" y="202"/>
      <point x="255" y="197" type="curve"/>
      <point x="281" y="290" type="line"/>
      <point x="266" y="290" type="line" smooth="yes"/>
      <point x="236" y="290"/>
      <point x="154" y="296"/>
      <point x="154" y="341" type="curve" smooth="yes"/>
      <point x="154" y="417"/>
      <point x="405" y="424"/>
      <point x="405" y="601" type="curve" smooth="yes"/>
    </contour>
    <contour>
      <point x="174" y="103"/>
      <point x="139" y="136"/>
      <point x="99" y="136" type="curve" smooth="yes"/>
      <point x="59" y="136"/>
      <point x="25" y="102"/>
      <point x="25" y="62" type="curve" smooth="yes"/>
      <point x="25" y="22"/>
      <point x="59" y="-12"/>
      <point x="99" y="-12" type="curve" smooth="yes"/>
      <point x="139" y="-12"/>
      <point x="174" y="21"/>
      <point x="174" y="62" type="curve" smooth="yes"/>
    </contour>
  </outline>
</glyph>
<glyph name="at" format="1">
  <advance width="832"/>
  <unicode hex="0040"/>
  <outline>
    <contour>
      <point x="451" y="-69" type="line"/>
      <point x="423" y="-77"/>
      <point x="395" y="-81"/>
      <point x="367" y="-81" type="curve" smooth="yes"/>
      <point x="217" y="-81"/>
      <point x="109" y="37"/>
      <point x="109" y="192" type="curve" smooth="yes"/>
      <point x="109" y="374"/>
      <point x="240" y="568"/>
      <point x="454" y="568" type="curve" smooth="yes"/>
      <point x="601" y="568"/>
      <point x="723" y="474"/>
      <point x="723" y="311" type="curve" smooth="yes"/>
      <point x="723" y="211"/>
      <point x="673" y="107"/>
      <point x="595" y="107" type="curve" smooth="yes"/>
      <point x="568" y="107"/>
      <point x="558" y="126"/>
      <point x="558" y="162" type="curve" smooth="yes"/>
      <point x="558" y="196"/>
      <point x="596" y="433"/>
      <point x="596" y="433" type="curve"/>
      <point x="549" y="433" type="line"/>
      <point x="532" y="403" type="line"/>
      <point x="509" y="429"/>
      <point x="470" y="440"/>
      <point x="446" y="440" type="curve" smooth="yes"/>
      <point x="314" y="440"/>
      <point x="241" y="302"/>
      <point x="241" y="206" type="curve" smooth="yes"/>
      <point x="241" y="126"/>
      <point x="279" y="50"/>
      <point x="369" y="50" type="curve" smooth="yes"/>
      <point x="404" y="50"/>
      <point x="454" y="69"/>
      <point x="483" y="107" type="curve"/>
      <point x="499" y="78"/>
      <point x="528" y="51"/>
      <point x="591" y="51" type="curve" smooth="yes"/>
      <point x="713" y="51"/>
      <point x="787" y="185"/>
      <point x="787" y="311" type="curve" smooth="yes"/>
      <point x="787" y="508"/>
      <point x="635" y="622"/>
      <point x="454" y="622" type="curve" smooth="yes"/>
      <point x="200" y="622"/>
      <point x="45" y="400"/>
      <point x="45" y="192" type="curve" smooth="yes"/>
      <point x="45" y="7"/>
      <point x="179" y="-135"/>
      <point x="367" y="-135" type="curve" smooth="yes"/>
      <point x="401" y="-135"/>
      <point x="434" y="-131"/>
      <point x="466" y="-122" type="curve"/>
    </contour>
    <contour>
      <point x="486" y="244"/>
      <point x="461" y="113"/>
      <point x="386" y="113" type="curve" smooth="yes"/>
      <point x="342" y="113"/>
      <point x="332" y="159"/>
      <point x="332" y="206" type="curve" smooth="yes"/>
      <point x="332" y="260"/>
      <point x="364" y="378"/>
      <point x="440" y="378" type="curve" smooth="yes"/>
      <point x="462" y="378"/>
      <point x="480" y="369"/>
      <point x="501" y="349" type="curve"/>
    </contour>
  </outline>
</glyph>
<glyph name="A" format="1">
  <advance width="585"/>
  <unicode hex="0041"/>
  <outline>
    <contour>
      <point x="545" y="0" type="line"/>
      <point x="397" y="732" type="line"/>
      <point x="289" y="732" type="line"/>
      <point x="-55" y="0" type="line"/>
      <point x="69" y="0" type="line"/>
      <point x="168" y="210" type="line"/>
      <point x="364" y="210" type="line"/>
      <point x="405" y="0" type="line"/>
    </contour>
    <contour>
      <point x="214" y="308" type="line"/>
      <point x="251" y="391"/>
      <point x="276" y="473"/>
      <point x="309" y="558" type="curve"/>
      <point x="320" y="474"/>
      <point x="328" y="391"/>
      <point x="343" y="308" type="curve"/>
    </contour>
  </outline>
</glyph>
<glyph name="B" format="1">
  <advance width="566"/>
  <unicode hex="0042"/>
  <outline>
    <contour>
      <point x="549" y="706"/>
      <point x="438" y="732"/>
      <point x="343" y="732" type="curve" smooth="yes"/>
      <point x="95" y="732" type="line"/>
      <point x="101" y="671" type="line"/>
      <point x="11" y="0" type="line"/>
      <point x="254" y="0" type="line" smooth="yes"/>
      <point x="394" y="0"/>
      <point x="533" y="73"/>
      <point x="533" y="229" type="curve" smooth="yes"/>
      <point x="533" y="318"/>
      <point x="469" y="384"/>
      <point x="383" y="399" type="curve"/>
      <point x="478" y="413"/>
      <point x="549" y="493"/>
      <point x="549" y="589" type="curve" smooth="yes"/>
    </contour>
    <contour>
      <point x="408" y="497"/>
      <point x="363" y="446"/>
      <point x="299" y="446" type="curve" smooth="yes"/>
      <point x="202" y="446" type="line"/>
      <point x="227" y="633" type="line"/>
      <point x="321" y="633" type="line" smooth="yes"/>
      <point x="370" y="633"/>
      <point x="408" y="613"/>
      <point x="408" y="559" type="curve" smooth="yes"/>
    </contour>
    <contour>
      <point x="397" y="158"/>
      <point x="340" y="99"/>
      <point x="258" y="99" type="curve" smooth="yes"/>
      <point x="156" y="99" type="line"/>
      <point x="189" y="347" type="line"/>
      <point x="263" y="347" type="line" smooth="yes"/>
      <point x="331" y="347"/>
      <point x="397" y="315"/>
      <point x="397" y="239" type="curve" smooth="yes"/>
    </contour>
  </outline>
</glyph>
<glyph name="C" format="1">
  <advance width="587"/>
  <unicode hex="0043"/>
  <outline>
    <contour>
      <point x="622" y="675" type="line"/>
      <point x="573" y="726"/>
      <point x="474" y="746"/>
      <point x="406" y="746" type="curve" smooth="yes"/>
      <point x="157" y="746"/>
      <point x="17" y="522"/>
      <point x="17" y="293" type="curve" smooth="yes"/>
      <point x="17" y="110"/>
      <point x="114" y="-12"/>
      <point x="304" y="-12" type="curve" smooth="yes"/>
      <point x="397" y="-12"/>
      <point x="465" y="14"/>
      <point x="543" y="62" type="curve"/>
      <point x="496" y="157" type="line"/>
      <point x="447" y="113"/>
      <point x="392" y="82"/>
      <point x="324" y="82" type="curve" smooth="yes"/>
      <point x="200" y="82"/>
      <point x="160" y="218"/>
      <point x="160" y="320" type="curve" smooth="yes"/>
      <point x="160" y="462"/>
      <point x="230" y="649"/>
      <point x="398" y="649" type="curve" smooth="yes"/>
      <point x="449" y="649"/>
      <point x="510" y="626"/>
      <point x="541" y="583" type="curve"/>
    </contour>
  </outline>
</glyph>
<glyph name="D" format="1">
  <advance width="664"/>
  <unicode hex="0044"/>
  <outline>
    <contour>
      <point x="647" y="618"/>
      <point x="542" y="732"/>
      <point x="357" y="732" type="curve" smooth="yes"/>
      <point x="94" y="732" type="line"/>
      <point x="101" y="671" type="line"/>
      <point x="11" y="0" type="line"/>
      <point x="258" y="0" type="line" smooth="yes"/>
      <point x="502" y="0"/>
      <point x="647" y="207"/>
      <point x="647" y="435" type="curve" smooth="yes"/>
    </contour>
    <contour>
      <point x="505" y="277"/>
      <point x="436" y="99"/>
      <point x="266" y="99" type="curve" smooth="yes"/>
      <point x="156" y="99" type="line"/>
      <point x="227" y="633" type="line"/>
      <point x="335" y="633" type="line" smooth="yes"/>
      <point x="461" y="633"/>
      <point x="505" y="534"/>
      <point x="505" y="423" type="curve" smooth="yes"/>
    </contour>
  </outline>
</glyph>
<glyph name="F" format="1">
  <advance width="467"/>
  <unicode hex="0046"/>
  <outline>
    <contour>
      <point x="502" y="732" type="line"/>
      <point x="95" y="732" type="line"/>
      <point x="101" y="671" type="line"/>
      <point x="11" y="0" type="line"/>
      <point x="142" y="0" type="line"/>
      <point x="186" y="327" type="line"/>
      <point x="389" y="327" type="line"/>
      <point x="402" y="426" type="line"/>
      <point x="199" y="426" type="line"/>
      <point x="227" y="633" type="line"/>
      <point x="489" y="633" type="line"/>
    </contour>
  </outline>
</glyph>
<glyph name="G" format="1">
  <advance width="668"/>
  <unicode hex="0047"/>
  <outline>
    <contour>
      <point x="655" y="665" type="line"/>
      <point x="605" y="723"/>
      <point x="495" y="744"/>
      <point x="422" y="744" type="curve" smooth="yes"/>
      <point x="161" y="744"/>
      <point x="17" y="527"/>
      <point x="17" y="284" type="curve" smooth="yes"/>
      <point x="17" y="115"/>
      <point x="101" y="-11"/>
      <point x="281" y="-11" type="curve" smooth="yes"/>
      <point x="371" y="-11"/>
      <point x="432" y="17"/>
      <point x="500" y="75" type="curve"/>
      <point x="521" y="-1" type="line"/>
      <point x="589" y="-1" type="line"/>
      <point x="600" y="130"/>
      <point x="619" y="260"/>
      <point x="638" y="390" type="curve"/>
      <point x="361" y="390" type="line"/>
      <point x="350" y="302" type="line"/>
      <point x="494" y="302" type="line"/>
      <point x="486" y="240" type="line" smooth="yes"/>
      <point x="475" y="159"/>
      <point x="410" y="85"/>
      <point x="316" y="85" type="curve" smooth="yes"/>
      <point x="193" y="85"/>
      <point x="158" y="207"/>
      <point x="158" y="308" type="curve" smooth="yes"/>
      <point x="158" y="462"/>
      <point x="228" y="650"/>
      <point x="409" y="650" type="curve" smooth="yes"/>
      <point x="486" y="650"/>
      <point x="518" y="632"/>
      <point x="575" y="583" type="curve"/>
    </contour>
  </outline>
</glyph>
<glyph name="H" format="1">
  <advance width="674"/>
  <unicode hex="0048"/>
  <outline>
    <contour>
      <point x="663" y="732" type="line"/>
      <point x="531" y="732" type="line"/>
      <point x="490" y="426" type="line"/>
      <point x="198" y="426" type="line"/>
      <point x="239" y="732" type="line"/>
      <point x="95" y="732" type="line"/>
      <point x="101" y="671" type="line"/>
      <point x="11" y="0" type="line"/>
      <point x="142" y="0" type="line"/>
      <point x="185" y="327" type="line"/>
      <point x="477" y="327" type="line"/>
      <point x="433" y="0" type="line"/>
      <point x="565" y="0" type="line"/>
    </contour>
  </outline>
</glyph>
<glyph name="I" format="1">
  <advance width="250"/>
  <unicode hex="0049"/>
  <outline>
    <contour>
      <point x="239" y="732" type="line"/>
      <point x="95" y="732" type="line"/>
      <point x="101" y="671" type="line"/>
      <point x="11" y="0" type="line"/>
      <point x="142" y="0" type="line"/>
    </contour>
  </outline>
</glyph>
<glyph name="J" format="1">
  <advance width="254"/>
  <unicode hex="004A"/>
  <outline>
    <contour>
      <point x="243" y="732" type="line"/>
      <point x="99" y="732" type="line"/>
      <point x="105" y="671" type="line"/>
      <point x="21" y="47" type="line" smooth="yes"/>
      <point x="12" y="-16"/>
      <point x="-7" y="-139"/>
      <point x="-90" y="-139" type="curve" smooth="yes"/>
      <point x="-116" y="-139"/>
      <point x="-147" y="-122"/>
      <point x="-164" y="-103" type="curve"/>
      <point x="-226" y="-186" type="line"/>
      <point x="-188" y="-212"/>
      <point x="-130" y="-230"/>
      <point x="-84" y="-230" type="curve" smooth="yes"/>
      <point x="115" y="-230"/>
      <point x="136" y="-76"/>
      <point x="157" y="81" type="curve" smooth="yes"/>
    </contour>
  </outline>
</glyph>
<glyph name="K" format="1">
  <advance width="553"/>
  <unicode hex="004B"/>
  <outline>
    <contour>
      <point x="588" y="732" type="line"/>
      <point x="447" y="732" type="line"/>
      <point x="192" y="383" type="line"/>
      <point x="239" y="732" type="line"/>
      <point x="95" y="732" type="line"/>
      <point x="101" y="671" type="line"/>
      <point x="11" y="0" type="line"/>
      <point x="142" y="0" type="line"/>
      <point x="192" y="377" type="line"/>
      <point x="361" y="0" type="line"/>
      <point x="515" y="0" type="line"/>
      <point x="330" y="387" type="line"/>
    </contour>
  </outline>
</glyph>
<glyph name="L" format="1">
  <advance width="458"/>
  <unicode hex="004C"/>
  <outline>
    <contour>
      <point x="428" y="99" type="line"/>
      <point x="156" y="99" type="line"/>
      <point x="240" y="732" type="line"/>
      <point x="96" y="732" type="line"/>
      <point x="101" y="671" type="line"/>
      <point x="11" y="0" type="line"/>
      <point x="415" y="0" type="line"/>
    </contour>
  </outline>
</glyph>
<glyph name="O" format="1">
  <advance width="707"/>
  <unicode hex="004F"/>
  <outline>
    <contour>
      <point x="690" y="622"/>
      <point x="590" y="743"/>
      <point x="401" y="743" type="curve" smooth="yes"/>
      <point x="154" y="743"/>
      <point x="17" y="523"/>
      <point x="17" y="295" type="curve" smooth="yes"/>
      <point x="17" y="117"/>
      <point x="113" y="-11"/>
      <point x="300" y="-11" type="curve" smooth="yes"/>
      <point x="549" y="-11"/>
      <point x="690" y="209"/>
      <point x="690" y="439" type="curve" smooth="yes"/>
    </contour>
    <contour>
      <point x="549" y="293"/>
      <point x="491" y="84"/>
      <point x="316" y="84" type="curve" smooth="yes"/>
      <point x="192" y="84"/>
      <point x="157" y="193"/>
      <point x="157" y="298" type="curve" smooth="yes"/>
      <point x="157" y="439"/>
      <point x="216" y="648"/>
      <point x="390" y="648" type="curve" smooth="yes"/>
      <point x="514" y="648"/>
      <point x="549" y="540"/>
      <point x="549" y="434" type="curve" smooth="yes"/>
    </contour>
  </outline>
</glyph>
<glyph name="R" format="1">
  <advance width="565"/>
  <unicode hex="0052"/>
  <outline>
    <contour>
      <point x="543" y="678"/>
      <point x="443" y="732"/>
      <point x="334" y="732" type="curve" smooth="yes"/>
      <point x="95" y="732" type="line"/>
      <point x="101" y="671" type="line"/>
      <point x="11" y="0" type="line"/>
      <point x="142" y="0" type="line"/>
      <point x="186" y="326" type="line"/>
      <point x="238" y="326" type="line"/>
      <point x="387" y="0" type="line"/>
      <point x="535" y="0" type="line"/>
      <point x="369" y="347" type="line"/>
      <point x="468" y="372"/>
      <point x="543" y="450"/>
      <point x="543" y="552" type="curve" smooth="yes"/>
    </contour>
    <contour>
      <point x="404" y="458"/>
      <point x="341" y="424"/>
      <point x="259" y="424" type="curve" smooth="yes"/>
      <point x="199" y="424" type="line"/>
      <point x="226" y="632" type="line"/>
      <point x="308" y="632" type="line" smooth="yes"/>
      <point x="360" y="632"/>
      <point x="404" y="605"/>
      <point x="404" y="549" type="curve" smooth="yes"/>
    </contour>
  </outline>
</glyph>
<glyph name="T" format="1">
  <advance width="523"/>
  <unicode hex="0054"/>
  <outline>
    <contour>
      <point x="568" y="732" type="line"/>
      <point x="43" y="732" type="line"/>
      <point x="30" y="633" type="line"/>
      <point x="222" y="633" type="line"/>
      <point x="138" y="0" type="line"/>
      <point x="274" y="0" type="line"/>
      <point x="359" y="633" type="line"/>
      <point x="554" y="633" type="line"/>
    </contour>
  </outline>
</glyph>
<glyph name="U" format="1">
  <advance width="659"/>
  <unicode hex="0055"/>
  <outline>
    <contour>
      <point x="648" y="732" type="line"/>
      <point x="541" y="732" type="line"/>
      <point x="475" y="245" type="line" smooth="yes"/>
      <point x="464" y="160"/>
      <point x="399" y="84"/>
      <point x="301" y="84" type="curve" smooth="yes"/>
      <point x="219" y="84"/>
      <point x="167" y="134"/>
      <point x="167" y="216" type="curve" smooth="yes"/>
      <point x="167" y="225"/>
      <point x="168" y="234"/>
      <point x="169" y="243" type="curve" smooth="yes"/>
      <point x="234" y="732" type="line"/>
      <point x="85" y="732" type="line"/>
      <point x="92" y="672" type="line"/>
      <point x="39" y="278" type="line" smooth="yes"/>
      <point x="36" y="257"/>
      <point x="35" y="237"/>
      <point x="35" y="216" type="curve" smooth="yes"/>
      <point x="35" y="63"/>
      <point x="125" y="-11"/>
      <point x="274" y="-11" type="curve" smooth="yes"/>
      <point x="479" y="-11"/>
      <point x="563" y="102"/>
      <point x="587" y="278" type="curve" smooth="yes"/>
    </contour>
  </outline>
</glyph>
<glyph name="W" format="1">
  <advance width="875"/>
  <unicode hex="0057"/>
  <outline>
    <contour>
      <point x="930" y="732" type="line"/>
      <point x="818" y="732" type="line"/>
      <point x="666" y="346" type="line" smooth="yes"/>
      <point x="645" y="292"/>
      <point x="614" y="182"/>
      <point x="614" y="182" type="curve"/>
      <point x="614" y="182"/>
      <point x="613" y="266"/>
      <point x="608" y="307" type="curve" smooth="yes"/>
      <point x="554" y="732" type="line"/>
      <point x="435" y="732" type="line"/>
      <point x="280" y="346" type="line" smooth="yes"/>
      <point x="258" y="292"/>
      <point x="234" y="182"/>
      <point x="234" y="182" type="curve"/>
      <point x="234" y="182"/>
      <point x="230" y="267"/>
      <point x="225" y="309" type="curve" smooth="yes"/>
      <point x="172" y="732" type="line"/>
      <point x="35" y="732" type="line"/>
      <point x="128" y="-2" type="line"/>
      <point x="260" y="-2" type="line"/>
      <point x="403" y="361" type="line" smooth="yes"/>
      <point x="424" y="415"/>
      <point x="456" y="526"/>
      <point x="456" y="526" type="curve"/>
      <point x="456" y="526"/>
      <point x="458" y="434"/>
      <point x="460" y="414" type="curve" smooth="yes"/>
      <point x="512" y="-2" type="line"/>
      <point x="646" y="-2" type="line"/>
    </contour>
  </outline>
</glyph>
<glyph name="Y" format="1">
  <advance width="523"/>
  <unicode hex="0059"/>
  <outline>
    <contour>
      <point x="578" y="732" type="line"/>
      <point x="448" y="732" type="line"/>
      <point x="277" y="472" type="line"/>
      <point x="181" y="732" type="line"/>
      <point x="35" y="732" type="line"/>
      <point x="184" y="330" type="line"/>
      <point x="141" y="0" type="line"/>
      <point x="271" y="0" type="line"/>
      <point x="315" y="327" type="line"/>
    </contour>
  </outline>
</glyph>
<glyph name="Z" format="1">
  <advance width="546"/>
  <unicode hex="005A"/>
  <outline>
    <contour>
      <point x="561" y="659" type="line"/>
      <point x="561" y="732" type="line"/>
      <point x="94" y="732" type="line"/>
      <point x="81" y="633" type="line"/>
      <point x="377" y="633" type="line"/>
      <point x="-17" y="82" type="line"/>
      <point x="-17" y="0" type="line"/>
      <point x="480" y="0" type="line"/>
      <point x="494" y="99" type="line"/>
      <point x="164" y="99" type="line"/>
    </contour>
  </outline>
</glyph>
<glyph name="asciicircum" format="1">
  <advance width="618"/>
  <unicode hex="005E"/>
  <outline>
    <contour>
      <point x="570" y="0" type="line"/>
      <point x="335" y="498" type="line"/>
      <point x="283" y="498" type="line"/>
      <point x="48" y="0" type="line"/>
      <point x="136" y="0" type="line"/>
      <point x="309" y="368" type="line"/>
      <point x="479" y="0" type="line"/>
    </contour>
  </outline>
</glyph>
<glyph name="underscore" format="1">
  <advance width="495"/>
  <unicode hex="005F"/>
  <outline>
    <contour>
      <point x="509" y="-47" type="line"/>
      <point x="1" y="-47" type="line"/>
      <point x="-12" y="-143" type="line"/>
      <point x="496" y="-143" type="line"/>
    </contour>
  </outline>
</glyph>
<glyph name="b" format="1">
  <advance width="518"/>
  <unicode hex="0062"/>
  <outline>
    <contour>
      <point x="497" y="422"/>
      <point x="446" y="510"/>
      <point x="326" y="510" type="curve" smooth="yes"/>
      <point x="284" y="510"/>
      <point x="236" y="496"/>
      <point x="198" y="460" type="curve"/>
      <point x="239" y="768" type="line"/>
      <point x="112" y="768" type="line"/>
      <point x="117" y="713" type="line"/>
      <point x="27" y="40" type="line"/>
      <point x="58" y="11"/>
      <point x="114" y="-11"/>
      <point x="179" y="-11" type="curve" smooth="yes"/>
      <point x="378" y="-11"/>
      <point x="497" y="149"/>
      <point x="497" y="301" type="curve" smooth="yes"/>
    </contour>
    <contour>
      <point x="376" y="216"/>
      <point x="310" y="71"/>
      <point x="192" y="71" type="curve" smooth="yes"/>
      <point x="162" y="71"/>
      <point x="150" y="79"/>
      <point x="150" y="98" type="curve" smooth="yes"/>
      <point x="150" y="101"/>
      <point x="150" y="104"/>
      <point x="151" y="108" type="curve" smooth="yes"/>
      <point x="184" y="354" type="line"/>
      <point x="213" y="388"/>
      <point x="264" y="426"/>
      <point x="305" y="426" type="curve" smooth="yes"/>
      <point x="356" y="426"/>
      <point x="376" y="385"/>
      <point x="376" y="325" type="curve" smooth="yes"/>
    </contour>
  </outline>
</glyph>
<glyph name="c" format="1">
  <advance width="421"/>
  <unicode hex="0063"/>
  <outline>
    <contour>
      <point x="441" y="462" type="line"/>
      <point x="405" y="492"/>
      <point x="342" y="510"/>
      <point x="296" y="510" type="curve" smooth="yes"/>
      <point x="127" y="510"/>
      <point x="21" y="364"/>
      <point x="21" y="197" type="curve" smooth="yes"/>
      <point x="21" y="80"/>
      <point x="99" y="-12"/>
      <point x="221" y="-12" type="curve" smooth="yes"/>
      <point x="288" y="-12"/>
      <point x="337" y="6"/>
      <point x="391" y="35" type="curve"/>
      <point x="354" y="121" type="line"/>
      <point x="325" y="99"/>
      <point x="285" y="76"/>
      <point x="244" y="76" type="curve" smooth="yes"/>
      <point x="170" y="76"/>
      <point x="147" y="142"/>
      <point x="147" y="209" type="curve" smooth="yes"/>
      <point x="147" y="286"/>
      <point x="181" y="427"/>
      <point x="282" y="427" type="curve" smooth="yes"/>
      <point x="320" y="427"/>
      <point x="348" y="408"/>
      <point x="372" y="383" type="curve"/>
    </contour>
  </outline>
</glyph>
<glyph name="d" format="1">
  <advance width="529"/>
  <unicode hex="0064"/>
  <outline>
    <contour>
      <point x="534" y="769" type="line"/>
      <point x="407" y="769" type="line"/>
      <point x="412" y="714" type="line"/>
      <point x="381" y="477" type="line"/>
      <point x="357" y="500"/>
      <point x="313" y="509"/>
      <point x="280" y="509" type="curve" smooth="yes"/>
      <point x="112" y="509"/>
      <point x="21" y="349"/>
      <point x="21" y="197" type="curve" smooth="yes"/>
      <point x="21" y="89"/>
      <point x="72" y="-12"/>
      <point x="192" y="-12" type="curve" smooth="yes"/>
      <point x="241" y="-12"/>
      <point x="300" y="7"/>
      <point x="339" y="59" type="curve"/>
      <point x="350" y="20"/>
      <point x="384" y="-9"/>
      <point x="424" y="-9" type="curve" smooth="yes"/>
      <point x="458" y="-9"/>
      <point x="501" y="3"/>
      <point x="530" y="22" type="curve"/>
      <point x="513" y="86" type="line"/>
      <point x="500" y="81"/>
      <point x="478" y="74"/>
      <point x="465" y="74" type="curve" smooth="yes"/>
      <point x="445" y="74"/>
      <point x="440" y="93"/>
      <point x="440" y="110" type="curve" smooth="yes"/>
      <point x="440" y="117"/>
      <point x="441" y="124"/>
      <point x="442" y="131" type="curve" smooth="yes"/>
    </contour>
    <contour>
      <point x="350" y="247"/>
      <point x="319" y="71"/>
      <point x="216" y="71" type="curve" smooth="yes"/>
      <point x="157" y="71"/>
      <point x="143" y="129"/>
      <point x="143" y="200" type="curve" smooth="yes"/>
      <point x="143" y="271"/>
      <point x="176" y="427"/>
      <point x="283" y="427" type="curve" smooth="yes"/>
      <point x="314" y="427"/>
      <point x="341" y="415"/>
      <point x="369" y="387" type="curve"/>
    </contour>
  </outline>
</glyph>
<glyph name="g" format="1">
  <advance width="508"/>
  <unicode hex="0067"/>
  <outline>
    <contour>
      <point x="500" y="521" type="line"/>
      <point x="402" y="490" type="line"/>
      <point x="377" y="501"/>
      <point x="333" y="510"/>
      <point x="300" y="510" type="curve" smooth="yes"/>
      <point x="116" y="510"/>
      <point x="22" y="349"/>
      <point x="22" y="197" type="curve" smooth="yes"/>
      <point x="22" y="89"/>
      <point x="73" y="-12"/>
      <point x="193" y="-12" type="curve" smooth="yes"/>
      <point x="235" y="-12"/>
      <point x="281" y="1"/>
      <point x="319" y="38" type="curve"/>
      <point x="323" y="38" type="line"/>
      <point x="317" y="-4"/>
      <point x="267" y="-150"/>
      <point x="165" y="-150" type="curve" smooth="yes"/>
      <point x="112" y="-150"/>
      <point x="57" y="-102"/>
      <point x="51" y="-93" type="curve"/>
      <point x="-5" y="-174" type="line"/>
      <point x="13" y="-189"/>
      <point x="74" y="-230"/>
      <point x="171" y="-230" type="curve" smooth="yes"/>
      <point x="330" y="-230"/>
      <point x="416" y="-104"/>
      <point x="439" y="66" type="curve" smooth="yes"/>
    </contour>
    <contour>
      <point x="353" y="264"/>
      <point x="326" y="71"/>
      <point x="217" y="71" type="curve" smooth="yes"/>
      <point x="158" y="71"/>
      <point x="144" y="129"/>
      <point x="144" y="200" type="curve" smooth="yes"/>
      <point x="144" y="271"/>
      <point x="181" y="426"/>
      <point x="293" y="426" type="curve" smooth="yes"/>
      <point x="324" y="426"/>
      <point x="347" y="416"/>
      <point x="372" y="404" type="curve"/>
    </contour>
  </outline>
</glyph>
<glyph name="h" format="1">
  <advance width="491"/>
  <unicode hex="0068"/>
  <outline>
    <contour>
      <point x="466" y="469"/>
      <point x="429" y="511"/>
      <point x="345" y="511" type="curve" smooth="yes"/>
      <point x="294" y="511"/>
      <point x="240" y="481"/>
      <point x="200" y="450" type="curve"/>
      <point x="244" y="769" type="line"/>
      <point x="118" y="769" type="line"/>
      <point x="122" y="715" type="line"/>
      <point x="27" y="0" type="line"/>
      <point x="141" y="0" type="line"/>
      <point x="189" y="361" type="line"/>
      <point x="211" y="382"/>
      <point x="268" y="414"/>
      <point x="299" y="414" type="curve" smooth="yes"/>
      <point x="336" y="414"/>
      <point x="349" y="395"/>
      <point x="349" y="360" type="curve" smooth="yes"/>
      <point x="349" y="348"/>
      <point x="348" y="336"/>
      <point x="346" y="324" type="curve" smooth="yes"/>
      <point x="302" y="0" type="line"/>
      <point x="428" y="0" type="line"/>
      <point x="425" y="54" type="line"/>
      <point x="463" y="336" type="line" smooth="yes"/>
      <point x="465" y="352"/>
      <point x="466" y="370"/>
      <point x="466" y="387" type="curve" smooth="yes"/>
    </contour>
  </outline>
</glyph>
<glyph name="k" format="1">
  <advance width="454"/>
  <unicode hex="006B"/>
  <outline>
    <contour>
      <point x="474" y="497" type="line"/>
      <point x="346" y="497" type="line"/>
      <point x="179" y="269" type="line"/>
      <point x="246" y="769" type="line"/>
      <point x="117" y="769" type="line"/>
      <point x="122" y="715" type="line"/>
      <point x="27" y="0" type="line"/>
      <point x="143" y="0" type="line"/>
      <point x="177" y="255" type="line"/>
      <point x="297" y="0" type="line"/>
      <point x="429" y="0" type="line"/>
      <point x="295" y="267" type="line"/>
    </contour>
  </outline>
</glyph>
<glyph name="l" format="1">
  <advance width="227"/>
  <unicode hex="006C"/>
  <outline>
    <contour>
      <point x="247" y="769" type="line"/>
      <point x="119" y="769" type="line"/>
      <point x="122" y="715" type="line"/>
      <point x="27" y="0" type="line"/>
      <point x="154" y="0" type="line"/>
      <point x="151" y="54" type="line"/>
    </contour>
  </outline>
</glyph>
<glyph name="p" format="1">
  <advance width="526"/>
  <unicode hex="0070"/>
  <outline>
    <contour>
      <point x="505" y="409"/>
      <point x="454" y="510"/>
      <point x="334" y="510" type="curve" smooth="yes"/>
      <point x="285" y="510"/>
      <point x="225" y="486"/>
      <point x="194" y="447" type="curve"/>
      <point x="193" y="467"/>
      <point x="190" y="487"/>
      <point x="184" y="507" type="curve"/>
      <point x="67" y="492" type="line"/>
      <point x="78" y="470"/>
      <point x="80" y="438"/>
      <point x="80" y="413" type="curve" smooth="yes"/>
      <point x="80" y="394"/>
      <point x="79" y="375"/>
      <point x="76" y="356" type="curve" smooth="yes"/>
      <point x="-2" y="-225" type="line"/>
      <point x="125" y="-225" type="line"/>
      <point x="120" y="-170" type="line"/>
      <point x="145" y="21" type="line"/>
      <point x="169" y="-2"/>
      <point x="214" y="-11"/>
      <point x="246" y="-11" type="curve" smooth="yes"/>
      <point x="414" y="-11"/>
      <point x="505" y="149"/>
      <point x="505" y="301" type="curve" smooth="yes"/>
    </contour>
    <contour>
      <point x="383" y="226"/>
      <point x="350" y="71"/>
      <point x="243" y="71" type="curve" smooth="yes"/>
      <point x="212" y="71"/>
      <point x="185" y="83"/>
      <point x="157" y="111" type="curve"/>
      <point x="176" y="251"/>
      <point x="201" y="426"/>
      <point x="310" y="426" type="curve" smooth="yes"/>
      <point x="369" y="426"/>
      <point x="383" y="368"/>
      <point x="383" y="297" type="curve" smooth="yes"/>
    </contour>
  </outline>
</glyph>
<glyph name="q" format="1">
  <advance width="511"/>
  <unicode hex="0071"/>
  <outline>
    <contour>
      <point x="501" y="537" type="line"/>
      <point x="454" y="537" type="line"/>
      <point x="411" y="460" type="line"/>
      <point x="374" y="497"/>
      <point x="323" y="509"/>
      <point x="290" y="509" type="curve" smooth="yes"/>
      <point x="117" y="509"/>
      <point x="21" y="349"/>
      <point x="21" y="197" type="curve" smooth="yes"/>
      <point x="21" y="89"/>
      <point x="72" y="-12"/>
      <point x="192" y="-12" type="curve" smooth="yes"/>
      <point x="234" y="-12"/>
      <point x="283" y="2"/>
      <point x="321" y="39" type="curve"/>
      <point x="286" y="-224" type="line"/>
      <point x="413" y="-224" type="line"/>
      <point x="408" y="-169" type="line"/>
    </contour>
    <contour>
      <point x="349" y="247"/>
      <point x="315" y="71"/>
      <point x="215" y="71" type="curve" smooth="yes"/>
      <point x="156" y="71"/>
      <point x="142" y="134"/>
      <point x="142" y="197" type="curve" smooth="yes"/>
      <point x="142" y="268"/>
      <point x="175" y="427"/>
      <point x="282" y="427" type="curve" smooth="yes"/>
      <point x="313" y="427"/>
      <point x="340" y="415"/>
      <point x="368" y="387" type="curve"/>
    </contour>
  </outline>
</glyph>
<glyph name="r" format="1">
  <advance width="327"/>
  <unicode hex="0072"/>
  <outline>
    <contour>
      <point x="365" y="507" type="line"/>
      <point x="298" y="507"/>
      <point x="231" y="454"/>
      <point x="194" y="402" type="curve"/>
      <point x="195" y="411"/>
      <point x="195" y="421"/>
      <point x="195" y="431" type="curve" smooth="yes"/>
      <point x="195" y="457"/>
      <point x="192" y="483"/>
      <point x="185" y="507" type="curve"/>
      <point x="63" y="497" type="line"/>
      <point x="77" y="474"/>
      <point x="79" y="439"/>
      <point x="79" y="413" type="curve" smooth="yes"/>
      <point x="79" y="396"/>
      <point x="77" y="376"/>
      <point x="75" y="363" type="curve" smooth="yes"/>
      <point x="27" y="0" type="line"/>
      <point x="141" y="0" type="line"/>
      <point x="181" y="296" type="line"/>
      <point x="213" y="338"/>
      <point x="263" y="388"/>
      <point x="326" y="388" type="curve"/>
      <point x="330" y="388" type="line"/>
    </contour>
  </outline>
</glyph>
<glyph name="s" format="1">
  <advance width="371"/>
  <unicode hex="0073"/>
  <outline>
    <contour>
      <point x="379" y="479" type="line"/>
      <point x="340" y="500"/>
      <point x="287" y="510"/>
      <point x="243" y="510" type="curve" smooth="yes"/>
      <point x="139" y="510"/>
      <point x="38" y="460"/>
      <point x="38" y="342" type="curve" smooth="yes"/>
      <point x="38" y="209"/>
      <point x="219" y="231"/>
      <point x="219" y="147" type="curve" smooth="yes"/>
      <point x="219" y="101"/>
      <point x="182" y="71"/>
      <point x="139" y="71" type="curve" smooth="yes"/>
      <point x="101" y="71"/>
      <point x="67" y="94"/>
      <point x="37" y="114" type="curve"/>
      <point x="-15" y="32" type="line"/>
      <point x="27" y="5"/>
      <point x="87" y="-12"/>
      <point x="137" y="-12" type="curve" smooth="yes"/>
      <point x="246" y="-12"/>
      <point x="346" y="49"/>
      <point x="346" y="172" type="curve" smooth="yes"/>
      <point x="346" y="311"/>
      <point x="166" y="291"/>
      <point x="166" y="369" type="curve" smooth="yes"/>
      <point x="166" y="409"/>
      <point x="202" y="426"/>
      <point x="238" y="426" type="curve" smooth="yes"/>
      <point x="270" y="426"/>
      <point x="304" y="417"/>
      <point x="327" y="395" type="curve"/>
    </contour>
  </outline>
</glyph>
<glyph name="t" format="1">
  <advance width="315"/>
  <unicode hex="0074"/>
  <outline>
    <contour>
      <point x="335" y="497" type="line"/>
      <point x="220" y="497" type="line"/>
      <point x="251" y="633" type="line"/>
      <point x="124" y="633" type="line"/>
      <point x="105" y="497" type="line"/>
      <point x="36" y="497" type="line"/>
      <point x="25" y="414" type="line"/>
      <point x="94" y="414" type="line"/>
      <point x="54" y="116" type="line" smooth="yes"/>
      <point x="52" y="104"/>
      <point x="51" y="92"/>
      <point x="51" y="82" type="curve" smooth="yes"/>
      <point x="51" y="23"/>
      <point x="79" y="-10"/>
      <point x="155" y="-10" type="curve" smooth="yes"/>
      <point x="194" y="-10"/>
      <point x="252" y="1"/>
      <point x="289" y="13" type="curve"/>
      <point x="278" y="82" type="line"/>
      <point x="254" y="76"/>
      <point x="228" y="72"/>
      <point x="203" y="72" type="curve" smooth="yes"/>
      <point x="176" y="72"/>
      <point x="170" y="90"/>
      <point x="170" y="111" type="curve" smooth="yes"/>
      <point x="170" y="120"/>
      <point x="171" y="130"/>
      <point x="172" y="139" type="curve" smooth="yes"/>
      <point x="208" y="414" type="line"/>
      <point x="323" y="414" type="line"/>
    </contour>
  </outline>
</glyph>
<glyph name="v" format="1">
  <advance width="419"/>
  <unicode hex="0076"/>
  <outline>
    <contour>
      <point x="459" y="497" type="line"/>
      <point x="342" y="497" type="line"/>
      <point x="226" y="235" type="line" smooth="yes"/>
      <point x="214" y="208"/>
      <point x="208" y="179"/>
      <point x="200" y="151" type="curve"/>
      <point x="198" y="180"/>
      <point x="196" y="207"/>
      <point x="190" y="235" type="curve" smooth="yes"/>
      <point x="137" y="497" type="line"/>
      <point x="15" y="497" type="line"/>
      <point x="121" y="-4" type="line"/>
      <point x="227" y="-4" type="line"/>
    </contour>
  </outline>
</glyph>
<glyph name="w" format="1">
  <advance width="638"/>
  <unicode hex="0077"/>
  <outline>
    <contour>
      <point x="678" y="497" type="line"/>
      <point x="563" y="497" type="line"/>
      <point x="466" y="258" type="line" smooth="yes"/>
      <point x="455" y="230"/>
      <point x="450" y="205"/>
      <point x="442" y="173" type="curve"/>
      <point x="443" y="185"/>
      <point x="443" y="200"/>
      <point x="443" y="214" type="curve" smooth="yes"/>
      <point x="443" y="237"/>
      <point x="442" y="259"/>
      <point x="441" y="266" type="curve" smooth="yes"/>
      <point x="408" y="497" type="line"/>
      <point x="296" y="497" type="line"/>
      <point x="195" y="258" type="line" smooth="yes"/>
      <point x="186" y="236"/>
      <point x="179" y="209"/>
      <point x="171" y="173" type="curve"/>
      <point x="172" y="189"/>
      <point x="172" y="204"/>
      <point x="172" y="218" type="curve" smooth="yes"/>
      <point x="172" y="240"/>
      <point x="171" y="258"/>
      <point x="170" y="266" type="curve" smooth="yes"/>
      <point x="137" y="497" type="line"/>
      <point x="15" y="497" type="line"/>
      <point x="89" y="-4" type="line"/>
      <point x="188" y="-4" type="line"/>
      <point x="303" y="266" type="line" smooth="yes"/>
      <point x="310" y="281"/>
      <point x="320" y="335"/>
      <point x="320" y="335" type="curve"/>
      <point x="320" y="335"/>
      <point x="320" y="274"/>
      <point x="322" y="258" type="curve" smooth="yes"/>
      <point x="360" y="-4" type="line"/>
      <point x="459" y="-4" type="line"/>
    </contour>
  </outline>
</glyph>
<glyph name="y" format="1">
  <advance width="419"/>
  <unicode hex="0079"/>
  <outline>
    <contour>
      <point x="459" y="497" type="line"/>
      <point x="347" y="497" type="line"/>
      <point x="305" y="405"/>
      <point x="260" y="314"/>
      <point x="220" y="221" type="curve" smooth="yes"/>
      <point x="210" y="198"/>
      <point x="203" y="170"/>
      <point x="196" y="146" type="curve"/>
      <point x="195" y="170"/>
      <point x="196" y="198"/>
      <point x="192" y="221" type="curve" smooth="yes"/>
      <point x="177" y="314"/>
      <point x="156" y="405"/>
      <point x="137" y="497" type="curve"/>
      <point x="15" y="497" type="line"/>
      <point x="120" y="1" type="line"/>
      <point x="90" y="-57"/>
      <point x="40" y="-150"/>
      <point x="-48" y="-150" type="curve" smooth="yes"/>
      <point x="-97" y="-150"/>
      <point x="-136" y="-113"/>
      <point x="-136" y="-113" type="curve"/>
      <point x="-187" y="-190" type="line"/>
      <point x="-187" y="-190"/>
      <point x="-137" y="-230"/>
      <point x="-47" y="-230" type="curve" smooth="yes"/>
      <point x="114" y="-230"/>
      <point x="179" y="-103"/>
      <point x="226" y="-3" type="curve" smooth="yes"/>
    </contour>
  </outline>
</glyph>
<glyph name="z" format="1">
  <advance width="418"/>
  <unicode hex="007A"/>
  <outline>
    <contour>
      <point x="418" y="435" type="line"/>
      <point x="418" y="497" type="line"/>
      <point x="70" y="497" type="line"/>
      <point x="59" y="414" type="line"/>
      <point x="260" y="414" type="line"/>
      <point x="-10" y="61" type="line"/>
      <point x="-10" y="0" type="line"/>
      <point x="373" y="0" type="line"/>
      <point x="384" y="84" type="line"/>
      <point x="145" y="84" type="line"/>
    </contour>
  </outline>
</glyph>
<glyph name="braceleft" format="1">
  <advance width="321"/>
  <unicode hex="007B"/>
  <outline>
    <contour>
      <point x="357" y="739" type="line"/>
      <point x="301" y="739" type="line"/>
      <point x="201" y="739"/>
      <point x="152" y="666"/>
      <point x="139" y="569" type="curve" smooth="yes"/>
      <point x="119" y="416" type="line" smooth="yes"/>
      <point x="113" y="375"/>
      <point x="94" y="327"/>
      <point x="46" y="327" type="curve"/>
      <point x="38" y="266" type="line"/>
      <point x="76" y="265"/>
      <point x="89" y="231"/>
      <point x="89" y="199" type="curve" smooth="yes"/>
      <point x="89" y="193"/>
      <point x="89" y="188"/>
      <point x="88" y="183" type="curve" smooth="yes"/>
      <point x="66" y="24" type="line" smooth="yes"/>
      <point x="64" y="9"/>
      <point x="63" y="-6"/>
      <point x="63" y="-19" type="curve" smooth="yes"/>
      <point x="63" y="-101"/>
      <point x="103" y="-147"/>
      <point x="195" y="-147" type="curve" smooth="yes"/>
      <point x="238" y="-147" type="line"/>
      <point x="247" y="-84" type="line"/>
      <point x="237" y="-84" type="line"/>
      <point x="187" y="-84"/>
      <point x="171" y="-76"/>
      <point x="171" y="-38" type="curve" smooth="yes"/>
      <point x="171" y="-28"/>
      <point x="172" y="-15"/>
      <point x="174" y="0" type="curve" smooth="yes"/>
      <point x="196" y="166" type="line" smooth="yes"/>
      <point x="198" y="180"/>
      <point x="199" y="194"/>
      <point x="199" y="209" type="curve" smooth="yes"/>
      <point x="199" y="244"/>
      <point x="191" y="278"/>
      <point x="162" y="296" type="curve"/>
      <point x="210" y="321"/>
      <point x="225" y="379"/>
      <point x="231" y="427" type="curve" smooth="yes"/>
      <point x="253" y="593" type="line" smooth="yes"/>
      <point x="262" y="661"/>
      <point x="283" y="677"/>
      <point x="348" y="677" type="curve"/>
    </contour>
  </outline>
</glyph>
<glyph name="bar" format="1">
  <advance width="235"/>
  <unicode hex="007C"/>
  <outline>
    <contour>
      <point x="168" y="-116" type="line"/>
      <point x="168" y="745" type="line"/>
      <point x="70" y="745" type="line"/>
      <point x="70" y="-116" type="line"/>
    </contour>
  </outline>
</glyph>
<glyph name="braceright" format="1">
  <advance width="321"/>
  <unicode hex="007D"/>
  <outline>
    <contour>
      <point x="308" y="328" type="line"/>
      <point x="270" y="329"/>
      <point x="258" y="360"/>
      <point x="258" y="393" type="curve" smooth="yes"/>
      <point x="258" y="401"/>
      <point x="258" y="409"/>
      <point x="259" y="416" type="curve" smooth="yes"/>
      <point x="280" y="569" type="line" smooth="yes"/>
      <point x="282" y="583"/>
      <point x="283" y="597"/>
      <point x="283" y="610" type="curve" smooth="yes"/>
      <point x="283" y="686"/>
      <point x="249" y="739"/>
      <point x="163" y="739" type="curve" smooth="yes"/>
      <point x="108" y="739" type="line"/>
      <point x="99" y="676" type="line"/>
      <point x="105" y="676" type="line" smooth="yes"/>
      <point x="155" y="676"/>
      <point x="174" y="664"/>
      <point x="174" y="623" type="curve" smooth="yes"/>
      <point x="174" y="614"/>
      <point x="174" y="604"/>
      <point x="172" y="593" type="curve" smooth="yes"/>
      <point x="150" y="427" type="line" smooth="yes"/>
      <point x="148" y="413"/>
      <point x="147" y="398"/>
      <point x="147" y="383" type="curve" smooth="yes"/>
      <point x="147" y="347"/>
      <point x="155" y="314"/>
      <point x="184" y="296" type="curve"/>
      <point x="136" y="271"/>
      <point x="121" y="214"/>
      <point x="115" y="166" type="curve" smooth="yes"/>
      <point x="93" y="0" type="line" smooth="yes"/>
      <point x="83" y="-74"/>
      <point x="70" y="-85"/>
      <point x="-2" y="-85" type="curve"/>
      <point x="-10" y="-147" type="line"/>
      <point x="33" y="-147" type="line" smooth="yes"/>
      <point x="140" y="-147"/>
      <point x="192" y="-85"/>
      <point x="207" y="24" type="curve" smooth="yes"/>
      <point x="228" y="183" type="line" smooth="yes"/>
      <point x="233" y="222"/>
      <point x="257" y="267"/>
      <point x="300" y="267" type="curve"/>
    </contour>
  </outline>
</glyph>
<glyph name="asciitilde" format="1">
  <advance width="559"/>
  <unicode hex="007E"/>
  <outline>
    <contour>
      <point x="464" y="357" type="line"/>
      <point x="447" y="325"/>
      <point x="418" y="284"/>
      <point x="380" y="284" type="curve" smooth="yes"/>
      <point x="327" y="284"/>
      <point x="259" y="354"/>
      <point x="174" y="354" type="curve" smooth="yes"/>
      <point x="114" y="354"/>
      <point x="60" y="299"/>
      <point x="35" y="244" type="curve"/>
      <point x="98" y="189" type="line"/>
      <point x="111" y="220"/>
      <point x="138" y="264"/>
      <point x="174" y="264" type="curve" smooth="yes"/>
      <point x="245" y="264"/>
      <point x="302" y="194"/>
      <point x="380" y="194" type="curve" smooth="yes"/>
      <point x="436" y="194"/>
      <point x="495" y="252"/>
      <point x="524" y="299" type="curve"/>
    </contour>
  </outline>
</glyph>
<glyph name="exclamdown" format="1">
  <advance width="245"/>
  <unicode hex="00A1"/>
  <outline>
    <contour>
      <point x="238" y="571"/>
      <point x="204" y="605"/>
      <point x="164" y="605" type="curve" smooth="yes"/>
      <point x="123" y="605"/>
      <point x="89" y="572"/>
      <point x="89" y="531" type="curve" smooth="yes"/>
      <point x="89" y="490"/>
      <point x="123" y="457"/>
      <point x="164" y="457" type="curve" smooth="yes"/>
      <point x="204" y="457"/>
      <point x="238" y="490"/>
      <point x="238" y="531" type="curve" smooth="yes"/>
    </contour>
    <contour>
      <point x="184" y="371" type="line"/>
      <point x="96" y="383" type="line"/>
      <point x="2" y="-74" type="line" smooth="yes"/>
      <point x="1" y="-78"/>
      <point x="0" y="-83"/>
      <point x="0" y="-87" type="curve" smooth="yes"/>
      <point x="0" y="-107"/>
      <point x="17" y="-116"/>
      <point x="35" y="-119" type="curve" smooth="yes"/>
      <point x="61" y="-123"/>
      <point x="89" y="-130"/>
      <point x="114" y="-130" type="curve" smooth="yes"/>
      <point x="139" y="-130"/>
      <point x="146" y="-118"/>
      <point x="148" y="-96" type="curve" smooth="yes"/>
    </contour>
  </outline>
</glyph>
<glyph name="cent" format="1">
  <advance width="421"/>
  <unicode hex="00A2"/>
  <outline>
    <contour>
      <point x="440" y="462" type="line"/>
      <point x="410" y="487"/>
      <point x="367" y="503"/>
      <point x="329" y="508" type="curve"/>
      <point x="370" y="622" type="line"/>
      <point x="300" y="622" type="line"/>
      <point x="276" y="509" type="line"/>
      <point x="111" y="493"/>
      <point x="20" y="353"/>
      <point x="20" y="196" type="curve" smooth="yes"/>
      <point x="20" y="99"/>
      <point x="61" y="19"/>
      <point x="160" y="-5" type="curve"/>
      <point x="113" y="-128" type="line"/>
      <point x="182" y="-128" type="line"/>
      <point x="208" y="-12" type="line"/>
      <point x="222" y="-12" type="line"/>
      <point x="286" y="-12"/>
      <point x="338" y="7"/>
      <point x="390" y="35" type="curve"/>
      <point x="354" y="121" type="line"/>
      <point x="323" y="97"/>
      <point x="290" y="72"/>
      <point x="248" y="72" type="curve" smooth="yes"/>
      <point x="170" y="72"/>
      <point x="147" y="142"/>
      <point x="147" y="209" type="curve" smooth="yes"/>
      <point x="147" y="286"/>
      <point x="186" y="425"/>
      <point x="282" y="425" type="curve" smooth="yes"/>
      <point x="319" y="425"/>
      <point x="345" y="411"/>
      <point x="373" y="386" type="curve"/>
    </contour>
  </outline>
</glyph>
<glyph name="sterling" format="1">
  <advance width="514"/>
  <unicode hex="00A3"/>
  <outline>
    <contour>
      <point x="565" y="629" type="line"/>
      <point x="530" y="703"/>
      <point x="479" y="744"/>
      <point x="394" y="744" type="curve" smooth="yes"/>
      <point x="273" y="744"/>
      <point x="174" y="671"/>
      <point x="157" y="538" type="curve" smooth="yes"/>
      <point x="144" y="441" type="line"/>
      <point x="70" y="441" type="line"/>
      <point x="57" y="342" type="line"/>
      <point x="130" y="342" type="line"/>
      <point x="98" y="100" type="line"/>
      <point x="10" y="100" type="line"/>
      <point x="-4" y="0" type="line"/>
      <point x="491" y="0" type="line"/>
      <point x="505" y="100" type="line"/>
      <point x="226" y="100" type="line"/>
      <point x="258" y="342" type="line"/>
      <point x="382" y="342" type="line"/>
      <point x="395" y="441" type="line"/>
      <point x="272" y="441" type="line"/>
      <point x="287" y="552" type="line" smooth="yes"/>
      <point x="294" y="606"/>
      <point x="326" y="648"/>
      <point x="380" y="648" type="curve" smooth="yes"/>
      <point x="424" y="648"/>
      <point x="451" y="613"/>
      <point x="464" y="575" type="curve"/>
    </contour>
  </outline>
</glyph>
<glyph name="currency" format="1">
  <advance width="536"/>
  <unicode hex="00A4"/>
  <outline>
    <contour>
      <point x="427" y="104" type="line"/>
      <point x="496" y="173" type="line"/>
      <point x="439" y="229" type="line"/>
      <point x="455" y="259"/>
      <point x="465" y="294"/>
      <point x="465" y="332" type="curve" smooth="yes"/>
      <point x="465" y="369"/>
      <point x="455" y="405"/>
      <point x="439" y="436" type="curve"/>
      <point x="496" y="493" type="line"/>
      <point x="427" y="562" type="line"/>
      <point x="374" y="509" type="line"/>
      <point x="343" y="531"/>
      <point x="306" y="543"/>
      <point x="266" y="543" type="curve" smooth="yes"/>
      <point x="226" y="543"/>
      <point x="189" y="531"/>
      <point x="158" y="509" type="curve"/>
      <point x="106" y="562" type="line"/>
      <point x="37" y="493" type="line"/>
      <point x="93" y="436" type="line"/>
      <point x="77" y="405"/>
      <point x="68" y="370"/>
      <point x="68" y="332" type="curve" smooth="yes"/>
      <point x="68" y="294"/>
      <point x="77" y="259"/>
      <point x="93" y="228" type="curve"/>
      <point x="37" y="173" type="line"/>
      <point x="106" y="104" type="line"/>
      <point x="157" y="155" type="line"/>
      <point x="188" y="133"/>
      <point x="226" y="121"/>
      <point x="266" y="121" type="curve" smooth="yes"/>
      <point x="306" y="121"/>
      <point x="344" y="133"/>
      <point x="375" y="155" type="curve"/>
    </contour>
    <contour>
      <point x="220" y="205"/>
      <point x="163" y="245"/>
      <point x="163" y="332" type="curve" smooth="yes"/>
      <point x="163" y="405"/>
      <point x="205" y="459"/>
      <point x="267" y="459" type="curve" smooth="yes"/>
      <point x="331" y="459"/>
      <point x="370" y="402"/>
      <point x="370" y="334" type="curve" smooth="yes"/>
      <point x="370" y="243"/>
      <point x="316" y="205"/>
      <point x="266" y="205" type="curve" smooth="yes"/>
    </contour>
  </outline>
</glyph>
<glyph name="yen" format="1">
  <advance width="502"/>
  <unicode hex="00A5"/>
  <outline>
    <contour>
      <point x="499" y="497" type="line"/>
      <point x="382" y="497" type="line"/>
      <point x="273" y="332" type="line"/>
      <point x="206" y="497" type="line"/>
      <point x="67" y="497" type="line"/>
      <point x="146" y="320" type="line"/>
      <point x="45" y="320" type="line"/>
      <point x="38" y="271" type="line"/>
      <point x="167" y="271" type="line"/>
      <point x="192" y="216" type="line"/>
      <point x="192" y="211" type="line"/>
      <point x="31" y="211" type="line"/>
      <point x="24" y="162" type="line"/>
      <point x="185" y="162" type="line"/>
      <point x="164" y="0" type="line"/>
      <point x="279" y="0" type="line"/>
      <point x="300" y="162" type="line"/>
      <point x="453" y="162" type="line"/>
      <point x="460" y="211" type="line"/>
      <point x="307" y="211" type="line"/>
      <point x="307" y="216" type="line"/>
      <point x="344" y="271" type="line"/>
      <point x="467" y="271" type="line"/>
      <point x="474" y="320" type="line"/>
      <point x="379" y="320" type="line"/>
    </contour>
  </outline>
</glyph>
<glyph name="brokenbar" format="1">
  <advance width="238"/>
  <unicode hex="00A6"/>
  <outline>
    <contour>
      <point x="168" y="392" type="line"/>
      <point x="168" y="745" type="line"/>
      <point x="70" y="745" type="line"/>
      <point x="70" y="392" type="line"/>
    </contour>
    <contour>
      <point x="168" y="-116" type="line"/>
      <point x="168" y="237" type="line"/>
      <point x="70" y="237" type="line"/>
      <point x="70" y="-116" type="line"/>
    </contour>
  </outline>
</glyph>
<glyph name="dieresis" format="1">
  <advance width="276"/>
  <unicode hex="00A8"/>
  <outline>
    <contour>
      <point x="277" y="655"/>
      <point x="251" y="680"/>
      <point x="219" y="680" type="curve" smooth="yes"/>
      <point x="188" y="680"/>
      <point x="162" y="654"/>
      <point x="162" y="623" type="curve" smooth="yes"/>
      <point x="162" y="592"/>
      <point x="188" y="566"/>
      <point x="219" y="566" type="curve" smooth="yes"/>
      <point x="251" y="566"/>
      <point x="277" y="591"/>
      <point x="277" y="623" type="curve" smooth="yes"/>
    </contour>
    <contour>
      <point x="116" y="655"/>
      <point x="91" y="680"/>
      <point x="59" y="680" type="curve" smooth="yes"/>
      <point x="27" y="680"/>
      <point x="2" y="655"/>
      <point x="2" y="623" type="curve" smooth="yes"/>
      <point x="2" y="591"/>
      <point x="27" y="566"/>
      <point x="59" y="566" type="curve" smooth="yes"/>
      <point x="91" y="566"/>
      <point x="116" y="591"/>
      <point x="116" y="623" type="curve" smooth="yes"/>
    </contour>
  </outline>
</glyph>
<glyph name="copyright" format="1">
  <advance width="635"/>
  <unicode hex="00A9"/>
  <outline>
    <contour>
      <point x="593" y="402"/>
      <point x="468" y="527"/>
      <point x="316" y="527" type="curve" smooth="yes"/>
      <point x="163" y="527"/>
      <point x="39" y="403"/>
      <point x="39" y="250" type="curve" smooth="yes"/>
      <point x="39" y="97"/>
      <point x="163" y="-27"/>
      <point x="316" y="-27" type="curve" smooth="yes"/>
      <point x="468" y="-27"/>
      <point x="593" y="98"/>
      <point x="593" y="250" type="curve" smooth="yes"/>
    </contour>
    <contour>
      <point x="553" y="119"/>
      <point x="447" y="13"/>
      <point x="316" y="13" type="curve" smooth="yes"/>
      <point x="185" y="13"/>
      <point x="79" y="119"/>
      <point x="79" y="250" type="curve" smooth="yes"/>
      <point x="79" y="381"/>
      <point x="185" y="487"/>
      <point x="316" y="487" type="curve" smooth="yes"/>
      <point x="447" y="487"/>
      <point x="553" y="381"/>
      <point x="553" y="250" type="curve" smooth="yes"/>
    </contour>
    <contour>
      <point x="450" y="386" type="line"/>
      <point x="424" y="407"/>
      <point x="386" y="421"/>
      <point x="353" y="421" type="curve" smooth="yes"/>
      <point x="236" y="421"/>
      <point x="160" y="329"/>
      <point x="160" y="216" type="curve" smooth="yes"/>
      <point x="160" y="130"/>
      <point x="211" y="80"/>
      <point x="296" y="80" type="curve" smooth="yes"/>
      <point x="344" y="80"/>
      <point x="375" y="92"/>
      <point x="417" y="112" type="curve"/>
      <point x="388" y="176" type="line"/>
      <point x="370" y="159"/>
      <point x="344" y="143"/>
      <point x="317" y="143" type="curve" smooth="yes"/>
      <point x="269" y="143"/>
      <point x="254" y="184"/>
      <point x="254" y="225" type="curve" smooth="yes"/>
      <point x="254" y="273"/>
      <point x="278" y="357"/>
      <point x="338" y="357" type="curve" smooth="yes"/>
      <point x="363" y="357"/>
      <point x="380" y="346"/>
      <point x="399" y="330" type="curve"/>
    </contour>
  </outline>
</glyph>
<glyph name="ordfeminine" format="1">
  <advance width="371"/>
  <unicode hex="00AA"/>
  <outline>
    <contour>
      <point x="358" y="433" type="line"/>
      <point x="350" y="430"/>
      <point x="335" y="425"/>
      <point x="326" y="425" type="curve" smooth="yes"/>
      <point x="313" y="425"/>
      <point x="310" y="438"/>
      <point x="310" y="449" type="curve" smooth="yes"/>
      <point x="310" y="454"/>
      <point x="310" y="458"/>
      <point x="311" y="463" type="curve" smooth="yes"/>
      <point x="347" y="709" type="line"/>
      <point x="305" y="709" type="line"/>
      <point x="290" y="682" type="line"/>
      <point x="266" y="706"/>
      <point x="232" y="715"/>
      <point x="210" y="715" type="curve" smooth="yes"/>
      <point x="95" y="715"/>
      <point x="31" y="608"/>
      <point x="31" y="507" type="curve" smooth="yes"/>
      <point x="31" y="436"/>
      <point x="65" y="368"/>
      <point x="145" y="368" type="curve" smooth="yes"/>
      <point x="177" y="368"/>
      <point x="215" y="381"/>
      <point x="241" y="416" type="curve"/>
      <point x="245" y="416" type="line"/>
      <point x="250" y="389"/>
      <point x="272" y="370"/>
      <point x="299" y="370" type="curve" smooth="yes"/>
      <point x="322" y="370"/>
      <point x="350" y="379"/>
      <point x="370" y="391" type="curve"/>
    </contour>
    <contour>
      <point x="300" y="310" type="line"/>
      <point x="73" y="310" type="line"/>
      <point x="65" y="252" type="line"/>
      <point x="292" y="252" type="line"/>
    </contour>
    <contour>
      <point x="249" y="541"/>
      <point x="227" y="424"/>
      <point x="160" y="424" type="curve" smooth="yes"/>
      <point x="121" y="424"/>
      <point x="112" y="465"/>
      <point x="112" y="507" type="curve" smooth="yes"/>
      <point x="112" y="555"/>
      <point x="133" y="660"/>
      <point x="205" y="660" type="curve" smooth="yes"/>
      <point x="225" y="660"/>
      <point x="243" y="652"/>
      <point x="262" y="634" type="curve"/>
    </contour>
  </outline>
</glyph>
<glyph name="guillemotleft" format="1">
  <advance width="454"/>
  <unicode hex="00AB"/>
  <outline>
    <contour>
      <point x="444" y="490" type="line"/>
      <point x="367" y="504" type="line"/>
      <point x="191" y="332" type="line"/>
      <point x="323" y="162" type="line"/>
      <point x="402" y="173" type="line"/>
      <point x="301" y="332" type="line"/>
    </contour>
    <contour>
      <point x="274" y="490" type="line"/>
      <point x="199" y="504" type="line"/>
      <point x="23" y="332" type="line"/>
      <point x="155" y="162" type="line"/>
      <point x="232" y="173" type="line"/>
      <point x="133" y="332" type="line"/>
    </contour>
  </outline>
</glyph>
<glyph name="uni00AD" format="1">
  <advance width="313"/>
  <unicode hex="00AD"/>
  <outline>
    <contour>
      <point x="270" y="210" type="line"/>
      <point x="270" y="305" type="line"/>
      <point x="49" y="305" type="line"/>
      <point x="49" y="210" type="line"/>
    </contour>
  </outline>
</glyph>
<glyph name="registered" format="1">
  <advance width="459"/>
  <unicode hex="00AE"/>
  <outline>
    <contour>
      <point x="442" y="726"/>
      <point x="347" y="821"/>
      <point x="231" y="821" type="curve" smooth="yes"/>
      <point x="115" y="821"/>
      <point x="21" y="726"/>
      <point x="21" y="610" type="curve" smooth="yes"/>
      <point x="21" y="494"/>
      <point x="115" y="399"/>
      <point x="231" y="399" type="curve" smooth="yes"/>
      <point x="347" y="399"/>
      <point x="442" y="494"/>
      <point x="442" y="610" type="curve" smooth="yes"/>
    </contour>
    <contour>
      <point x="407" y="513"/>
      <point x="328" y="435"/>
      <point x="231" y="435" type="curve" smooth="yes"/>
      <point x="135" y="435"/>
      <point x="56" y="513"/>
      <point x="56" y="610" type="curve" smooth="yes"/>
      <point x="56" y="707"/>
      <point x="135" y="785"/>
      <point x="231" y="785" type="curve" smooth="yes"/>
      <point x="328" y="785"/>
      <point x="407" y="706"/>
      <point x="407" y="610" type="curve" smooth="yes"/>
    </contour>
    <contour>
      <point x="337" y="497" type="line"/>
      <point x="278" y="604" type="line"/>
      <point x="310" y="617"/>
      <point x="330" y="642"/>
      <point x="330" y="677" type="curve" smooth="yes"/>
      <point x="330" y="721"/>
      <point x="294" y="732"/>
      <point x="256" y="732" type="curve" smooth="yes"/>
      <point x="163" y="732" type="line"/>
      <point x="130" y="497" type="line"/>
      <point x="190" y="497" type="line"/>
      <point x="203" y="593" type="line"/>
      <point x="214" y="593" type="line"/>
      <point x="265" y="497" type="line"/>
    </contour>
    <contour>
      <point x="269" y="645"/>
      <point x="248" y="640"/>
      <point x="229" y="640" type="curve" smooth="yes"/>
      <point x="210" y="640" type="line"/>
      <point x="216" y="685" type="line"/>
      <point x="242" y="685" type="line" smooth="yes"/>
      <point x="253" y="685"/>
      <point x="269" y="682"/>
      <point x="269" y="668" type="curve" smooth="yes"/>
    </contour>
  </outline>
</glyph>
<glyph name="macron" format="1">
  <advance width="276"/>
  <unicode hex="00AF"/>
  <outline>
    <contour>
      <point x="302" y="595" type="line"/>
      <point x="302" y="659" type="line"/>
      <point x="-28" y="659" type="line"/>
      <point x="-28" y="595" type="line"/>
    </contour>
  </outline>
</glyph>
<glyph name="plusminus" format="1">
  <advance width="632"/>
  <unicode hex="00B1"/>
  <outline>
    <contour>
      <point x="565" y="267" type="line"/>
      <point x="565" y="352" type="line"/>
      <point x="360" y="352" type="line"/>
      <point x="360" y="497" type="line"/>
      <point x="272" y="497" type="line"/>
      <point x="272" y="351" type="line"/>
      <point x="67" y="351" type="line"/>
      <point x="67" y="266" type="line"/>
      <point x="272" y="266" type="line"/>
      <point x="272" y="120" type="line"/>
      <point x="360" y="120" type="line"/>
      <point x="360" y="267" type="line"/>
    </contour>
    <contour>
      <point x="565" y="1" type="line"/>
      <point x="565" y="86" type="line"/>
      <point x="67" y="86" type="line"/>
      <point x="67" y="1" type="line"/>
    </contour>
  </outline>
</glyph>
<glyph name="uni00B2" format="1">
  <advance width="455"/>
  <unicode hex="00B2"/>
  <outline>
    <contour>
      <point x="351" y="438" type="line"/>
      <point x="389" y="533" type="line"/>
      <point x="183" y="533" type="line" smooth="yes"/>
      <point x="183" y="533"/>
      <point x="184" y="534"/>
      <point x="187" y="536" type="curve" smooth="yes"/>
      <point x="218" y="556"/>
      <point x="409" y="682"/>
      <point x="409" y="823" type="curve" smooth="yes"/>
      <point x="409" y="885"/>
      <point x="368" y="935"/>
      <point x="274" y="935" type="curve" smooth="yes"/>
      <point x="165" y="935"/>
      <point x="85" y="864"/>
      <point x="85" y="864" type="curve"/>
      <point x="118" y="798" type="line"/>
      <point x="118" y="798"/>
      <point x="187" y="856"/>
      <point x="244" y="856" type="curve" smooth="yes"/>
      <point x="275" y="856"/>
      <point x="296" y="836"/>
      <point x="296" y="805" type="curve" smooth="yes"/>
      <point x="296" y="691"/>
      <point x="25" y="489"/>
      <point x="25" y="489" type="curve"/>
      <point x="25" y="438" type="line"/>
    </contour>
  </outline>
</glyph>
<glyph name="uni00B3" format="1">
  <advance width="455"/>
  <unicode hex="00B3"/>
  <outline>
    <contour>
      <point x="37" y="425" type="line"/>
      <point x="347" y="437"/>
      <point x="390" y="583"/>
      <point x="390" y="642" type="curve" smooth="yes"/>
      <point x="390" y="698"/>
      <point x="355" y="728"/>
      <point x="302" y="738" type="curve"/>
      <point x="357" y="757"/>
      <point x="398" y="796"/>
      <point x="398" y="854" type="curve" smooth="yes"/>
      <point x="398" y="917"/>
      <point x="334" y="935"/>
      <point x="274" y="935" type="curve" smooth="yes"/>
      <point x="213" y="935"/>
      <point x="136" y="905"/>
      <point x="86" y="867" type="curve"/>
      <point x="119" y="806" type="line"/>
      <point x="153" y="832"/>
      <point x="206" y="856"/>
      <point x="249" y="856" type="curve" smooth="yes"/>
      <point x="272" y="856"/>
      <point x="291" y="845"/>
      <point x="291" y="825" type="curve" smooth="yes"/>
      <point x="291" y="761"/>
      <point x="203" y="738"/>
      <point x="153" y="728" type="curve"/>
      <point x="156" y="670" type="line"/>
      <point x="156" y="670"/>
      <point x="170" y="672"/>
      <point x="189" y="672" type="curve" smooth="yes"/>
      <point x="225" y="672"/>
      <point x="280" y="668"/>
      <point x="280" y="621" type="curve" smooth="yes"/>
      <point x="280" y="552"/>
      <point x="189" y="502"/>
      <point x="32" y="494" type="curve"/>
    </contour>
  </outline>
</glyph>
<glyph name="acute" format="1">
  <advance width="235"/>
  <unicode hex="00B4"/>
  <outline>
    <contour>
      <point x="298" y="755" type="line"/>
      <point x="153" y="755" type="line"/>
      <point x="21" y="590" type="line"/>
      <point x="124" y="590" type="line"/>
    </contour>
  </outline>
</glyph>
<glyph name="mu" format="1">
  <advance width="584"/>
  <unicode hex="00B5"/>
  <outline>
    <contour>
      <point x="537" y="91" type="line"/>
      <point x="523" y="87"/>
      <point x="505" y="79"/>
      <point x="490" y="79" type="curve" smooth="yes"/>
      <point x="475" y="79"/>
      <point x="472" y="93"/>
      <point x="472" y="108" type="curve" smooth="yes"/>
      <point x="472" y="117"/>
      <point x="473" y="125"/>
      <point x="474" y="131" type="curve" smooth="yes"/>
      <point x="522" y="497" type="line"/>
      <point x="396" y="497" type="line"/>
      <point x="400" y="444" type="line"/>
      <point x="358" y="130" type="line"/>
      <point x="328" y="101"/>
      <point x="292" y="83"/>
      <point x="252" y="83" type="curve" smooth="yes"/>
      <point x="210" y="83"/>
      <point x="200" y="114"/>
      <point x="200" y="149" type="curve" smooth="yes"/>
      <point x="200" y="161"/>
      <point x="201" y="174"/>
      <point x="203" y="186" type="curve" smooth="yes"/>
      <point x="245" y="497" type="line"/>
      <point x="120" y="497" type="line"/>
      <point x="123" y="444" type="line"/>
      <point x="39" y="-187" type="line"/>
      <point x="156" y="-187" type="line"/>
      <point x="182" y="4" type="line"/>
      <point x="200" y="-6"/>
      <point x="220" y="-11"/>
      <point x="242" y="-11" type="curve" smooth="yes"/>
      <point x="286" y="-11"/>
      <point x="335" y="23"/>
      <point x="368" y="57" type="curve"/>
      <point x="371" y="19"/>
      <point x="394" y="-9"/>
      <point x="433" y="-9" type="curve" smooth="yes"/>
      <point x="469" y="-9"/>
      <point x="511" y="8"/>
      <point x="547" y="18" type="curve"/>
    </contour>
  </outline>
</glyph>
<glyph name="paragraph" format="1">
  <advance width="546"/>
  <unicode hex="00B6"/>
  <outline>
    <contour>
      <point x="523" y="764" type="line"/>
      <point x="331" y="764" type="line" smooth="yes"/>
      <point x="194" y="764"/>
      <point x="78" y="685"/>
      <point x="78" y="538" type="curve" smooth="yes"/>
      <point x="78" y="443"/>
      <point x="149" y="378"/>
      <point x="242" y="378" type="curve"/>
      <point x="173" y="-120" type="line" smooth="yes"/>
      <point x="169" y="-151"/>
      <point x="141" y="-177"/>
      <point x="109" y="-177" type="curve" smooth="yes"/>
      <point x="81" y="-177"/>
      <point x="59" y="-156"/>
      <point x="59" y="-128" type="curve" smooth="yes"/>
      <point x="59" y="-93"/>
      <point x="91" y="-63"/>
      <point x="125" y="-63" type="curve"/>
      <point x="133" y="-9" type="line"/>
      <point x="66" y="-9"/>
      <point x="5" y="-68"/>
      <point x="5" y="-136" type="curve" smooth="yes"/>
      <point x="5" y="-191"/>
      <point x="47" y="-231"/>
      <point x="101" y="-231" type="curve" smooth="yes"/>
      <point x="144" y="-231"/>
      <point x="184" y="-207"/>
      <point x="208" y="-172" type="curve"/>
      <point x="215" y="-173"/>
      <point x="221" y="-174"/>
      <point x="227" y="-174" type="curve" smooth="yes"/>
      <point x="287" y="-174"/>
      <point x="343" y="-122"/>
      <point x="351" y="-63" type="curve" smooth="yes"/>
      <point x="459" y="710" type="line"/>
      <point x="515" y="710" type="line"/>
    </contour>
    <contour>
      <point x="405" y="710" type="line"/>
      <point x="297" y="-63" type="line" smooth="yes"/>
      <point x="293" y="-94"/>
      <point x="264" y="-120"/>
      <point x="232" y="-120" type="curve" smooth="yes"/>
      <point x="228" y="-120" type="line"/>
      <point x="344" y="710" type="line"/>
    </contour>
  </outline>
</glyph>
<glyph name="periodcentered" format="1">
  <advance width="293"/>
  <unicode hex="00B7"/>
  <outline>
    <contour>
      <point x="222" y="299"/>
      <point x="188" y="333"/>
      <point x="146" y="333" type="curve" smooth="yes"/>
      <point x="105" y="333"/>
      <point x="71" y="299"/>
      <point x="71" y="257" type="curve" smooth="yes"/>
      <point x="71" y="216"/>
      <point x="105" y="182"/>
      <point x="147" y="182" type="curve" smooth="yes"/>
      <point x="188" y="182"/>
      <point x="222" y="216"/>
      <point x="222" y="258" type="curve" smooth="yes"/>
    </contour>
  </outline>
</glyph>
<glyph name="cedilla" format="1">
  <advance width="229"/>
  <unicode hex="00B8"/>
  <outline>
    <contour>
      <point x="209" y="-74"/>
      <point x="181" y="-53"/>
      <point x="159" y="-42" type="curve"/>
      <point x="195" y="13" type="line"/>
      <point x="119" y="13" type="line"/>
      <point x="54" y="-82" type="line"/>
      <point x="88" y="-92"/>
      <point x="111" y="-101"/>
      <point x="111" y="-118" type="curve" smooth="yes"/>
      <point x="111" y="-151"/>
      <point x="60" y="-154"/>
      <point x="35" y="-158" type="curve"/>
      <point x="51" y="-220" type="line"/>
      <point x="128" y="-209"/>
      <point x="209" y="-185"/>
      <point x="209" y="-112" type="curve" smooth="yes"/>
    </contour>
  </outline>
</glyph>
<glyph name="uni00B9" format="1">
  <advance width="455"/>
  <unicode hex="00B9"/>
  <outline>
    <contour>
      <point x="375" y="438" type="line"/>
      <point x="385" y="517" type="line"/>
      <point x="283" y="517" type="line"/>
      <point x="336" y="924" type="line"/>
      <point x="255" y="924" type="line"/>
      <point x="168" y="883"/>
      <point x="76" y="855"/>
      <point x="76" y="855" type="curve"/>
      <point x="91" y="785" type="line"/>
      <point x="215" y="820" type="line"/>
      <point x="175" y="517" type="line"/>
      <point x="48" y="517" type="line"/>
      <point x="38" y="438" type="line"/>
    </contour>
  </outline>
</glyph>
<glyph name="ordmasculine" format="1">
  <advance width="355"/>
  <unicode hex="00BA"/>
  <outline>
    <contour>
      <point x="335" y="657"/>
      <point x="287" y="715"/>
      <point x="200" y="715" type="curve" smooth="yes"/>
      <point x="86" y="715"/>
      <point x="18" y="614"/>
      <point x="18" y="508" type="curve" smooth="yes"/>
      <point x="18" y="423"/>
      <point x="66" y="366"/>
      <point x="152" y="366" type="curve" smooth="yes"/>
      <point x="267" y="366"/>
      <point x="335" y="465"/>
      <point x="335" y="573" type="curve" smooth="yes"/>
    </contour>
    <contour>
      <point x="258" y="310" type="line"/>
      <point x="31" y="310" type="line"/>
      <point x="23" y="252" type="line"/>
      <point x="250" y="252" type="line"/>
    </contour>
    <contour>
      <point x="250" y="521"/>
      <point x="231" y="421"/>
      <point x="161" y="421" type="curve" smooth="yes"/>
      <point x="113" y="421"/>
      <point x="102" y="465"/>
      <point x="102" y="505" type="curve" smooth="yes"/>
      <point x="102" y="559"/>
      <point x="121" y="660"/>
      <point x="192" y="660" type="curve" smooth="yes"/>
      <point x="239" y="660"/>
      <point x="250" y="615"/>
      <point x="250" y="576" type="curve" smooth="yes"/>
    </contour>
  </outline>
</glyph>
<glyph name="guillemotright" format="1">
  <advance width="454"/>
  <unicode hex="00BB"/>
  <outline>
    <contour>
      <point x="437" y="332" type="line"/>
      <point x="309" y="504" type="line"/>
      <point x="230" y="490" type="line"/>
      <point x="327" y="332" type="line"/>
      <point x="183" y="173" type="line"/>
      <point x="257" y="162" type="line"/>
    </contour>
    <contour>
      <point x="269" y="332" type="line"/>
      <point x="141" y="504" type="line"/>
      <point x="61" y="490" type="line"/>
      <point x="159" y="332" type="line"/>
      <point x="14" y="173" type="line"/>
      <point x="89" y="162" type="line"/>
    </contour>
  </outline>
</glyph>
<glyph name="onequarter" format="1">
  <advance width="1049"/>
  <unicode hex="00BC"/>
  <outline>
    <contour>
      <point x="399" y="-27" type="line"/>
      <point x="799" y="753" type="line"/>
      <point x="719" y="753" type="line"/>
      <point x="320" y="-27" type="line"/>
    </contour>
    <contour>
      <point x="406" y="246" type="line"/>
      <point x="416" y="325" type="line"/>
      <point x="314" y="325" type="line"/>
      <point x="368" y="732" type="line"/>
      <point x="288" y="732" type="line"/>
      <point x="200" y="691"/>
      <point x="109" y="663"/>
      <point x="109" y="663" type="curve"/>
      <point x="123" y="593" type="line"/>
      <point x="246" y="628" type="line"/>
      <point x="206" y="325" type="line"/>
      <point x="80" y="325" type="line"/>
      <point x="70" y="246" type="line"/>
    </contour>
    <contour>
      <point x="880" y="0" type="line"/>
      <point x="893" y="101" type="line"/>
      <point x="960" y="101" type="line"/>
      <point x="971" y="180" type="line"/>
      <point x="903" y="180" type="line"/>
      <point x="944" y="486" type="line"/>
      <point x="837" y="486" type="line"/>
      <point x="578" y="153" type="line"/>
      <point x="578" y="101" type="line"/>
      <point x="785" y="101" type="line"/>
      <point x="772" y="0" type="line"/>
    </contour>
    <contour>
      <point x="795" y="180" type="line"/>
      <point x="690" y="180" type="line"/>
      <point x="769" y="283" type="line" smooth="yes"/>
      <point x="803" y="328"/>
      <point x="813" y="347"/>
      <point x="830" y="386" type="curve"/>
      <point x="829" y="386"/>
      <point x="814" y="317"/>
      <point x="811" y="297" type="curve" smooth="yes"/>
    </contour>
  </outline>
</glyph>
<glyph name="onehalf" format="1">
  <advance width="1097"/>
  <unicode hex="00BD"/>
  <outline>
    <contour>
      <point x="961" y="0" type="line"/>
      <point x="1001" y="106" type="line"/>
      <point x="819" y="106" type="line"/>
      <point x="905" y="164"/>
      <point x="1028" y="276"/>
      <point x="1028" y="384" type="curve" smooth="yes"/>
      <point x="1028" y="465"/>
      <point x="964" y="497"/>
      <point x="889" y="497" type="curve" smooth="yes"/>
      <point x="819" y="497"/>
      <point x="755" y="469"/>
      <point x="697" y="426" type="curve"/>
      <point x="730" y="357" type="line"/>
      <point x="762" y="381"/>
      <point x="815" y="409"/>
      <point x="853" y="409" type="curve" smooth="yes"/>
      <point x="883" y="409"/>
      <point x="906" y="391"/>
      <point x="906" y="361" type="curve" smooth="yes"/>
      <point x="906" y="279"/>
      <point x="728" y="124"/>
      <point x="648" y="60" type="curve" smooth="yes"/>
      <point x="638" y="52" type="line"/>
      <point x="638" y="0" type="line"/>
    </contour>
    <contour>
      <point x="400" y="-27" type="line"/>
      <point x="800" y="753" type="line"/>
      <point x="720" y="753" type="line"/>
      <point x="321" y="-27" type="line"/>
    </contour>
    <contour>
      <point x="407" y="246" type="line"/>
      <point x="417" y="325" type="line"/>
      <point x="315" y="325" type="line"/>
      <point x="369" y="732" type="line"/>
      <point x="289" y="732" type="line"/>
      <point x="201" y="691"/>
      <point x="110" y="663"/>
      <point x="110" y="663" type="curve"/>
      <point x="124" y="593" type="line"/>
      <point x="247" y="628" type="line"/>
      <point x="207" y="325" type="line"/>
      <point x="81" y="325" type="line"/>
      <point x="71" y="246" type="line"/>
    </contour>
  </outline>
</glyph>
<glyph name="threequarters" format="1">
  <advance width="1004"/>
  <unicode hex="00BE"/>
  <outline>
    <contour>
      <point x="356" y="-27" type="line"/>
      <point x="755" y="753" type="line"/>
      <point x="675" y="753" type="line"/>
      <point x="277" y="-27" type="line"/>
    </contour>
    <contour>
      <point x="751" y="180" type="line"/>
      <point x="647" y="180" type="line"/>
      <point x="725" y="283" type="line" smooth="yes"/>
      <point x="759" y="328"/>
      <point x="769" y="347"/>
      <point x="787" y="386" type="curve"/>
      <point x="787" y="386"/>
      <point x="769" y="315"/>
      <point x="767" y="297" type="curve" smooth="yes"/>
    </contour>
    <contour>
      <point x="68" y="233" type="line"/>
      <point x="379" y="245"/>
      <point x="420" y="392"/>
      <point x="420" y="450" type="curve" smooth="yes"/>
      <point x="420" y="506"/>
      <point x="386" y="536"/>
      <point x="334" y="546" type="curve"/>
      <point x="387" y="565"/>
      <point x="428" y="605"/>
      <point x="428" y="663" type="curve" smooth="yes"/>
      <point x="428" y="725"/>
      <point x="365" y="743"/>
      <point x="306" y="743" type="curve" smooth="yes"/>
      <point x="245" y="743"/>
      <point x="168" y="713"/>
      <point x="117" y="675" type="curve"/>
      <point x="150" y="614" type="line"/>
      <point x="183" y="640"/>
      <point x="237" y="664"/>
      <point x="279" y="664" type="curve" smooth="yes"/>
      <point x="303" y="664"/>
      <point x="322" y="652"/>
      <point x="322" y="632" type="curve" smooth="yes"/>
      <point x="322" y="569"/>
      <point x="232" y="546"/>
      <point x="184" y="536" type="curve"/>
      <point x="187" y="478" type="line"/>
      <point x="187" y="478"/>
      <point x="201" y="480"/>
      <point x="220" y="480" type="curve" smooth="yes"/>
      <point x="256" y="480"/>
      <point x="310" y="476"/>
      <point x="310" y="429" type="curve" smooth="yes"/>
      <point x="310" y="360"/>
      <point x="221" y="310"/>
      <point x="62" y="302" type="curve"/>
    </contour>
    <contour>
      <point x="917" y="101" type="line"/>
      <point x="928" y="180" type="line"/>
      <point x="859" y="180" type="line"/>
      <point x="900" y="486" type="line"/>
      <point x="793" y="486" type="line"/>
      <point x="534" y="153" type="line"/>
      <point x="534" y="101" type="line"/>
      <point x="741" y="101" type="line"/>
      <point x="728" y="0" type="line"/>
      <point x="836" y="0" type="line"/>
      <point x="849" y="101" type="line"/>
    </contour>
  </outline>
</glyph>
<glyph name="questiondown" format="1">
  <advance width="418"/>
  <unicode hex="00BF"/>
  <outline>
    <contour>
      <point x="393" y="578"/>
      <point x="359" y="612"/>
      <point x="319" y="612" type="curve" smooth="yes"/>
      <point x="279" y="612"/>
      <point x="244" y="579"/>
      <point x="244" y="538" type="curve" smooth="yes"/>
      <point x="244" y="497"/>
      <point x="279" y="464"/>
      <point x="319" y="464" type="curve" smooth="yes"/>
      <point x="359" y="464"/>
      <point x="393" y="498"/>
      <point x="393" y="538" type="curve" smooth="yes"/>
    </contour>
    <contour>
      <point x="378" y="361"/>
      <point x="254" y="398"/>
      <point x="163" y="403" type="curve"/>
      <point x="137" y="310" type="line"/>
      <point x="157" y="310" type="line" smooth="yes"/>
      <point x="190" y="310"/>
      <point x="264" y="301"/>
      <point x="264" y="259" type="curve" smooth="yes"/>
      <point x="264" y="183"/>
      <point x="13" y="176"/>
      <point x="13" y="-1" type="curve" smooth="yes"/>
      <point x="13" y="-91"/>
      <point x="101" y="-132"/>
      <point x="180" y="-132" type="curve" smooth="yes"/>
      <point x="224" y="-132"/>
      <point x="264" y="-124"/>
      <point x="306" y="-112" type="curve"/>
      <point x="281" y="-28" type="line"/>
      <point x="252" y="-43"/>
      <point x="222" y="-51"/>
      <point x="190" y="-51" type="curve" smooth="yes"/>
      <point x="167" y="-51"/>
      <point x="136" y="-35"/>
      <point x="136" y="-8" type="curve" smooth="yes"/>
      <point x="136" y="103"/>
      <point x="378" y="92"/>
      <point x="378" y="250" type="curve" smooth="yes"/>
    </contour>
  </outline>
</glyph>
<glyph name="AE" format="1">
  <advance width="862"/>
  <unicode hex="00C6"/>
  <outline>
    <contour>
      <point x="887" y="732" type="line"/>
      <point x="373" y="732" type="line"/>
      <point x="378" y="670" type="line"/>
      <point x="-55" y="0" type="line"/>
      <point x="67" y="0" type="line"/>
      <point x="204" y="210" type="line"/>
      <point x="409" y="210" type="line"/>
      <point x="379" y="0" type="line"/>
      <point x="784" y="0" type="line"/>
      <point x="798" y="99" type="line"/>
      <point x="531" y="99" type="line"/>
      <point x="563" y="327" type="line"/>
      <point x="778" y="327" type="line"/>
      <point x="792" y="426" type="line"/>
      <point x="577" y="426" type="line"/>
      <point x="606" y="633" type="line"/>
      <point x="873" y="633" type="line"/>
    </contour>
    <contour>
      <point x="466" y="633" type="line"/>
      <point x="422" y="308" type="line"/>
      <point x="268" y="308" type="line"/>
      <point x="429" y="562" type="line"/>
    </contour>
  </outline>
</glyph>
<glyph name="Ccedilla" format="1">
  <advance width="585"/>
  <unicode hex="00C7"/>
  <outline>
    <contour>
      <point x="622" y="675" type="line"/>
      <point x="573" y="726"/>
      <point x="474" y="746"/>
      <point x="406" y="746" type="curve" smooth="yes"/>
      <point x="157" y="746"/>
      <point x="17" y="522"/>
      <point x="17" y="293" type="curve" smooth="yes"/>
      <point x="17" y="123"/>
      <point x="101" y="5"/>
      <point x="267" y="-10" type="curve"/>
      <point x="218" y="-82" type="line"/>
      <point x="252" y="-92"/>
      <point x="275" y="-101"/>
      <point x="275" y="-118" type="curve" smooth="yes"/>
      <point x="275" y="-151"/>
      <point x="224" y="-154"/>
      <point x="199" y="-158" type="curve"/>
      <point x="215" y="-220" type="line"/>
      <point x="292" y="-209"/>
      <point x="373" y="-185"/>
      <point x="373" y="-112" type="curve" smooth="yes"/>
      <point x="373" y="-74"/>
      <point x="345" y="-53"/>
      <point x="323" y="-42" type="curve"/>
      <point x="344" y="-10" type="line"/>
      <point x="417" y="-4"/>
      <point x="476" y="21"/>
      <point x="543" y="62" type="curve"/>
      <point x="496" y="157" type="line"/>
      <point x="447" y="113"/>
      <point x="392" y="82"/>
      <point x="324" y="82" type="curve" smooth="yes"/>
      <point x="200" y="82"/>
      <point x="160" y="218"/>
      <point x="160" y="320" type="curve" smooth="yes"/>
      <point x="160" y="462"/>
      <point x="230" y="649"/>
      <point x="398" y="649" type="curve" smooth="yes"/>
      <point x="449" y="649"/>
      <point x="510" y="626"/>
      <point x="541" y="583" type="curve"/>
    </contour>
  </outline>
</glyph>
<glyph name="Eth" format="1">
  <advance width="664"/>
  <unicode hex="00D0"/>
  <outline>
    <contour>
      <point x="258" y="0" type="line"/>
      <point x="348" y="0"/>
      <point x="435" y="27"/>
      <point x="509" y="95" type="curve" smooth="yes"/>
      <point x="604" y="182"/>
      <point x="647" y="317"/>
      <point x="647" y="435" type="curve" smooth="yes"/>
      <point x="647" y="614"/>
      <point x="544" y="732"/>
      <point x="356" y="732" type="curve" smooth="yes"/>
      <point x="93" y="732" type="line"/>
      <point x="94" y="727"/>
      <point x="99" y="678"/>
      <point x="100" y="672" type="curve"/>
      <point x="66" y="412" type="line"/>
      <point x="-13" y="412" type="line"/>
      <point x="-24" y="324" type="line"/>
      <point x="54" y="324" type="line"/>
      <point x="11" y="0" type="line"/>
    </contour>
    <contour>
      <point x="155" y="99" type="line"/>
      <point x="185" y="324" type="line"/>
      <point x="328" y="324" type="line"/>
      <point x="340" y="412" type="line"/>
      <point x="197" y="412" type="line"/>
      <point x="226" y="633" type="line"/>
      <point x="335" y="633" type="line" smooth="yes"/>
      <point x="460" y="633"/>
      <point x="505" y="534"/>
      <point x="505" y="422" type="curve" smooth="yes"/>
      <point x="505" y="267"/>
      <point x="430" y="99"/>
      <point x="266" y="99" type="curve" smooth="yes"/>
    </contour>
  </outline>
</glyph>
<glyph name="multiply" format="1">
  <advance width="534"/>
  <unicode hex="00D7"/>
  <outline>
    <contour>
      <point x="474" y="104" type="line"/>
      <point x="329" y="248" type="line"/>
      <point x="474" y="393" type="line"/>
      <point x="412" y="455" type="line"/>
      <point x="267" y="311" type="line"/>
      <point x="122" y="455" type="line"/>
      <point x="60" y="393" type="line"/>
      <point x="205" y="248" type="line"/>
      <point x="60" y="104" type="line"/>
      <point x="122" y="42" type="line"/>
      <point x="267" y="186" type="line"/>
      <point x="412" y="42" type="line"/>
    </contour>
  </outline>
</glyph>
<glyph name="Oslash" format="1">
  <advance width="708"/>
  <unicode hex="00D8"/>
  <outline>
    <contour>
      <point x="695" y="520"/>
      <point x="676" y="589"/>
      <point x="637" y="641" type="curve"/>
      <point x="695" y="715" type="line"/>
      <point x="624" y="770" type="line"/>
      <point x="570" y="702" type="line"/>
      <point x="527" y="729"/>
      <point x="472" y="743"/>
      <point x="406" y="743" type="curve" smooth="yes"/>
      <point x="159" y="743"/>
      <point x="22" y="523"/>
      <point x="22" y="295" type="curve" smooth="yes"/>
      <point x="22" y="211"/>
      <point x="43" y="137"/>
      <point x="86" y="84" type="curve"/>
      <point x="12" y="-11" type="line"/>
      <point x="83" y="-66" type="line"/>
      <point x="154" y="25" type="line"/>
      <point x="195" y="2"/>
      <point x="245" y="-11"/>
      <point x="304" y="-11" type="curve" smooth="yes"/>
      <point x="554" y="-11"/>
      <point x="695" y="209"/>
      <point x="695" y="439" type="curve" smooth="yes"/>
    </contour>
    <contour>
      <point x="175" y="198" type="line"/>
      <point x="166" y="229"/>
      <point x="162" y="263"/>
      <point x="162" y="298" type="curve" smooth="yes"/>
      <point x="162" y="439"/>
      <point x="221" y="648"/>
      <point x="395" y="648" type="curve" smooth="yes"/>
      <point x="440" y="648"/>
      <point x="474" y="633"/>
      <point x="498" y="610" type="curve"/>
    </contour>
    <contour>
      <point x="554" y="293"/>
      <point x="496" y="84"/>
      <point x="321" y="84" type="curve" smooth="yes"/>
      <point x="280" y="84"/>
      <point x="249" y="96"/>
      <point x="225" y="116" type="curve"/>
      <point x="544" y="523" type="line"/>
      <point x="551" y="495"/>
      <point x="554" y="464"/>
      <point x="554" y="434" type="curve" smooth="yes"/>
    </contour>
  </outline>
</glyph>
<glyph name="Thorn" format="1">
  <advance width="575"/>
  <unicode hex="00DE"/>
  <outline>
    <contour>
      <point x="159" y="0" type="line"/>
      <point x="183" y="179" type="line"/>
      <point x="261" y="179" type="line" smooth="yes"/>
      <point x="400" y="179"/>
      <point x="544" y="256"/>
      <point x="544" y="437" type="curve" smooth="yes"/>
      <point x="544" y="572"/>
      <point x="443" y="617"/>
      <point x="317" y="617" type="curve" smooth="yes"/>
      <point x="243" y="617" type="line"/>
      <point x="258" y="732" type="line"/>
      <point x="113" y="732" type="line"/>
      <point x="113" y="727"/>
      <point x="118" y="673"/>
      <point x="118" y="671" type="curve" smooth="yes"/>
      <point x="29" y="0" type="line"/>
    </contour>
    <contour>
      <point x="197" y="276" type="line"/>
      <point x="229" y="518" type="line"/>
      <point x="310" y="518" type="line" smooth="yes"/>
      <point x="373" y="518"/>
      <point x="403" y="481"/>
      <point x="403" y="422" type="curve" smooth="yes"/>
      <point x="403" y="339"/>
      <point x="353" y="276"/>
      <point x="277" y="276" type="curve" smooth="yes"/>
    </contour>
  </outline>
</glyph>
<glyph name="germandbls" format="1">
  <advance width="536"/>
  <unicode hex="00DF"/>
  <outline>
    <contour>
      <point x="511" y="365"/>
      <point x="350" y="363"/>
      <point x="350" y="405" type="curve" smooth="yes"/>
      <point x="350" y="448"/>
      <point x="504" y="443"/>
      <point x="504" y="602" type="curve" smooth="yes"/>
      <point x="504" y="703"/>
      <point x="421" y="744"/>
      <point x="330" y="744" type="curve" smooth="yes"/>
      <point x="190" y="744"/>
      <point x="99" y="648"/>
      <point x="79" y="502" type="curve" smooth="yes"/>
      <point x="78" y="497" type="line"/>
      <point x="6" y="497" type="line"/>
      <point x="-6" y="406" type="line"/>
      <point x="66" y="406" type="line"/>
      <point x="5" y="-44" type="line" smooth="yes"/>
      <point x="-5" y="-120"/>
      <point x="-30" y="-140"/>
      <point x="-80" y="-140" type="curve" smooth="yes"/>
      <point x="-120" y="-140"/>
      <point x="-156" y="-101"/>
      <point x="-156" y="-101" type="curve"/>
      <point x="-203" y="-185" type="line"/>
      <point x="-203" y="-185"/>
      <point x="-158" y="-230"/>
      <point x="-72" y="-230" type="curve" smooth="yes"/>
      <point x="40" y="-230"/>
      <point x="108" y="-159"/>
      <point x="124" y="-42" type="curve" smooth="yes"/>
      <point x="192" y="464" type="line" smooth="yes"/>
      <point x="202" y="535"/>
      <point x="228" y="647"/>
      <point x="318" y="647" type="curve" smooth="yes"/>
      <point x="351" y="647"/>
      <point x="376" y="619"/>
      <point x="376" y="587" type="curve" smooth="yes"/>
      <point x="376" y="474"/>
      <point x="216" y="479"/>
      <point x="216" y="376" type="curve" smooth="yes"/>
      <point x="216" y="288"/>
      <point x="381" y="303"/>
      <point x="381" y="197" type="curve" smooth="yes"/>
      <point x="381" y="139"/>
      <point x="340" y="78"/>
      <point x="276" y="78" type="curve" smooth="yes"/>
      <point x="251" y="78"/>
      <point x="227" y="86"/>
      <point x="204" y="95" type="curve"/>
      <point x="156" y="18" type="line"/>
      <point x="193" y="-1"/>
      <point x="234" y="-12"/>
      <point x="276" y="-12" type="curve" smooth="yes"/>
      <point x="409" y="-12"/>
      <point x="511" y="87"/>
      <point x="511" y="221" type="curve" smooth="yes"/>
    </contour>
  </outline>
</glyph>
<glyph name="aacute" format="1">
  <advance width="525"/>
  <unicode hex="00E1"/>
  <outline>
    <contour>
      <point x="513" y="85" type="line"/>
      <point x="500" y="80"/>
      <point x="478" y="73"/>
      <point x="465" y="73" type="curve" smooth="yes"/>
      <point x="445" y="73"/>
      <point x="440" y="92"/>
      <point x="440" y="109" type="curve" smooth="yes"/>
      <point x="440" y="116"/>
      <point x="441" y="123"/>
      <point x="442" y="130" type="curve" smooth="yes"/>
      <point x="496" y="500" type="line"/>
      <point x="433" y="500" type="line"/>
      <point x="410" y="459" type="line"/>
      <point x="375" y="496"/>
      <point x="323" y="509"/>
      <point x="290" y="509" type="curve" smooth="yes"/>
      <point x="117" y="509"/>
      <point x="21" y="349"/>
      <point x="21" y="197" type="curve" smooth="yes"/>
      <point x="21" y="89"/>
      <point x="72" y="-12"/>
      <point x="192" y="-12" type="curve" smooth="yes"/>
      <point x="241" y="-12"/>
      <point x="299" y="7"/>
      <point x="338" y="59" type="curve"/>
      <point x="342" y="59" type="line"/>
      <point x="350" y="20"/>
      <point x="384" y="-9"/>
      <point x="424" y="-9" type="curve" smooth="yes"/>
      <point x="458" y="-9"/>
      <point x="501" y="3"/>
      <point x="530" y="22" type="curve"/>
    </contour>
    <contour>
      <point x="349" y="247"/>
      <point x="315" y="71"/>
      <point x="215" y="71" type="curve" smooth="yes"/>
      <point x="156" y="71"/>
      <point x="142" y="134"/>
      <point x="142" y="197" type="curve" smooth="yes"/>
      <point x="142" y="268"/>
      <point x="175" y="427"/>
      <point x="282" y="427" type="curve" smooth="yes"/>
      <point x="313" y="427"/>
      <point x="340" y="415"/>
      <point x="368" y="387" type="curve"/>
    </contour>
    <contour>
      <point x="527" y="757" type="line"/>
      <point x="382" y="757" type="line"/>
      <point x="250" y="592" type="line"/>
      <point x="353" y="592" type="line"/>
    </contour>
  </outline>
</glyph>
<glyph name="adieresis" format="1">
  <advance width="525"/>
  <unicode hex="00E4"/>
  <outline>
    <contour>
      <point x="513" y="85" type="line"/>
      <point x="500" y="80"/>
      <point x="478" y="73"/>
      <point x="465" y="73" type="curve" smooth="yes"/>
      <point x="445" y="73"/>
      <point x="440" y="92"/>
      <point x="440" y="109" type="curve" smooth="yes"/>
      <point x="440" y="116"/>
      <point x="441" y="123"/>
      <point x="442" y="130" type="curve" smooth="yes"/>
      <point x="496" y="500" type="line"/>
      <point x="433" y="500" type="line"/>
      <point x="410" y="459" type="line"/>
      <point x="375" y="496"/>
      <point x="323" y="509"/>
      <point x="290" y="509" type="curve" smooth="yes"/>
      <point x="117" y="509"/>
      <point x="21" y="349"/>
      <point x="21" y="197" type="curve" smooth="yes"/>
      <point x="21" y="89"/>
      <point x="72" y="-12"/>
      <point x="192" y="-12" type="curve" smooth="yes"/>
      <point x="241" y="-12"/>
      <point x="299" y="7"/>
      <point x="338" y="59" type="curve"/>
      <point x="342" y="59" type="line"/>
      <point x="350" y="20"/>
      <point x="384" y="-9"/>
      <point x="424" y="-9" type="curve" smooth="yes"/>
      <point x="458" y="-9"/>
      <point x="501" y="3"/>
      <point x="530" y="22" type="curve"/>
    </contour>
    <contour>
      <point x="349" y="247"/>
      <point x="315" y="71"/>
      <point x="215" y="71" type="curve" smooth="yes"/>
      <point x="156" y="71"/>
      <point x="142" y="134"/>
      <point x="142" y="197" type="curve" smooth="yes"/>
      <point x="142" y="268"/>
      <point x="175" y="427"/>
      <point x="282" y="427" type="curve" smooth="yes"/>
      <point x="313" y="427"/>
      <point x="340" y="415"/>
      <point x="368" y="387" type="curve"/>
    </contour>
    <contour>
      <point x="447" y="665"/>
      <point x="421" y="690"/>
      <point x="389" y="690" type="curve" smooth="yes"/>
      <point x="358" y="690"/>
      <point x="332" y="664"/>
      <point x="332" y="633" type="curve" smooth="yes"/>
      <point x="332" y="602"/>
      <point x="358" y="576"/>
      <point x="389" y="576" type="curve" smooth="yes"/>
      <point x="421" y="576"/>
      <point x="447" y="601"/>
      <point x="447" y="633" type="curve" smooth="yes"/>
    </contour>
    <contour>
      <point x="286" y="665"/>
      <point x="261" y="690"/>
      <point x="229" y="690" type="curve" smooth="yes"/>
      <point x="197" y="690"/>
      <point x="172" y="665"/>
      <point x="172" y="633" type="curve" smooth="yes"/>
      <point x="172" y="601"/>
      <point x="197" y="576"/>
      <point x="229" y="576" type="curve" smooth="yes"/>
      <point x="261" y="576"/>
      <point x="286" y="601"/>
      <point x="286" y="633" type="curve" smooth="yes"/>
    </contour>
  </outline>
</glyph>
<glyph name="ae" format="1">
  <advance width="762"/>
  <unicode hex="00E6"/>
  <outline>
    <contour>
      <point x="397" y="501"/>
      <point x="323" y="509"/>
      <point x="290" y="509" type="curve" smooth="yes"/>
      <point x="117" y="509"/>
      <point x="21" y="349"/>
      <point x="21" y="197" type="curve" smooth="yes"/>
      <point x="21" y="89"/>
      <point x="72" y="-12"/>
      <point x="192" y="-12" type="curve" smooth="yes"/>
      <point x="252" y="-12"/>
      <point x="313" y="8"/>
      <point x="368" y="72" type="curve"/>
      <point x="403" y="19"/>
      <point x="463" y="-12"/>
      <point x="538" y="-12" type="curve" smooth="yes"/>
      <point x="660" y="-12"/>
      <point x="736" y="54"/>
      <point x="736" y="54" type="curve"/>
      <point x="694" y="137" type="line"/>
      <point x="660" y="111"/>
      <point x="605" y="76"/>
      <point x="550" y="76" type="curve" smooth="yes"/>
      <point x="498" y="76"/>
      <point x="454" y="114"/>
      <point x="449" y="194" type="curve"/>
      <point x="688" y="196"/>
      <point x="752" y="317"/>
      <point x="752" y="394" type="curve" smooth="yes"/>
      <point x="752" y="472"/>
      <point x="699" y="510"/>
      <point x="617" y="510" type="curve" smooth="yes"/>
      <point x="578" y="510"/>
      <point x="502" y="495"/>
      <point x="443" y="426" type="curve"/>
    </contour>
    <contour>
      <point x="629" y="332"/>
      <point x="561" y="282"/>
      <point x="455" y="279" type="curve"/>
      <point x="479" y="390"/>
      <point x="559" y="426"/>
      <point x="590" y="426" type="curve" smooth="yes"/>
      <point x="616" y="426"/>
      <point x="629" y="412"/>
      <point x="629" y="392" type="curve" smooth="yes"/>
    </contour>
    <contour>
      <point x="349" y="247"/>
      <point x="315" y="71"/>
      <point x="215" y="71" type="curve" smooth="yes"/>
      <point x="156" y="71"/>
      <point x="142" y="134"/>
      <point x="142" y="197" type="curve" smooth="yes"/>
      <point x="142" y="268"/>
      <point x="175" y="427"/>
      <point x="282" y="427" type="curve" smooth="yes"/>
      <point x="313" y="427"/>
      <point x="340" y="415"/>
      <point x="368" y="387" type="curve"/>
    </contour>
  </outline>
</glyph>
<glyph name="ccedilla" format="1">
  <advance width="421"/>
  <unicode hex="00E7"/>
  <outline>
    <contour>
      <point x="437" y="462" type="line"/>
      <point x="401" y="492"/>
      <point x="338" y="510"/>
      <point x="292" y="510" type="curve" smooth="yes"/>
      <point x="123" y="510"/>
      <point x="17" y="364"/>
      <point x="17" y="197" type="curve" smooth="yes"/>
      <point x="17" y="93"/>
      <point x="79" y="8"/>
      <point x="179" y="-9" type="curve"/>
      <point x="129" y="-82" type="line"/>
      <point x="163" y="-92"/>
      <point x="186" y="-101"/>
      <point x="186" y="-118" type="curve" smooth="yes"/>
      <point x="186" y="-151"/>
      <point x="135" y="-154"/>
      <point x="110" y="-158" type="curve"/>
      <point x="126" y="-220" type="line"/>
      <point x="203" y="-209"/>
      <point x="284" y="-185"/>
      <point x="284" y="-112" type="curve" smooth="yes"/>
      <point x="284" y="-74"/>
      <point x="256" y="-53"/>
      <point x="234" y="-42" type="curve"/>
      <point x="255" y="-10" type="line"/>
      <point x="304" y="-4"/>
      <point x="344" y="12"/>
      <point x="387" y="35" type="curve"/>
      <point x="351" y="121" type="line"/>
      <point x="321" y="99"/>
      <point x="281" y="76"/>
      <point x="240" y="76" type="curve" smooth="yes"/>
      <point x="167" y="76"/>
      <point x="144" y="142"/>
      <point x="144" y="209" type="curve" smooth="yes"/>
      <point x="144" y="286"/>
      <point x="177" y="427"/>
      <point x="279" y="427" type="curve" smooth="yes"/>
      <point x="316" y="427"/>
      <point x="344" y="408"/>
      <point x="368" y="383" type="curve"/>
    </contour>
  </outline>
</glyph>
<glyph name="egrave" format="1">
  <advance width="464"/>
  <unicode hex="00E8"/>
  <outline>
    <contour>
      <point x="452" y="472"/>
      <point x="385" y="510"/>
      <point x="299" y="510" type="curve" smooth="yes"/>
      <point x="119" y="510"/>
      <point x="21" y="336"/>
      <point x="21" y="201" type="curve" smooth="yes"/>
      <point x="21" y="66"/>
      <point x="116" y="-12"/>
      <point x="238" y="-12" type="curve" smooth="yes"/>
      <point x="360" y="-12"/>
      <point x="436" y="54"/>
      <point x="436" y="54" type="curve"/>
      <point x="394" y="137" type="line"/>
      <point x="360" y="111"/>
      <point x="305" y="76"/>
      <point x="250" y="76" type="curve" smooth="yes"/>
      <point x="198" y="76"/>
      <point x="153" y="114"/>
      <point x="148" y="194" type="curve"/>
      <point x="388" y="196"/>
      <point x="452" y="317"/>
      <point x="452" y="394" type="curve" smooth="yes"/>
    </contour>
    <contour>
      <point x="329" y="332"/>
      <point x="261" y="282"/>
      <point x="155" y="279" type="curve"/>
      <point x="179" y="390"/>
      <point x="259" y="426"/>
      <point x="290" y="426" type="curve" smooth="yes"/>
      <point x="316" y="426"/>
      <point x="329" y="412"/>
      <point x="329" y="392" type="curve" smooth="yes"/>
    </contour>
    <contour>
      <point x="335" y="592" type="line"/>
      <point x="226" y="757" type="line"/>
      <point x="81" y="757" type="line"/>
      <point x="232" y="592" type="line"/>
    </contour>
  </outline>
</glyph>
<glyph name="ecircumflex" format="1">
  <advance width="464"/>
  <unicode hex="00EA"/>
  <outline>
    <contour>
      <point x="452" y="472"/>
      <point x="385" y="510"/>
      <point x="299" y="510" type="curve" smooth="yes"/>
      <point x="119" y="510"/>
      <point x="21" y="336"/>
      <point x="21" y="201" type="curve" smooth="yes"/>
      <point x="21" y="66"/>
      <point x="116" y="-12"/>
      <point x="238" y="-12" type="curve" smooth="yes"/>
      <point x="360" y="-12"/>
      <point x="436" y="54"/>
      <point x="436" y="54" type="curve"/>
      <point x="394" y="137" type="line"/>
      <point x="360" y="111"/>
      <point x="305" y="76"/>
      <point x="250" y="76" type="curve" smooth="yes"/>
      <point x="198" y="76"/>
      <point x="153" y="114"/>
      <point x="148" y="194" type="curve"/>
      <point x="388" y="196"/>
      <point x="452" y="317"/>
      <point x="452" y="394" type="curve" smooth="yes"/>
    </contour>
    <contour>
      <point x="329" y="332"/>
      <point x="261" y="282"/>
      <point x="155" y="279" type="curve"/>
      <point x="179" y="390"/>
      <point x="259" y="426"/>
      <point x="290" y="426" type="curve" smooth="yes"/>
      <point x="316" y="426"/>
      <point x="329" y="412"/>
      <point x="329" y="392" type="curve" smooth="yes"/>
    </contour>
    <contour>
      <point x="438" y="592" type="line"/>
      <point x="359" y="737" type="line"/>
      <point x="261" y="737" type="line"/>
      <point x="145" y="592" type="line"/>
      <point x="221" y="592" type="line"/>
      <point x="300" y="666" type="line"/>
      <point x="360" y="592" type="line"/>
    </contour>
  </outline>
</glyph>
<glyph name="edieresis" format="1">
  <advance width="464"/>
  <unicode hex="00EB"/>
  <outline>
    <contour>
      <point x="452" y="472"/>
      <point x="385" y="510"/>
      <point x="299" y="510" type="curve" smooth="yes"/>
      <point x="119" y="510"/>
      <point x="21" y="336"/>
      <point x="21" y="201" type="curve" smooth="yes"/>
      <point x="21" y="66"/>
      <point x="116" y="-12"/>
      <point x="238" y="-12" type="curve" smooth="yes"/>
      <point x="360" y="-12"/>
      <point x="436" y="54"/>
      <point x="436" y="54" type="curve"/>
      <point x="394" y="137" type="line"/>
      <point x="360" y="111"/>
      <point x="305" y="76"/>
      <point x="250" y="76" type="curve" smooth="yes"/>
      <point x="198" y="76"/>
      <point x="153" y="114"/>
      <point x="148" y="194" type="curve"/>
      <point x="388" y="196"/>
      <point x="452" y="317"/>
      <point x="452" y="394" type="curve" smooth="yes"/>
    </contour>
    <contour>
      <point x="329" y="332"/>
      <point x="261" y="282"/>
      <point x="155" y="279" type="curve"/>
      <point x="179" y="390"/>
      <point x="259" y="426"/>
      <point x="290" y="426" type="curve" smooth="yes"/>
      <point x="316" y="426"/>
      <point x="329" y="412"/>
      <point x="329" y="392" type="curve" smooth="yes"/>
    </contour>
    <contour>
      <point x="428" y="665"/>
      <point x="402" y="690"/>
      <point x="370" y="690" type="curve" smooth="yes"/>
      <point x="339" y="690"/>
      <point x="313" y="664"/>
      <point x="313" y="633" type="curve" smooth="yes"/>
      <point x="313" y="602"/>
      <point x="339" y="576"/>
      <point x="370" y="576" type="curve" smooth="yes"/>
      <point x="402" y="576"/>
      <point x="428" y="601"/>
      <point x="428" y="633" type="curve" smooth="yes"/>
    </contour>
    <contour>
      <point x="267" y="665"/>
      <point x="242" y="690"/>
      <point x="210" y="690" type="curve" smooth="yes"/>
      <point x="178" y="690"/>
      <point x="153" y="665"/>
      <point x="153" y="633" type="curve" smooth="yes"/>
      <point x="153" y="601"/>
      <point x="178" y="576"/>
      <point x="210" y="576" type="curve" smooth="yes"/>
      <point x="242" y="576"/>
      <point x="267" y="601"/>
      <point x="267" y="633" type="curve" smooth="yes"/>
    </contour>
  </outline>
</glyph>
<glyph name="igrave" format="1">
  <advance width="229"/>
  <unicode hex="00EC"/>
  <outline>
    <contour>
      <point x="208" y="497" type="line"/>
      <point x="83" y="497" type="line"/>
      <point x="86" y="443" type="line"/>
      <point x="27" y="0" type="line"/>
      <point x="151" y="0" type="line"/>
      <point x="148" y="55" type="line"/>
    </contour>
    <contour>
      <point x="223" y="592" type="line"/>
      <point x="114" y="757" type="line"/>
      <point x="-31" y="757" type="line"/>
      <point x="120" y="592" type="line"/>
    </contour>
  </outline>
</glyph>
<glyph name="iacute" format="1">
  <advance width="229"/>
  <unicode hex="00ED"/>
  <outline>
    <contour>
      <point x="207" y="497" type="line"/>
      <point x="83" y="497" type="line"/>
      <point x="86" y="443" type="line"/>
      <point x="27" y="0" type="line"/>
      <point x="151" y="0" type="line"/>
      <point x="148" y="55" type="line"/>
    </contour>
    <contour>
      <point x="364" y="757" type="line"/>
      <point x="219" y="757" type="line"/>
      <point x="87" y="592" type="line"/>
      <point x="190" y="592" type="line"/>
    </contour>
  </outline>
</glyph>
<glyph name="icircumflex" format="1">
  <advance width="229"/>
  <unicode hex="00EE"/>
  <outline>
    <contour>
      <point x="207" y="497" type="line"/>
      <point x="83" y="497" type="line"/>
      <point x="86" y="443" type="line"/>
      <point x="27" y="0" type="line"/>
      <point x="151" y="0" type="line"/>
      <point x="148" y="55" type="line"/>
    </contour>
    <contour>
      <point x="300" y="592" type="line"/>
      <point x="221" y="737" type="line"/>
      <point x="123" y="737" type="line"/>
      <point x="7" y="592" type="line"/>
      <point x="83" y="592" type="line"/>
      <point x="162" y="666" type="line"/>
      <point x="222" y="592" type="line"/>
    </contour>
  </outline>
</glyph>
<glyph name="idieresis" format="1">
  <advance width="229"/>
  <unicode hex="00EF"/>
  <outline>
    <contour>
      <point x="208" y="497" type="line"/>
      <point x="83" y="497" type="line"/>
      <point x="87" y="443" type="line"/>
      <point x="27" y="0" type="line"/>
      <point x="151" y="0" type="line"/>
      <point x="149" y="55" type="line"/>
    </contour>
    <contour>
      <point x="297" y="655"/>
      <point x="271" y="680"/>
      <point x="239" y="680" type="curve" smooth="yes"/>
      <point x="208" y="680"/>
      <point x="182" y="654"/>
      <point x="182" y="623" type="curve" smooth="yes"/>
      <point x="182" y="592"/>
      <point x="208" y="566"/>
      <point x="239" y="566" type="curve" smooth="yes"/>
      <point x="271" y="566"/>
      <point x="297" y="591"/>
      <point x="297" y="623" type="curve" smooth="yes"/>
    </contour>
    <contour>
      <point x="136" y="655"/>
      <point x="111" y="680"/>
      <point x="79" y="680" type="curve" smooth="yes"/>
      <point x="47" y="680"/>
      <point x="22" y="655"/>
      <point x="22" y="623" type="curve" smooth="yes"/>
      <point x="22" y="591"/>
      <point x="47" y="566"/>
      <point x="79" y="566" type="curve" smooth="yes"/>
      <point x="111" y="566"/>
      <point x="136" y="591"/>
      <point x="136" y="623" type="curve" smooth="yes"/>
    </contour>
  </outline>
</glyph>
<glyph name="eth" format="1">
  <advance width="536"/>
  <unicode hex="00F0"/>
  <outline>
    <contour>
      <point x="451" y="723" type="line"/>
      <point x="421" y="783" type="line"/>
      <point x="319" y="728" type="line"/>
      <point x="302" y="748"/>
      <point x="287" y="767"/>
      <point x="273" y="783" type="curve"/>
      <point x="182" y="731" type="line"/>
      <point x="195" y="715"/>
      <point x="209" y="697"/>
      <point x="224" y="677" type="curve"/>
      <point x="130" y="626" type="line"/>
      <point x="165" y="568" type="line"/>
      <point x="260" y="619" type="line"/>
      <point x="281" y="585"/>
      <point x="298" y="547"/>
      <point x="314" y="508" type="curve"/>
      <point x="305" y="509"/>
      <point x="294" y="510"/>
      <point x="284" y="510" type="curve" smooth="yes"/>
      <point x="129" y="510"/>
      <point x="16" y="367"/>
      <point x="16" y="206" type="curve" smooth="yes"/>
      <point x="16" y="82"/>
      <point x="86" y="-11"/>
      <point x="215" y="-11" type="curve" smooth="yes"/>
      <point x="380" y="-11"/>
      <point x="483" y="137"/>
      <point x="483" y="307" type="curve" smooth="yes"/>
      <point x="483" y="443"/>
      <point x="422" y="574"/>
      <point x="357" y="672" type="curve"/>
    </contour>
    <contour>
      <point x="159" y="72"/>
      <point x="142" y="136"/>
      <point x="142" y="198" type="curve" smooth="yes"/>
      <point x="142" y="247"/>
      <point x="161" y="428"/>
      <point x="273" y="428" type="curve" smooth="yes"/>
      <point x="340" y="428"/>
      <point x="357" y="367"/>
      <point x="357" y="306" type="curve" smooth="yes"/>
      <point x="357" y="247"/>
      <point x="342" y="72"/>
      <point x="226" y="72" type="curve" smooth="yes"/>
    </contour>
  </outline>
</glyph>
<glyph name="ntilde" format="1">
  <advance width="492"/>
  <unicode hex="00F1"/>
  <outline>
    <contour>
      <point x="467" y="469"/>
      <point x="430" y="511"/>
      <point x="346" y="511" type="curve" smooth="yes"/>
      <point x="292" y="511"/>
      <point x="234" y="478"/>
      <point x="193" y="444" type="curve"/>
      <point x="193" y="465"/>
      <point x="191" y="487"/>
      <point x="185" y="508" type="curve"/>
      <point x="64" y="493" type="line"/>
      <point x="77" y="473"/>
      <point x="78" y="437"/>
      <point x="78" y="414" type="curve" smooth="yes"/>
      <point x="78" y="394"/>
      <point x="77" y="375"/>
      <point x="75" y="356" type="curve" smooth="yes"/>
      <point x="27" y="0" type="line"/>
      <point x="141" y="0" type="line"/>
      <point x="190" y="361" type="line"/>
      <point x="211" y="382"/>
      <point x="269" y="414"/>
      <point x="300" y="414" type="curve" smooth="yes"/>
      <point x="337" y="414"/>
      <point x="350" y="395"/>
      <point x="350" y="360" type="curve" smooth="yes"/>
      <point x="350" y="351"/>
      <point x="349" y="336"/>
      <point x="347" y="324" type="curve" smooth="yes"/>
      <point x="304" y="0" type="line"/>
      <point x="429" y="0" type="line"/>
      <point x="426" y="54" type="line"/>
      <point x="464" y="336" type="line" smooth="yes"/>
      <point x="466" y="352"/>
      <point x="467" y="370"/>
      <point x="467" y="387" type="curve" smooth="yes"/>
    </contour>
    <contour>
      <point x="425" y="684" type="line"/>
      <point x="407" y="671"/>
      <point x="387" y="657"/>
      <point x="369" y="657" type="curve" smooth="yes"/>
      <point x="337" y="657"/>
      <point x="300" y="685"/>
      <point x="246" y="685" type="curve" smooth="yes"/>
      <point x="157" y="685"/>
      <point x="116" y="609"/>
      <point x="116" y="609" type="curve"/>
      <point x="166" y="582" type="line"/>
      <point x="181" y="595"/>
      <point x="201" y="607"/>
      <point x="218" y="607" type="curve" smooth="yes"/>
      <point x="259" y="607"/>
      <point x="294" y="578"/>
      <point x="350" y="578" type="curve" smooth="yes"/>
      <point x="430" y="578"/>
      <point x="471" y="653"/>
      <point x="471" y="653" type="curve"/>
    </contour>
  </outline>
</glyph>
<glyph name="ograve" format="1">
  <advance width="508"/>
  <unicode hex="00F2"/>
  <outline>
    <contour>
      <point x="487" y="417"/>
      <point x="417" y="510"/>
      <point x="289" y="510" type="curve" smooth="yes"/>
      <point x="125" y="510"/>
      <point x="21" y="356"/>
      <point x="21" y="203" type="curve" smooth="yes"/>
      <point x="21" y="81"/>
      <point x="91" y="-12"/>
      <point x="219" y="-12" type="curve" smooth="yes"/>
      <point x="384" y="-12"/>
      <point x="487" y="141"/>
      <point x="487" y="295" type="curve" smooth="yes"/>
    </contour>
    <contour>
      <point x="362" y="224"/>
      <point x="336" y="68"/>
      <point x="230" y="68" type="curve" smooth="yes"/>
      <point x="160" y="68"/>
      <point x="146" y="141"/>
      <point x="146" y="197" type="curve" smooth="yes"/>
      <point x="146" y="275"/>
      <point x="176" y="428"/>
      <point x="278" y="428" type="curve" smooth="yes"/>
      <point x="348" y="428"/>
      <point x="362" y="362"/>
      <point x="362" y="305" type="curve" smooth="yes"/>
    </contour>
    <contour>
      <point x="344" y="592" type="line"/>
      <point x="235" y="757" type="line"/>
      <point x="90" y="757" type="line"/>
      <point x="241" y="592" type="line"/>
    </contour>
  </outline>
</glyph>
<glyph name="ocircumflex" format="1">
  <advance width="508"/>
  <unicode hex="00F4"/>
  <outline>
    <contour>
      <point x="487" y="417"/>
      <point x="417" y="510"/>
      <point x="289" y="510" type="curve" smooth="yes"/>
      <point x="125" y="510"/>
      <point x="21" y="356"/>
      <point x="21" y="203" type="curve" smooth="yes"/>
      <point x="21" y="81"/>
      <point x="91" y="-12"/>
      <point x="219" y="-12" type="curve" smooth="yes"/>
      <point x="384" y="-12"/>
      <point x="487" y="141"/>
      <point x="487" y="295" type="curve" smooth="yes"/>
    </contour>
    <contour>
      <point x="362" y="224"/>
      <point x="336" y="68"/>
      <point x="230" y="68" type="curve" smooth="yes"/>
      <point x="160" y="68"/>
      <point x="146" y="141"/>
      <point x="146" y="197" type="curve" smooth="yes"/>
      <point x="146" y="275"/>
      <point x="176" y="428"/>
      <point x="278" y="428" type="curve" smooth="yes"/>
      <point x="348" y="428"/>
      <point x="362" y="362"/>
      <point x="362" y="305" type="curve" smooth="yes"/>
    </contour>
    <contour>
      <point x="452" y="591" type="line"/>
      <point x="373" y="736" type="line"/>
      <point x="275" y="736" type="line"/>
      <point x="159" y="591" type="line"/>
      <point x="235" y="591" type="line"/>
      <point x="314" y="665" type="line"/>
      <point x="374" y="591" type="line"/>
    </contour>
  </outline>
</glyph>
<glyph name="otilde" format="1">
  <advance width="508"/>
  <unicode hex="00F5"/>
  <outline>
    <contour>
      <point x="487" y="417"/>
      <point x="417" y="510"/>
      <point x="289" y="510" type="curve" smooth="yes"/>
      <point x="125" y="510"/>
      <point x="21" y="356"/>
      <point x="21" y="203" type="curve" smooth="yes"/>
      <point x="21" y="81"/>
      <point x="91" y="-12"/>
      <point x="219" y="-12" type="curve" smooth="yes"/>
      <point x="384" y="-12"/>
      <point x="487" y="141"/>
      <point x="487" y="295" type="curve" smooth="yes"/>
    </contour>
    <contour>
      <point x="362" y="224"/>
      <point x="336" y="68"/>
      <point x="230" y="68" type="curve" smooth="yes"/>
      <point x="160" y="68"/>
      <point x="146" y="141"/>
      <point x="146" y="197" type="curve" smooth="yes"/>
      <point x="146" y="275"/>
      <point x="176" y="428"/>
      <point x="278" y="428" type="curve" smooth="yes"/>
      <point x="348" y="428"/>
      <point x="362" y="362"/>
      <point x="362" y="305" type="curve" smooth="yes"/>
    </contour>
    <contour>
      <point x="433" y="684" type="line"/>
      <point x="415" y="671"/>
      <point x="395" y="657"/>
      <point x="377" y="657" type="curve" smooth="yes"/>
      <point x="345" y="657"/>
      <point x="308" y="685"/>
      <point x="254" y="685" type="curve" smooth="yes"/>
      <point x="165" y="685"/>
      <point x="124" y="609"/>
      <point x="124" y="609" type="curve"/>
      <point x="174" y="582" type="line"/>
      <point x="189" y="595"/>
      <point x="209" y="607"/>
      <point x="226" y="607" type="curve" smooth="yes"/>
      <point x="267" y="607"/>
      <point x="302" y="578"/>
      <point x="358" y="578" type="curve" smooth="yes"/>
      <point x="438" y="578"/>
      <point x="479" y="653"/>
      <point x="479" y="653" type="curve"/>
    </contour>
  </outline>
</glyph>
<glyph name="odieresis" format="1">
  <advance width="508"/>
  <unicode hex="00F6"/>
  <outline>
    <contour>
      <point x="487" y="417"/>
      <point x="417" y="510"/>
      <point x="289" y="510" type="curve" smooth="yes"/>
      <point x="125" y="510"/>
      <point x="21" y="356"/>
      <point x="21" y="203" type="curve" smooth="yes"/>
      <point x="21" y="81"/>
      <point x="91" y="-12"/>
      <point x="219" y="-12" type="curve" smooth="yes"/>
      <point x="384" y="-12"/>
      <point x="487" y="141"/>
      <point x="487" y="295" type="curve" smooth="yes"/>
    </contour>
    <contour>
      <point x="362" y="224"/>
      <point x="336" y="68"/>
      <point x="230" y="68" type="curve" smooth="yes"/>
      <point x="160" y="68"/>
      <point x="146" y="141"/>
      <point x="146" y="197" type="curve" smooth="yes"/>
      <point x="146" y="275"/>
      <point x="176" y="428"/>
      <point x="278" y="428" type="curve" smooth="yes"/>
      <point x="348" y="428"/>
      <point x="362" y="362"/>
      <point x="362" y="305" type="curve" smooth="yes"/>
    </contour>
    <contour>
      <point x="445" y="665"/>
      <point x="419" y="690"/>
      <point x="387" y="690" type="curve" smooth="yes"/>
      <point x="356" y="690"/>
      <point x="330" y="664"/>
      <point x="330" y="633" type="curve" smooth="yes"/>
      <point x="330" y="602"/>
      <point x="356" y="576"/>
      <point x="387" y="576" type="curve" smooth="yes"/>
      <point x="419" y="576"/>
      <point x="445" y="601"/>
      <point x="445" y="633" type="curve" smooth="yes"/>
    </contour>
    <contour>
      <point x="284" y="665"/>
      <point x="259" y="690"/>
      <point x="227" y="690" type="curve" smooth="yes"/>
      <point x="195" y="690"/>
      <point x="170" y="665"/>
      <point x="170" y="633" type="curve" smooth="yes"/>
      <point x="170" y="601"/>
      <point x="195" y="576"/>
      <point x="227" y="576" type="curve" smooth="yes"/>
      <point x="259" y="576"/>
      <point x="284" y="601"/>
      <point x="284" y="633" type="curve" smooth="yes"/>
    </contour>
  </outline>
</glyph>
<glyph name="oslash" format="1">
  <advance width="555"/>
  <unicode hex="00F8"/>
  <outline>
    <contour>
      <point x="524" y="512" type="line"/>
      <point x="457" y="556" type="line"/>
      <point x="404" y="487" type="line"/>
      <point x="376" y="502"/>
      <point x="343" y="510"/>
      <point x="305" y="510" type="curve" smooth="yes"/>
      <point x="141" y="510"/>
      <point x="37" y="356"/>
      <point x="37" y="203" type="curve" smooth="yes"/>
      <point x="37" y="149"/>
      <point x="51" y="101"/>
      <point x="77" y="64" type="curve"/>
      <point x="5" y="-29" type="line"/>
      <point x="72" y="-73" type="line"/>
      <point x="137" y="11" type="line"/>
      <point x="164" y="-4"/>
      <point x="197" y="-12"/>
      <point x="235" y="-12" type="curve" smooth="yes"/>
      <point x="400" y="-12"/>
      <point x="503" y="141"/>
      <point x="503" y="295" type="curve" smooth="yes"/>
      <point x="503" y="348"/>
      <point x="489" y="396"/>
      <point x="463" y="433" type="curve"/>
    </contour>
    <contour>
      <point x="162" y="175" type="line"/>
      <point x="162" y="197" type="line"/>
      <point x="162" y="275"/>
      <point x="192" y="428"/>
      <point x="294" y="428" type="curve" smooth="yes"/>
      <point x="316" y="428"/>
      <point x="332" y="421"/>
      <point x="344" y="410" type="curve"/>
    </contour>
    <contour>
      <point x="378" y="305" type="line" smooth="yes"/>
      <point x="378" y="224"/>
      <point x="352" y="68"/>
      <point x="246" y="68" type="curve" smooth="yes"/>
      <point x="224" y="68"/>
      <point x="208" y="75"/>
      <point x="195" y="87" type="curve"/>
      <point x="378" y="323" type="line"/>
    </contour>
  </outline>
</glyph>
<glyph name="ucircumflex" format="1">
  <advance width="510"/>
  <unicode hex="00FB"/>
  <outline>
    <contour>
      <point x="487" y="85" type="line"/>
      <point x="474" y="80"/>
      <point x="452" y="73"/>
      <point x="439" y="73" type="curve" smooth="yes"/>
      <point x="418" y="73"/>
      <point x="414" y="92"/>
      <point x="414" y="109" type="curve" smooth="yes"/>
      <point x="414" y="116"/>
      <point x="415" y="123"/>
      <point x="416" y="130" type="curve" smooth="yes"/>
      <point x="470" y="497" type="line"/>
      <point x="342" y="497" type="line"/>
      <point x="348" y="453" type="line"/>
      <point x="329" y="307" type="line" smooth="yes"/>
      <point x="319" y="231"/>
      <point x="284" y="84"/>
      <point x="196" y="84" type="curve" smooth="yes"/>
      <point x="158" y="84"/>
      <point x="147" y="108"/>
      <point x="147" y="142" type="curve" smooth="yes"/>
      <point x="147" y="151"/>
      <point x="148" y="160"/>
      <point x="149" y="169" type="curve" smooth="yes"/>
      <point x="192" y="497" type="line"/>
      <point x="65" y="497" type="line"/>
      <point x="70" y="453" type="line"/>
      <point x="30" y="146" type="line" smooth="yes"/>
      <point x="28" y="134"/>
      <point x="27" y="122"/>
      <point x="27" y="111" type="curve" smooth="yes"/>
      <point x="27" y="29"/>
      <point x="72" y="-11"/>
      <point x="153" y="-11" type="curve" smooth="yes"/>
      <point x="208" y="-11"/>
      <point x="275" y="13"/>
      <point x="310" y="59" type="curve"/>
      <point x="314" y="59" type="line"/>
      <point x="322" y="20"/>
      <point x="355" y="-9"/>
      <point x="396" y="-9" type="curve" smooth="yes"/>
      <point x="429" y="-9"/>
      <point x="475" y="3"/>
      <point x="504" y="22" type="curve"/>
    </contour>
    <contour>
      <point x="422" y="591" type="line"/>
      <point x="343" y="736" type="line"/>
      <point x="245" y="736" type="line"/>
      <point x="129" y="591" type="line"/>
      <point x="205" y="591" type="line"/>
      <point x="284" y="665" type="line"/>
      <point x="344" y="591" type="line"/>
    </contour>
  </outline>
</glyph>
<glyph name="thorn" format="1">
  <advance width="558"/>
  <unicode hex="00FE"/>
  <outline>
    <contour>
      <point x="257" y="768" type="line"/>
      <point x="133" y="768" type="line"/>
      <point x="134" y="763"/>
      <point x="136" y="721"/>
      <point x="136" y="715" type="curve"/>
      <point x="14" y="-217" type="line"/>
      <point x="128" y="-217" type="line"/>
      <point x="159" y="18" type="line"/>
      <point x="185" y="-2"/>
      <point x="218" y="-12"/>
      <point x="257" y="-12" type="curve" smooth="yes"/>
      <point x="427" y="-12"/>
      <point x="517" y="139"/>
      <point x="517" y="297" type="curve" smooth="yes"/>
      <point x="517" y="403"/>
      <point x="468" y="508"/>
      <point x="355" y="508" type="curve" smooth="yes"/>
      <point x="303" y="508"/>
      <point x="261" y="493"/>
      <point x="216" y="457" type="curve"/>
    </contour>
    <contour>
      <point x="205" y="368" type="line"/>
      <point x="231" y="395"/>
      <point x="269" y="416"/>
      <point x="304" y="416" type="curve" smooth="yes"/>
      <point x="370" y="416"/>
      <point x="391" y="344"/>
      <point x="391" y="281" type="curve" smooth="yes"/>
      <point x="391" y="232"/>
      <point x="366" y="70"/>
      <point x="264" y="70" type="curve" smooth="yes"/>
      <point x="202" y="70"/>
      <point x="181" y="118"/>
      <point x="181" y="172" type="curve" smooth="yes"/>
      <point x="181" y="183"/>
      <point x="181" y="194"/>
      <point x="183" y="205" type="curve" smooth="yes"/>
    </contour>
  </outline>
</glyph>
<glyph name="ydieresis" format="1">
  <advance width="419"/>
  <unicode hex="00FF"/>
  <outline>
    <contour>
      <point x="459" y="497" type="line"/>
      <point x="347" y="497" type="line"/>
      <point x="305" y="405"/>
      <point x="260" y="314"/>
      <point x="220" y="221" type="curve" smooth="yes"/>
      <point x="210" y="198"/>
      <point x="203" y="170"/>
      <point x="196" y="146" type="curve"/>
      <point x="195" y="170"/>
      <point x="196" y="198"/>
      <point x="192" y="221" type="curve" smooth="yes"/>
      <point x="177" y="314"/>
      <point x="156" y="405"/>
      <point x="137" y="497" type="curve"/>
      <point x="15" y="497" type="line"/>
      <point x="120" y="1" type="line"/>
      <point x="90" y="-57"/>
      <point x="40" y="-150"/>
      <point x="-48" y="-150" type="curve" smooth="yes"/>
      <point x="-97" y="-150"/>
      <point x="-136" y="-113"/>
      <point x="-136" y="-113" type="curve"/>
      <point x="-187" y="-190" type="line"/>
      <point x="-187" y="-190"/>
      <point x="-137" y="-230"/>
      <point x="-47" y="-230" type="curve" smooth="yes"/>
      <point x="114" y="-230"/>
      <point x="179" y="-103"/>
      <point x="226" y="-3" type="curve" smooth="yes"/>
    </contour>
    <contour>
      <point x="388" y="665"/>
      <point x="362" y="690"/>
      <point x="330" y="690" type="curve" smooth="yes"/>
      <point x="299" y="690"/>
      <point x="273" y="664"/>
      <point x="273" y="633" type="curve" smooth="yes"/>
      <point x="273" y="602"/>
      <point x="299" y="576"/>
      <point x="330" y="576" type="curve" smooth="yes"/>
      <point x="362" y="576"/>
      <point x="388" y="601"/>
      <point x="388" y="633" type="curve" smooth="yes"/>
    </contour>
    <contour>
      <point x="227" y="665"/>
      <point x="202" y="690"/>
      <point x="170" y="690" type="curve" smooth="yes"/>
      <point x="138" y="690"/>
      <point x="113" y="665"/>
      <point x="113" y="633" type="curve" smooth="yes"/>
      <point x="113" y="601"/>
      <point x="138" y="576"/>
      <point x="170" y="576" type="curve" smooth="yes"/>
      <point x="202" y="576"/>
      <point x="227" y="601"/>
      <point x="227" y="633" type="curve" smooth="yes"/>
    </contour>
  </outline>
</glyph>
<glyph name="dotlessi" format="1">
  <advance width="228"/>
  <unicode hex="0131"/>
  <outline>
    <contour>
      <point x="207" y="497" type="line"/>
      <point x="83" y="497" type="line"/>
      <point x="86" y="443" type="line"/>
      <point x="27" y="0" type="line"/>
      <point x="151" y="0" type="line"/>
      <point x="148" y="55" type="line"/>
    </contour>
  </outline>
</glyph>
<glyph name="Lslash" format="1">
  <advance width="492"/>
  <unicode hex="0141"/>
  <outline>
    <contour>
      <point x="431" y="0" type="line"/>
      <point x="444" y="99" type="line"/>
      <point x="171" y="99" type="line"/>
      <point x="199" y="309" type="line"/>
      <point x="398" y="400" type="line"/>
      <point x="411" y="498" type="line"/>
      <point x="212" y="406" type="line"/>
      <point x="255" y="732" type="line"/>
      <point x="111" y="732" type="line"/>
      <point x="111" y="727"/>
      <point x="115" y="679"/>
      <point x="115" y="672" type="curve"/>
      <point x="71" y="342" type="line"/>
      <point x="5" y="312" type="line"/>
      <point x="-6" y="215" type="line"/>
      <point x="59" y="245" type="line"/>
      <point x="26" y="0" type="line"/>
    </contour>
  </outline>
</glyph>
<glyph name="lslash" format="1">
  <advance width="251"/>
  <unicode hex="0142"/>
  <outline>
    <contour>
      <point x="131" y="0" type="line"/>
      <point x="174" y="330" type="line"/>
      <point x="239" y="360" type="line"/>
      <point x="252" y="458" type="line"/>
      <point x="187" y="428" type="line"/>
      <point x="232" y="768" type="line"/>
      <point x="106" y="768" type="line"/>
      <point x="109" y="715" type="line"/>
      <point x="64" y="371" type="line"/>
      <point x="3" y="343" type="line"/>
      <point x="-9" y="246" type="line"/>
      <point x="51" y="274" type="line"/>
      <point x="15" y="0" type="line"/>
    </contour>
  </outline>
</glyph>
<glyph name="oe" format="1">
  <advance width="797"/>
  <unicode hex="0153"/>
  <outline>
    <contour>
      <point x="787" y="472"/>
      <point x="720" y="510"/>
      <point x="634" y="510" type="curve" smooth="yes"/>
      <point x="557" y="510"/>
      <point x="495" y="478"/>
      <point x="449" y="431" type="curve"/>
      <point x="416" y="480"/>
      <point x="362" y="510"/>
      <point x="289" y="510" type="curve" smooth="yes"/>
      <point x="125" y="510"/>
      <point x="21" y="356"/>
      <point x="21" y="203" type="curve" smooth="yes"/>
      <point x="21" y="81"/>
      <point x="91" y="-12"/>
      <point x="219" y="-12" type="curve" smooth="yes"/>
      <point x="293" y="-12"/>
      <point x="354" y="18"/>
      <point x="399" y="65" type="curve"/>
      <point x="438" y="15"/>
      <point x="501" y="-12"/>
      <point x="573" y="-12" type="curve" smooth="yes"/>
      <point x="695" y="-12"/>
      <point x="771" y="54"/>
      <point x="771" y="54" type="curve"/>
      <point x="729" y="137" type="line"/>
      <point x="695" y="111"/>
      <point x="640" y="76"/>
      <point x="585" y="76" type="curve" smooth="yes"/>
      <point x="533" y="76"/>
      <point x="489" y="114"/>
      <point x="484" y="194" type="curve"/>
      <point x="723" y="196"/>
      <point x="787" y="317"/>
      <point x="787" y="394" type="curve" smooth="yes"/>
    </contour>
    <contour>
      <point x="664" y="332"/>
      <point x="596" y="282"/>
      <point x="490" y="279" type="curve"/>
      <point x="514" y="390"/>
      <point x="594" y="426"/>
      <point x="625" y="426" type="curve" smooth="yes"/>
      <point x="651" y="426"/>
      <point x="664" y="412"/>
      <point x="664" y="392" type="curve" smooth="yes"/>
    </contour>
    <contour>
      <point x="362" y="224"/>
      <point x="336" y="68"/>
      <point x="230" y="68" type="curve" smooth="yes"/>
      <point x="160" y="68"/>
      <point x="146" y="141"/>
      <point x="146" y="197" type="curve" smooth="yes"/>
      <point x="146" y="275"/>
      <point x="176" y="428"/>
      <point x="278" y="428" type="curve" smooth="yes"/>
      <point x="348" y="428"/>
      <point x="362" y="362"/>
      <point x="362" y="305" type="curve" smooth="yes"/>
    </contour>
  </outline>
</glyph>
<glyph name="florin" format="1">
  <advance width="520"/>
  <unicode hex="0192"/>
  <outline>
    <contour>
      <point x="670" y="733" type="line"/>
      <point x="635" y="759"/>
      <point x="578" y="776"/>
      <point x="532" y="776" type="curve" smooth="yes"/>
      <point x="356" y="776"/>
      <point x="284" y="650"/>
      <point x="242" y="497" type="curve"/>
      <point x="163" y="497" type="line"/>
      <point x="142" y="414" type="line"/>
      <point x="221" y="414" type="line"/>
      <point x="97" y="-35" type="line" smooth="yes"/>
      <point x="83" y="-85"/>
      <point x="57" y="-151"/>
      <point x="-5" y="-151" type="curve" smooth="yes"/>
      <point x="-27" y="-151"/>
      <point x="-59" y="-135"/>
      <point x="-73" y="-120" type="curve"/>
      <point x="-131" y="-186" type="line"/>
      <point x="-107" y="-219"/>
      <point x="-39" y="-230"/>
      <point x="0" y="-230" type="curve" smooth="yes"/>
      <point x="117" y="-230"/>
      <point x="178" y="-155"/>
      <point x="208" y="-47" type="curve" smooth="yes"/>
      <point x="335" y="414" type="line"/>
      <point x="453" y="414" type="line"/>
      <point x="475" y="497" type="line"/>
      <point x="357" y="497" type="line"/>
      <point x="377" y="567"/>
      <point x="426" y="694"/>
      <point x="517" y="694" type="curve" smooth="yes"/>
      <point x="560" y="694"/>
      <point x="583" y="682"/>
      <point x="610" y="654" type="curve"/>
    </contour>
  </outline>
</glyph>
<glyph name="circumflex" format="1">
  <advance width="254"/>
  <unicode hex="02C6"/>
  <outline>
    <contour>
      <point x="275" y="588" type="line"/>
      <point x="196" y="733" type="line"/>
      <point x="98" y="733" type="line"/>
      <point x="-18" y="588" type="line"/>
      <point x="58" y="588" type="line"/>
      <point x="137" y="662" type="line"/>
      <point x="197" y="588" type="line"/>
    </contour>
  </outline>
</glyph>
<glyph name="caron" format="1">
  <advance width="275"/>
  <unicode hex="02C7"/>
  <outline>
    <contour>
      <point x="295" y="733" type="line"/>
      <point x="219" y="733" type="line"/>
      <point x="140" y="659" type="line"/>
      <point x="80" y="733" type="line"/>
      <point x="2" y="733" type="line"/>
      <point x="81" y="588" type="line"/>
      <point x="179" y="588" type="line"/>
    </contour>
  </outline>
</glyph>
<glyph name="breve" format="1">
  <advance width="256"/>
  <unicode hex="02D8"/>
  <outline>
    <contour>
      <point x="231" y="732" type="line"/>
      <point x="215" y="688"/>
      <point x="188" y="662"/>
      <point x="139" y="662" type="curve" smooth="yes"/>
      <point x="92" y="662"/>
      <point x="70" y="686"/>
      <point x="66" y="732" type="curve"/>
      <point x="-1" y="732" type="line"/>
      <point x="-1" y="732"/>
      <point x="-3" y="712"/>
      <point x="-3" y="702" type="curve"/>
      <point x="-3" y="625"/>
      <point x="41" y="572"/>
      <point x="127" y="572" type="curve" smooth="yes"/>
      <point x="231" y="572"/>
      <point x="276" y="640"/>
      <point x="300" y="732" type="curve"/>
    </contour>
  </outline>
</glyph>
<glyph name="ring" format="1">
  <advance width="281"/>
  <unicode hex="02DA"/>
  <outline>
    <contour>
      <point x="249" y="696"/>
      <point x="200" y="745"/>
      <point x="141" y="745" type="curve" smooth="yes"/>
      <point x="82" y="745"/>
      <point x="34" y="696"/>
      <point x="34" y="638" type="curve" smooth="yes"/>
      <point x="34" y="579"/>
      <point x="82" y="531"/>
      <point x="141" y="531" type="curve" smooth="yes"/>
      <point x="200" y="531"/>
      <point x="249" y="579"/>
      <point x="249" y="638" type="curve" smooth="yes"/>
    </contour>
    <contour>
      <point x="181" y="616"/>
      <point x="163" y="597"/>
      <point x="141" y="597" type="curve" smooth="yes"/>
      <point x="119" y="597"/>
      <point x="100" y="616"/>
      <point x="100" y="638" type="curve" smooth="yes"/>
      <point x="100" y="660"/>
      <point x="119" y="678"/>
      <point x="141" y="678" type="curve" smooth="yes"/>
      <point x="162" y="678"/>
      <point x="181" y="661"/>
      <point x="181" y="638" type="curve" smooth="yes"/>
    </contour>
  </outline>
</glyph>
<glyph name="ogonek" format="1">
  <advance width="294"/>
  <unicode hex="02DB"/>
  <outline>
    <contour>
      <point x="240" y="33" type="line"/>
      <point x="164" y="21"/>
      <point x="23" y="-42"/>
      <point x="23" y="-134" type="curve" smooth="yes"/>
      <point x="23" y="-188"/>
      <point x="66" y="-211"/>
      <point x="115" y="-211" type="curve" smooth="yes"/>
      <point x="170" y="-211"/>
      <point x="222" y="-185"/>
      <point x="265" y="-154" type="curve"/>
      <point x="249" y="-104" type="line"/>
      <point x="227" y="-118"/>
      <point x="187" y="-140"/>
      <point x="161" y="-140" type="curve" smooth="yes"/>
      <point x="141" y="-140"/>
      <point x="124" y="-132"/>
      <point x="124" y="-109" type="curve" smooth="yes"/>
      <point x="124" y="-52"/>
      <point x="229" y="-9"/>
      <point x="272" y="14" type="curve"/>
    </contour>
  </outline>
</glyph>
<glyph name="tilde" format="1">
  <advance width="272"/>
  <unicode hex="02DC"/>
  <outline>
    <contour>
      <point x="267" y="683" type="line"/>
      <point x="249" y="670"/>
      <point x="229" y="656"/>
      <point x="211" y="656" type="curve" smooth="yes"/>
      <point x="179" y="656"/>
      <point x="142" y="684"/>
      <point x="88" y="684" type="curve" smooth="yes"/>
      <point x="-1" y="684"/>
      <point x="-42" y="608"/>
      <point x="-42" y="608" type="curve"/>
      <point x="8" y="581" type="line"/>
      <point x="24" y="594"/>
      <point x="43" y="606"/>
      <point x="60" y="606" type="curve" smooth="yes"/>
      <point x="101" y="606"/>
      <point x="136" y="577"/>
      <point x="192" y="577" type="curve" smooth="yes"/>
      <point x="272" y="577"/>
      <point x="313" y="652"/>
      <point x="313" y="652" type="curve"/>
    </contour>
  </outline>
</glyph>
<glyph name="hungarumlaut" format="1">
  <advance width="405"/>
  <unicode hex="02DD"/>
  <outline>
    <contour>
      <point x="381" y="732" type="line"/>
      <point x="246" y="732" type="line"/>
      <point x="157" y="590" type="line"/>
      <point x="250" y="590" type="line"/>
    </contour>
    <contour>
      <point x="224" y="732" type="line"/>
      <point x="89" y="732" type="line"/>
      <point x="0" y="590" type="line"/>
      <point x="93" y="590" type="line"/>
    </contour>
  </outline>
</glyph>
<glyph name="pi" format="1">
  <advance width="669"/>
  <unicode hex="03C0"/>
  <outline>
    <contour>
      <point x="551" y="98" type="line"/>
      <point x="538" y="93"/>
      <point x="526" y="90"/>
      <point x="513" y="90" type="curve" smooth="yes"/>
      <point x="478" y="90"/>
      <point x="467" y="119"/>
      <point x="467" y="150" type="curve" smooth="yes"/>
      <point x="467" y="228"/>
      <point x="506" y="331"/>
      <point x="537" y="407" type="curve"/>
      <point x="583" y="412"/>
      <point x="632" y="420"/>
      <point x="666" y="462" type="curve"/>
      <point x="642" y="520" type="line"/>
      <point x="600" y="501"/>
      <point x="585" y="497"/>
      <point x="541" y="497" type="curve" smooth="yes"/>
      <point x="229" y="497" type="line" smooth="yes"/>
      <point x="136" y="497"/>
      <point x="65" y="442"/>
      <point x="44" y="344" type="curve"/>
      <point x="105" y="326" type="line"/>
      <point x="118" y="367"/>
      <point x="154" y="407"/>
      <point x="195" y="407" type="curve" smooth="yes"/>
      <point x="206" y="407" type="line"/>
      <point x="203" y="397"/>
      <point x="195" y="381"/>
      <point x="194" y="371" type="curve" smooth="yes"/>
      <point x="169" y="181" type="line" smooth="yes"/>
      <point x="160" y="117"/>
      <point x="118" y="59"/>
      <point x="64" y="25" type="curve"/>
      <point x="91" y="-30" type="line"/>
      <point x="266" y="36"/>
      <point x="291" y="219"/>
      <point x="312" y="380" type="curve" smooth="yes"/>
      <point x="316" y="407" type="line"/>
      <point x="441" y="407" type="line"/>
      <point x="389" y="345"/>
      <point x="356" y="204"/>
      <point x="356" y="128" type="curve" smooth="yes"/>
      <point x="356" y="56"/>
      <point x="384" y="-10"/>
      <point x="464" y="-10" type="curve" smooth="yes"/>
      <point x="499" y="-10"/>
      <point x="544" y="5"/>
      <point x="572" y="31" type="curve"/>
    </contour>
  </outline>
</glyph>
<glyph name="endash" format="1">
  <advance width="551"/>
  <unicode hex="2013"/>
  <outline>
    <contour>
      <point x="521" y="305" type="line"/>
      <point x="45" y="305" type="line"/>
      <point x="31" y="211" type="line"/>
      <point x="507" y="211" type="line"/>
    </contour>
  </outline>
</glyph>
<glyph name="emdash" format="1">
  <advance width="901"/>
  <unicode hex="2014"/>
  <outline>
    <contour>
      <point x="873" y="305" type="line"/>
      <point x="47" y="305" type="line"/>
      <point x="33" y="211" type="line"/>
      <point x="859" y="211" type="line"/>
    </contour>
  </outline>
</glyph>
<glyph name="quotedblbase" format="1">
  <advance width="440"/>
  <unicode hex="201E"/>
  <outline>
    <contour>
      <point x="371" y="105"/>
      <point x="339" y="139"/>
      <point x="294" y="139" type="curve" smooth="yes"/>
      <point x="253" y="139"/>
      <point x="215" y="105"/>
      <point x="215" y="60" type="curve" smooth="yes"/>
      <point x="215" y="14"/>
      <point x="251" y="3"/>
      <point x="251" y="-15" type="curve" smooth="yes"/>
      <point x="251" y="-39"/>
      <point x="213" y="-78"/>
      <point x="195" y="-93" type="curve"/>
      <point x="230" y="-132" type="line"/>
      <point x="293" y="-91"/>
      <point x="371" y="-19"/>
      <point x="371" y="62" type="curve" smooth="yes"/>
    </contour>
    <contour>
      <point x="181" y="105"/>
      <point x="149" y="139"/>
      <point x="104" y="139" type="curve" smooth="yes"/>
      <point x="63" y="139"/>
      <point x="25" y="105"/>
      <point x="25" y="60" type="curve" smooth="yes"/>
      <point x="25" y="14"/>
      <point x="61" y="3"/>
      <point x="61" y="-15" type="curve" smooth="yes"/>
      <point x="61" y="-39"/>
      <point x="23" y="-78"/>
      <point x="5" y="-93" type="curve"/>
      <point x="40" y="-132" type="line"/>
      <point x="103" y="-91"/>
      <point x="181" y="-19"/>
      <point x="181" y="62" type="curve" smooth="yes"/>
    </contour>
  </outline>
</glyph>
<glyph name="dagger" format="1">
  <advance width="490"/>
  <unicode hex="2020"/>
  <outline>
    <contour>
      <point x="455" y="481" type="line"/>
      <point x="402" y="539" type="line"/>
      <point x="286" y="514" type="line"/>
      <point x="331" y="658" type="line"/>
      <point x="282" y="740" type="line"/>
      <point x="217" y="658" type="line"/>
      <point x="223" y="514" type="line"/>
      <point x="116" y="539" type="line"/>
      <point x="46" y="485" type="line"/>
      <point x="101" y="430" type="line"/>
      <point x="215" y="452" type="line"/>
      <point x="172" y="309" type="line"/>
      <point x="147" y="-138" type="line"/>
      <point x="191" y="-138" type="line"/>
      <point x="283" y="309" type="line"/>
      <point x="278" y="452" type="line"/>
      <point x="388" y="430" type="line"/>
    </contour>
  </outline>
</glyph>
<glyph name="daggerdbl" format="1">
  <advance width="523"/>
  <unicode hex="2021"/>
  <outline>
    <contour>
      <point x="487" y="481" type="line"/>
      <point x="435" y="539" type="line"/>
      <point x="318" y="514" type="line"/>
      <point x="363" y="658" type="line"/>
      <point x="315" y="740" type="line"/>
      <point x="249" y="658" type="line"/>
      <point x="256" y="514" type="line"/>
      <point x="148" y="539" type="line"/>
      <point x="79" y="485" type="line"/>
      <point x="133" y="430" type="line"/>
      <point x="247" y="452" type="line"/>
      <point x="204" y="309" type="line"/>
      <point x="204" y="145" type="line"/>
      <point x="98" y="165" type="line"/>
      <point x="29" y="117" type="line"/>
      <point x="84" y="58" type="line"/>
      <point x="198" y="83" type="line"/>
      <point x="153" y="-61" type="line"/>
      <point x="203" y="-139" type="line"/>
      <point x="267" y="-61" type="line"/>
      <point x="267" y="83" type="line"/>
      <point x="367" y="58" type="line"/>
      <point x="438" y="112" type="line"/>
      <point x="382" y="165" type="line"/>
      <point x="272" y="145" type="line"/>
      <point x="316" y="309" type="line"/>
      <point x="310" y="452" type="line"/>
      <point x="420" y="430" type="line"/>
    </contour>
  </outline>
</glyph>
<glyph name="perthousand" format="1">
  <advance width="1052"/>
  <unicode hex="2030"/>
  <outline>
    <contour>
      <point x="1053" y="338"/>
      <point x="1008" y="405"/>
      <point x="909" y="405" type="curve" smooth="yes"/>
      <point x="773" y="405"/>
      <point x="711" y="278"/>
      <point x="711" y="157" type="curve" smooth="yes"/>
      <point x="711" y="64"/>
      <point x="755" y="-4"/>
      <point x="855" y="-4" type="curve" smooth="yes"/>
      <point x="991" y="-4"/>
      <point x="1053" y="124"/>
      <point x="1053" y="245" type="curve" smooth="yes"/>
    </contour>
    <contour>
      <point x="697" y="338"/>
      <point x="652" y="405"/>
      <point x="553" y="405" type="curve" smooth="yes"/>
      <point x="417" y="405"/>
      <point x="355" y="278"/>
      <point x="355" y="157" type="curve" smooth="yes"/>
      <point x="355" y="64"/>
      <point x="399" y="-4"/>
      <point x="499" y="-4" type="curve" smooth="yes"/>
      <point x="635" y="-4"/>
      <point x="697" y="124"/>
      <point x="697" y="245" type="curve" smooth="yes"/>
    </contour>
    <contour>
      <point x="601" y="699" type="line"/>
      <point x="293" y="699" type="line"/>
      <point x="272" y="709"/>
      <point x="248" y="713"/>
      <point x="224" y="713" type="curve" smooth="yes"/>
      <point x="87" y="713"/>
      <point x="25" y="586"/>
      <point x="25" y="465" type="curve" smooth="yes"/>
      <point x="25" y="372"/>
      <point x="70" y="304"/>
      <point x="169" y="304" type="curve" smooth="yes"/>
      <point x="306" y="304"/>
      <point x="368" y="433"/>
      <point x="368" y="554" type="curve" smooth="yes"/>
      <point x="368" y="585"/>
      <point x="363" y="617"/>
      <point x="348" y="645" type="curve"/>
      <point x="503" y="645" type="line"/>
      <point x="110" y="-12" type="line"/>
      <point x="177" y="-12" type="line"/>
    </contour>
    <contour>
      <point x="950" y="195"/>
      <point x="935" y="75"/>
      <point x="865" y="75" type="curve" smooth="yes"/>
      <point x="821" y="75"/>
      <point x="814" y="120"/>
      <point x="814" y="155" type="curve" smooth="yes"/>
      <point x="814" y="207"/>
      <point x="829" y="326"/>
      <point x="899" y="326" type="curve" smooth="yes"/>
      <point x="943" y="326"/>
      <point x="950" y="281"/>
      <point x="950" y="247" type="curve" smooth="yes"/>
    </contour>
    <contour>
      <point x="594" y="195"/>
      <point x="579" y="75"/>
      <point x="509" y="75" type="curve" smooth="yes"/>
      <point x="465" y="75"/>
      <point x="458" y="120"/>
      <point x="458" y="155" type="curve" smooth="yes"/>
      <point x="458" y="207"/>
      <point x="473" y="326"/>
      <point x="543" y="326" type="curve" smooth="yes"/>
      <point x="587" y="326"/>
      <point x="594" y="281"/>
      <point x="594" y="247" type="curve" smooth="yes"/>
    </contour>
    <contour>
      <point x="265" y="503"/>
      <point x="250" y="383"/>
      <point x="180" y="383" type="curve" smooth="yes"/>
      <point x="136" y="383"/>
      <point x="129" y="428"/>
      <point x="129" y="463" type="curve" smooth="yes"/>
      <point x="129" y="515"/>
      <point x="143" y="634"/>
      <point x="213" y="634" type="curve" smooth="yes"/>
      <point x="257" y="634"/>
      <point x="265" y="589"/>
      <point x="265" y="555" type="curve" smooth="yes"/>
    </contour>
  </outline>
</glyph>
<glyph name="guilsinglleft" format="1">
  <advance width="304"/>
  <unicode hex="2039"/>
  <outline>
    <contour>
      <point x="284" y="490" type="line"/>
      <point x="209" y="504" type="line"/>
      <point x="33" y="332" type="line"/>
      <point x="165" y="162" type="line"/>
      <point x="242" y="173" type="line"/>
      <point x="143" y="332" type="line"/>
    </contour>
  </outline>
</glyph>
<glyph name="guilsinglright" format="1">
  <advance width="310"/>
  <unicode hex="203A"/>
  <outline>
    <contour>
      <point x="280" y="332" type="line"/>
      <point x="152" y="504" type="line"/>
      <point x="73" y="490" type="line"/>
      <point x="171" y="332" type="line"/>
      <point x="26" y="173" type="line"/>
      <point x="100" y="162" type="line"/>
    </contour>
  </outline>
</glyph>
<glyph name="fraction" format="1">
  <advance width="132"/>
  <unicode hex="2044"/>
  <outline>
    <contour>
      <point x="-96" y="-27" type="line"/>
      <point x="304" y="753" type="line"/>
      <point x="224" y="753" type="line"/>
      <point x="-175" y="-27" type="line"/>
    </contour>
  </outline>
</glyph>
<glyph name="Euro" format="1">
  <advance width="480"/>
  <unicode hex="20AC"/>
  <outline>
    <contour>
      <point x="429" y="121" type="line"/>
      <point x="395" y="95"/>
      <point x="365" y="72"/>
      <point x="324" y="72" type="curve" smooth="yes"/>
      <point x="265" y="72"/>
      <point x="232" y="116"/>
      <point x="224" y="173" type="curve"/>
      <point x="385" y="173" type="line"/>
      <point x="392" y="220" type="line"/>
      <point x="222" y="220" type="line"/>
      <point x="222" y="240"/>
      <point x="226" y="262"/>
      <point x="230" y="282" type="curve"/>
      <point x="400" y="282" type="line"/>
      <point x="406" y="329" type="line"/>
      <point x="245" y="329" type="line"/>
      <point x="264" y="376"/>
      <point x="306" y="425"/>
      <point x="357" y="425" type="curve" smooth="yes"/>
      <point x="396" y="425"/>
      <point x="421" y="410"/>
      <point x="448" y="386" type="curve"/>
      <point x="515" y="462" type="line"/>
      <point x="480" y="491"/>
      <point x="424" y="510"/>
      <point x="378" y="510" type="curve" smooth="yes"/>
      <point x="256" y="510"/>
      <point x="163" y="446"/>
      <point x="119" y="329" type="curve"/>
      <point x="43" y="329" type="line"/>
      <point x="37" y="282" type="line"/>
      <point x="106" y="282" type="line"/>
      <point x="101" y="261"/>
      <point x="98" y="241"/>
      <point x="97" y="220" type="curve"/>
      <point x="29" y="220" type="line"/>
      <point x="22" y="173" type="line"/>
      <point x="96" y="173" type="line"/>
      <point x="105" y="53"/>
      <point x="182" y="-12"/>
      <point x="295" y="-12" type="curve" smooth="yes"/>
      <point x="363" y="-12"/>
      <point x="404" y="4"/>
      <point x="466" y="35" type="curve"/>
    </contour>
  </outline>
</glyph>
<glyph name="trademark" format="1">
  <advance width="568"/>
  <unicode hex="2122"/>
  <outline>
    <contour>
      <point x="523" y="732" type="line"/>
      <point x="450" y="732" type="line"/>
      <point x="379" y="596" type="line"/>
      <point x="347" y="732" type="line"/>
      <point x="273" y="732" type="line"/>
      <point x="240" y="497" type="line"/>
      <point x="292" y="497" type="line"/>
      <point x="310" y="631" type="line"/>
      <point x="344" y="497" type="line"/>
      <point x="380" y="497" type="line"/>
      <point x="405" y="543"/>
      <point x="427" y="584"/>
      <point x="448" y="625" type="curve"/>
      <point x="431" y="497" type="line"/>
      <point x="490" y="497" type="line"/>
    </contour>
    <contour>
      <point x="261" y="732" type="line"/>
      <point x="57" y="732" type="line"/>
      <point x="51" y="686" type="line"/>
      <point x="122" y="686" type="line"/>
      <point x="95" y="497" type="line"/>
      <point x="156" y="497" type="line"/>
      <point x="182" y="686" type="line"/>
      <point x="255" y="686" type="line"/>
    </contour>
  </outline>
</glyph>
<glyph name="Omega" format="1">
  <advance width="781"/>
  <unicode hex="2126"/>
  <outline>
    <contour>
      <point x="684" y="0" type="line"/>
      <point x="697" y="99" type="line"/>
      <point x="633" y="99" type="line"/>
      <point x="564" y="93" type="line"/>
      <point x="662" y="150"/>
      <point x="724" y="308"/>
      <point x="724" y="437" type="curve" smooth="yes"/>
      <point x="724" y="615"/>
      <point x="627" y="743"/>
      <point x="439" y="743" type="curve" smooth="yes"/>
      <point x="216" y="743"/>
      <point x="56" y="553"/>
      <point x="56" y="314" type="curve" smooth="yes"/>
      <point x="56" y="221"/>
      <point x="88" y="131"/>
      <point x="143" y="93" type="curve"/>
      <point x="76" y="99" type="line"/>
      <point x="12" y="99" type="line"/>
      <point x="0" y="0" type="line"/>
      <point x="279" y="0" type="line"/>
      <point x="289" y="76" type="line"/>
      <point x="217" y="106"/>
      <point x="193" y="189"/>
      <point x="193" y="276" type="curve" smooth="yes"/>
      <point x="193" y="404"/>
      <point x="250" y="644"/>
      <point x="426" y="644" type="curve" smooth="yes"/>
      <point x="545" y="644"/>
      <point x="582" y="533"/>
      <point x="582" y="422" type="curve" smooth="yes"/>
      <point x="582" y="304"/>
      <point x="539" y="122"/>
      <point x="414" y="76" type="curve"/>
      <point x="404" y="0" type="line"/>
    </contour>
  </outline>
</glyph>
<glyph name="partialdiff" format="1">
  <advance width="555"/>
  <unicode hex="2202"/>
  <outline>
    <contour>
      <point x="358" y="392"/>
      <point x="332" y="423"/>
      <point x="263" y="423" type="curve" smooth="yes"/>
      <point x="193" y="423"/>
      <point x="19" y="370"/>
      <point x="19" y="167" type="curve" smooth="yes"/>
      <point x="19" y="25"/>
      <point x="130" y="-11"/>
      <point x="201" y="-11" type="curve" smooth="yes"/>
      <point x="298" y="-11"/>
      <point x="514" y="64"/>
      <point x="514" y="449" type="curve" smooth="yes"/>
      <point x="514" y="629"/>
      <point x="444" y="743"/>
      <point x="291" y="743" type="curve" smooth="yes"/>
      <point x="165" y="743"/>
      <point x="100" y="671"/>
      <point x="100" y="671" type="curve"/>
      <point x="137" y="596" type="line"/>
      <point x="137" y="596"/>
      <point x="182" y="636"/>
      <point x="250" y="636" type="curve" smooth="yes"/>
      <point x="347" y="636"/>
      <point x="372" y="524"/>
      <point x="372" y="436" type="curve"/>
      <point x="371" y="417"/>
      <point x="371" y="400"/>
      <point x="369" y="385" type="curve"/>
    </contour>
    <contour>
      <point x="351" y="264"/>
      <point x="312" y="88"/>
      <point x="217" y="88" type="curve" smooth="yes"/>
      <point x="156" y="88"/>
      <point x="146" y="138"/>
      <point x="146" y="171" type="curve" smooth="yes"/>
      <point x="146" y="182"/>
      <point x="147" y="192"/>
      <point x="148" y="196" type="curve" smooth="yes"/>
      <point x="151" y="220"/>
      <point x="182" y="325"/>
      <point x="274" y="325" type="curve" smooth="yes"/>
      <point x="323" y="325"/>
      <point x="344" y="307"/>
      <point x="355" y="293" type="curve"/>
    </contour>
  </outline>
</glyph>
<glyph name="Delta" format="1">
  <advance width="631"/>
  <unicode hex="2206"/>
  <outline>
    <contour>
      <point x="564" y="0" type="line"/>
      <point x="573" y="67" type="line"/>
      <point x="415" y="732" type="line"/>
      <point x="312" y="732" type="line"/>
      <point x="-21" y="67" type="line"/>
      <point x="-30" y="0" type="line"/>
    </contour>
    <contour>
      <point x="103" y="99" type="line"/>
      <point x="159" y="208"/>
      <point x="242" y="382"/>
      <point x="291" y="486" type="curve" smooth="yes"/>
      <point x="306" y="518"/>
      <point x="324" y="572"/>
      <point x="329" y="586" type="curve"/>
      <point x="332" y="572"/>
      <point x="332" y="519"/>
      <point x="338" y="487" type="curve"/>
      <point x="359" y="384"/>
      <point x="398" y="208"/>
      <point x="424" y="99" type="curve"/>
    </contour>
  </outline>
</glyph>
<glyph name="product" format="1">
  <advance width="833"/>
  <unicode hex="220F"/>
  <outline>
    <contour>
      <point x="693" y="-229" type="line"/>
      <point x="693" y="633" type="line"/>
      <point x="795" y="633" type="line"/>
      <point x="795" y="732" type="line"/>
      <point x="38" y="732" type="line"/>
      <point x="38" y="633" type="line"/>
      <point x="138" y="633" type="line"/>
      <point x="138" y="-229" type="line"/>
      <point x="274" y="-229" type="line"/>
      <point x="274" y="633" type="line"/>
      <point x="558" y="633" type="line"/>
      <point x="558" y="-229" type="line"/>
    </contour>
  </outline>
</glyph>
<glyph name="summation" format="1">
  <advance width="726"/>
  <unicode hex="2211"/>
  <outline>
    <contour>
      <point x="670" y="-229" type="line"/>
      <point x="670" y="-92" type="line"/>
      <point x="169" y="-92" type="line"/>
      <point x="183" y="-76"/>
      <point x="203" y="-60"/>
      <point x="216" y="-41" type="curve" smooth="yes"/>
      <point x="468" y="310" type="line"/>
      <point x="260" y="580" type="line" smooth="yes"/>
      <point x="246" y="598"/>
      <point x="227" y="616"/>
      <point x="211" y="633" type="curve"/>
      <point x="660" y="633" type="line"/>
      <point x="660" y="732" type="line"/>
      <point x="56" y="732" type="line"/>
      <point x="56" y="633" type="line"/>
      <point x="328" y="277" type="line"/>
      <point x="56" y="-99" type="line"/>
      <point x="56" y="-229" type="line"/>
    </contour>
  </outline>
</glyph>
<glyph name="radical" format="1">
  <advance width="605"/>
  <unicode hex="221A"/>
  <outline>
    <contour>
      <point x="306" y="-230" type="line"/>
      <point x="648" y="968" type="line"/>
      <point x="555" y="968" type="line"/>
      <point x="258" y="-78" type="line"/>
      <point x="131" y="324" type="line"/>
      <point x="-59" y="257" type="line"/>
      <point x="-34" y="176" type="line"/>
      <point x="56" y="206" type="line"/>
      <point x="196" y="-230" type="line"/>
    </contour>
  </outline>
</glyph>
<glyph name="infinity" format="1">
  <advance width="812"/>
  <unicode hex="221E"/>
  <outline>
    <contour>
      <point x="450" y="130"/>
      <point x="505" y="74"/>
      <point x="577" y="74" type="curve" smooth="yes"/>
      <point x="681" y="74"/>
      <point x="742" y="148"/>
      <point x="742" y="249" type="curve" smooth="yes"/>
      <point x="742" y="350"/>
      <point x="681" y="424"/>
      <point x="577" y="424" type="curve" smooth="yes"/>
      <point x="505" y="424"/>
      <point x="450" y="368"/>
      <point x="406" y="317" type="curve"/>
      <point x="362" y="368"/>
      <point x="307" y="424"/>
      <point x="235" y="424" type="curve" smooth="yes"/>
      <point x="131" y="424"/>
      <point x="70" y="350"/>
      <point x="70" y="249" type="curve" smooth="yes"/>
      <point x="70" y="148"/>
      <point x="131" y="74"/>
      <point x="235" y="74" type="curve" smooth="yes"/>
      <point x="307" y="74"/>
      <point x="362" y="130"/>
      <point x="406" y="181" type="curve"/>
    </contour>
    <contour>
      <point x="495" y="280"/>
      <point x="532" y="314"/>
      <point x="578" y="314" type="curve" smooth="yes"/>
      <point x="619" y="314"/>
      <point x="643" y="289"/>
      <point x="643" y="249" type="curve" smooth="yes"/>
      <point x="643" y="209"/>
      <point x="619" y="184"/>
      <point x="578" y="184" type="curve" smooth="yes"/>
      <point x="532" y="184"/>
      <point x="495" y="218"/>
      <point x="466" y="249" type="curve"/>
    </contour>
    <contour>
      <point x="317" y="218"/>
      <point x="280" y="184"/>
      <point x="234" y="184" type="curve" smooth="yes"/>
      <point x="193" y="184"/>
      <point x="169" y="209"/>
      <point x="169" y="249" type="curve" smooth="yes"/>
      <point x="169" y="289"/>
      <point x="193" y="314"/>
      <point x="234" y="314" type="curve" smooth="yes"/>
      <point x="280" y="314"/>
      <point x="317" y="280"/>
      <point x="346" y="249" type="curve"/>
    </contour>
  </outline>
</glyph>
<glyph name="notequal" format="1">
  <advance width="630"/>
  <unicode hex="2260"/>
  <outline>
    <contour>
      <point x="564" y="109" type="line"/>
      <point x="564" y="197" type="line"/>
      <point x="335" y="197" type="line"/>
      <point x="384" y="302" type="line"/>
      <point x="564" y="302" type="line"/>
      <point x="564" y="390" type="line"/>
      <point x="426" y="390" type="line"/>
      <point x="476" y="497" type="line"/>
      <point x="378" y="497" type="line"/>
      <point x="328" y="390" type="line"/>
      <point x="66" y="390" type="line"/>
      <point x="66" y="302" type="line"/>
      <point x="287" y="302" type="line"/>
      <point x="239" y="197" type="line"/>
      <point x="66" y="197" type="line"/>
      <point x="66" y="109" type="line"/>
      <point x="198" y="109" type="line"/>
      <point x="147" y="0" type="line"/>
      <point x="242" y="0" type="line"/>
      <point x="293" y="109" type="line"/>
    </contour>
  </outline>
</glyph>
<glyph name="lessequal" format="1">
  <advance width="630"/>
  <unicode hex="2264"/>
  <outline>
    <contour>
      <point x="564" y="106" type="line"/>
      <point x="564" y="198" type="line"/>
      <point x="304" y="290" type="line" smooth="yes"/>
      <point x="272" y="301"/>
      <point x="235" y="308"/>
      <point x="200" y="309" type="curve"/>
      <point x="235" y="312"/>
      <point x="273" y="318"/>
      <point x="306" y="330" type="curve" smooth="yes"/>
      <point x="564" y="421" type="line"/>
      <point x="564" y="511" type="line"/>
      <point x="66" y="335" type="line"/>
      <point x="66" y="283" type="line"/>
    </contour>
    <contour>
      <point x="565" y="1" type="line"/>
      <point x="565" y="86" type="line"/>
      <point x="67" y="86" type="line"/>
      <point x="67" y="1" type="line"/>
    </contour>
  </outline>
</glyph>
<glyph name="lozenge" format="1">
  <advance width="504"/>
  <unicode hex="25CA"/>
  <outline>
    <contour>
      <point x="273" y="-14" type="line"/>
      <point x="479" y="362" type="line"/>
      <point x="273" y="739" type="line"/>
      <point x="231" y="739" type="line"/>
      <point x="25" y="362" type="line"/>
      <point x="231" y="-14" type="line"/>
    </contour>
    <contour>
      <point x="254" y="101" type="line"/>
      <point x="250" y="101" type="line"/>
      <point x="113" y="362" type="line"/>
      <point x="250" y="624" type="line"/>
      <point x="254" y="624" type="line"/>
      <point x="390" y="362" type="line"/>
    </contour>
  </outline>
</glyph>
<glyph name="uniFB01" format="1">
  <advance width="530"/>
  <unicode hex="FB01"/>
  <outline>
    <contour>
      <point x="525" y="631" type="line"/>
      <point x="501" y="749"/>
      <point x="396" y="776"/>
      <point x="350" y="776" type="curve" smooth="yes"/>
      <point x="181" y="776"/>
      <point x="127" y="650"/>
      <point x="107" y="497" type="curve"/>
      <point x="28" y="497" type="line"/>
      <point x="18" y="414" type="line"/>
      <point x="97" y="414" type="line"/>
      <point x="36" y="-35" type="line" smooth="yes"/>
      <point x="29" y="-85"/>
      <point x="12" y="-151"/>
      <point x="-49" y="-151" type="curve" smooth="yes"/>
      <point x="-71" y="-151"/>
      <point x="-106" y="-135"/>
      <point x="-122" y="-120" type="curve"/>
      <point x="-170" y="-186" type="line"/>
      <point x="-142" y="-219"/>
      <point x="-73" y="-230"/>
      <point x="-33" y="-230" type="curve" smooth="yes"/>
      <point x="84" y="-230"/>
      <point x="134" y="-155"/>
      <point x="149" y="-47" type="curve" smooth="yes"/>
      <point x="211" y="414" type="line"/>
      <point x="384" y="414" type="line"/>
      <point x="328" y="0" type="line"/>
      <point x="452" y="0" type="line"/>
      <point x="450" y="55" type="line"/>
      <point x="509" y="497" type="line"/>
      <point x="222" y="497" type="line"/>
      <point x="232" y="567"/>
      <point x="259" y="694"/>
      <point x="344" y="694" type="curve" smooth="yes"/>
      <point x="387" y="694"/>
      <point x="413" y="641"/>
      <point x="413" y="600" type="curve"/>
    </contour>
  </outline>
</glyph>
<glyph name="uniFB02" format="1">
  <advance width="529"/>
  <unicode hex="FB02"/>
  <outline>
    <contour>
      <point x="549" y="769" type="line"/>
      <point x="452" y="745" type="line"/>
      <point x="430" y="761"/>
      <point x="386" y="776"/>
      <point x="357" y="776" type="curve" smooth="yes"/>
      <point x="182" y="776"/>
      <point x="127" y="650"/>
      <point x="107" y="497" type="curve"/>
      <point x="28" y="497" type="line"/>
      <point x="18" y="414" type="line"/>
      <point x="97" y="414" type="line"/>
      <point x="36" y="-35" type="line" smooth="yes"/>
      <point x="29" y="-85"/>
      <point x="12" y="-151"/>
      <point x="-49" y="-151" type="curve" smooth="yes"/>
      <point x="-71" y="-151"/>
      <point x="-106" y="-135"/>
      <point x="-122" y="-120" type="curve"/>
      <point x="-170" y="-186" type="line"/>
      <point x="-142" y="-219"/>
      <point x="-73" y="-230"/>
      <point x="-33" y="-230" type="curve" smooth="yes"/>
      <point x="84" y="-230"/>
      <point x="134" y="-155"/>
      <point x="149" y="-47" type="curve" smooth="yes"/>
      <point x="211" y="414" type="line"/>
      <point x="329" y="414" type="line"/>
      <point x="340" y="497" type="line"/>
      <point x="222" y="497" type="line"/>
      <point x="232" y="567"/>
      <point x="262" y="694"/>
      <point x="354" y="694" type="curve" smooth="yes"/>
      <point x="392" y="694"/>
      <point x="412" y="671"/>
      <point x="412" y="633" type="curve" smooth="yes"/>
      <point x="412" y="628"/>
      <point x="412" y="622"/>
      <point x="411" y="617" type="curve" smooth="yes"/>
      <point x="329" y="0" type="line"/>
      <point x="456" y="0" type="line"/>
      <point x="453" y="54" type="line"/>
    </contour>
  </outline>
</glyph>
